<svg id="SvgjsSvg1000" xmlns="http://www.w3.org/2000/svg" version="1.1" xmlns:xlink="http://www.w3.org/1999/xlink" xmlns:svgjs="http://svgjs.com/svgjs" width="72" height="68" viewBox="0 0 72 68"><title>Stroke 1</title><desc>Created with Avocode.</desc><defs id="SvgjsDefs1001"></defs><path id="SvgjsPath1007" d="M1270 1091L1210 1091L1210 1050L1252 1050C1252 1050 1256.92 1049.92 1259 1052C1261 1054 1262 1058 1262 1058C1262 1058 1266.5 1059.08 1268 1061C1269.5 1062.92 1270 1068 1270 1068Z " fill-opacity="0" fill="#ffffff" stroke-dasharray="0" stroke-linejoin="miter" stroke-linecap="butt" stroke-opacity="1" stroke="#cca266" stroke-miterlimit="50" stroke-width="4" transform="matrix(1,0,0,1,-1200,-1040)"></path><path id="SvgjsPath1008" d="M1206 1083L1202 1083L1202 1042L1251 1042L1251 1046 " fill-opacity="0" fill="#ffffff" stroke-dasharray="0" stroke-linejoin="miter" stroke-linecap="butt" stroke-opacity="1" stroke="#cca266" stroke-miterlimit="50" stroke-width="4" transform="matrix(1,0,0,1,-1200,-1040)"></path><path id="SvgjsPath1009" d="M1254 1081.08L1257.47 1080L1259.44 1083.06L1262.79 1084.46L1262.33 1088.07L1264 1091.31L1261.33 1093.77L1260.53 1097.32L1256.8999999999999 1097.49L1253.9999999999998 1099.7L1251.1099999999997 1097.49L1247.4699999999996 1097.32L1246.6699999999996 1093.77L1243.9999999999995 1091.31L1245.6699999999996 1088.07L1245.2099999999996 1084.46L1248.5599999999995 1083.06L1250.5299999999995 1080Z " fill="#b31b2c" fill-opacity="1" transform="matrix(1,0,0,1,-1200,-1040)"></path><path id="SvgjsPath1010" d="M1257 1108L1254 1103.95L1251 1108L1251 1095L1257 1095Z " fill="#b31b2c" fill-opacity="1" transform="matrix(1,0,0,1,-1200,-1040)"></path><path id="SvgjsPath1011" d="M1225 1062C1225 1064.21 1223.21 1066 1221 1066C1218.79 1066 1217 1064.21 1217 1062C1217 1059.79 1218.79 1058 1221 1058C1223.21 1058 1225 1059.79 1225 1062 " fill="#b31b2c" fill-opacity="1" transform="matrix(1,0,0,1,-1200,-1040)"></path><path id="SvgjsPath1012" d="M1237 1074L1218 1074C1216.9 1074 1216 1073.1 1216 1072C1216 1070.9 1216.9 1070 1218 1070L1237 1070C1238.1 1070 1239 1070.9 1239 1072C1239 1073.1 1238.1 1074 1237 1074 " fill="#b31b2c" fill-opacity="1" transform="matrix(1,0,0,1,-1200,-1040)"></path></svg>