<svg id="SvgjsSvg1013" xmlns="http://www.w3.org/2000/svg" version="1.1" xmlns:xlink="http://www.w3.org/1999/xlink" xmlns:svgjs="http://svgjs.com/svgjs" width="72" height="60" viewBox="0 0 72 60"><title>Stroke 1</title><desc>Created with Avocode.</desc><defs id="SvgjsDefs1014"></defs><path id="SvgjsPath1015" d="M1198 1328L1270 1328 " fill-opacity="0" fill="#ffffff" stroke-dasharray="0" stroke-linejoin="round" stroke-linecap="butt" stroke-opacity="1" stroke="#b31b2c" stroke-miterlimit="50" stroke-width="4" transform="matrix(1,0,0,1,-1198,-1270)"></path><path id="SvgjsPath1016" d="M1204 1324L1208.91 1324L1208.91 1276L1204 1276Z " fill="#b31b2c" fill-opacity="1" transform="matrix(1,0,0,1,-1198,-1270)"></path><path id="SvgjsPath1017" d="M1214 1324L1218.91 1324L1218.91 1270L1214 1270Z " fill="#b31b2c" fill-opacity="1" transform="matrix(1,0,0,1,-1198,-1270)"></path><path id="SvgjsPath1018" d="M1224 1324L1228.91 1324L1228.91 1290L1224 1290Z " fill="#b31b2c" fill-opacity="1" transform="matrix(1,0,0,1,-1198,-1270)"></path><path id="SvgjsPath1019" d="M1234 1324L1238.91 1324L1238.91 1315L1234 1315Z " fill="#cca266" fill-opacity="1" transform="matrix(1,0,0,1,-1198,-1270)"></path><path id="SvgjsPath1020" d="M1244 1324L1248.91 1324L1248.91 1311L1244 1311Z " fill="#cca266" fill-opacity="1" transform="matrix(1,0,0,1,-1198,-1270)"></path><path id="SvgjsPath1021" d="M1254 1324L1258.91 1324L1258.91 1320L1254 1320Z " fill="#cca266" fill-opacity="1" transform="matrix(1,0,0,1,-1198,-1270)"></path><path id="SvgjsPath1022" d="M1255.89 1277.28L1239.67 1301.69L1243.0500000000002 1301.69L1259.2700000000002 1277.28ZM1263 1295.71C1263 1293.72 1262.58 1292.2 1261.73 1291.13C1260.88 1290.0600000000002 1259.66 1289.5200000000002 1258.07 1289.5200000000002C1254.84 1289.5200000000002 1253.22 1291.5800000000002 1253.22 1295.7100000000003C1253.22 1297.7200000000003 1253.64 1299.2600000000002 1254.48 1300.3300000000002C1255.33 1301.4 1256.53 1301.93 1258.07 1301.93C1259.6899999999998 1301.93 1260.9099999999999 1301.41 1261.75 1300.3700000000001C1262.58 1299.3300000000002 1263 1297.7700000000002 1263 1295.71ZM1239.86 1285.78C1240.08 1286.34 1240.4199999999998 1286.62 1240.8799999999999 1286.62C1241.79 1286.62 1242.2399999999998 1285.4799999999998 1242.2399999999998 1283.2099999999998C1242.2399999999998 1280.9599999999998 1241.7899999999997 1279.8299999999997 1240.8799999999999 1279.8299999999997C1240.4199999999998 1279.8299999999997 1240.08 1280.1099999999997 1239.86 1280.6599999999996C1239.6499999999999 1281.2099999999996 1239.55 1282.0699999999997 1239.55 1283.2099999999996C1239.55 1284.3599999999997 1239.6499999999999 1285.2099999999996 1239.86 1285.7799999999995ZM1256.77 1295.73C1256.77 1294.59 1256.87 1293.74 1257.08 1293.18C1257.29 1292.63 1257.6299999999999 1292.3500000000001 1258.1 1292.3500000000001C1259 1292.3500000000001 1259.4499999999998 1293.4800000000002 1259.4499999999998 1295.7300000000002C1259.4499999999998 1298.0100000000002 1258.9999999999998 1299.1400000000003 1258.1 1299.1400000000003C1257.6299999999999 1299.1400000000003 1257.29 1298.8600000000004 1257.08 1298.3000000000004C1256.87 1297.7300000000005 1256.77 1296.8800000000003 1256.77 1295.7300000000005ZM1244.53 1287.86C1243.7 1288.8999999999999 1242.47 1289.4199999999998 1240.86 1289.4199999999998C1239.31 1289.4199999999998 1238.11 1288.8899999999999 1237.27 1287.82C1236.42 1286.75 1236 1285.21 1236 1283.1799999999998C1236 1279.06 1237.62 1276.9999999999998 1240.86 1276.9999999999998C1242.4399999999998 1276.9999999999998 1243.6599999999999 1277.5299999999997 1244.51 1278.5999999999997C1245.36 1279.6699999999996 1245.78 1281.1999999999996 1245.78 1283.1799999999996C1245.78 1285.2599999999995 1245.37 1286.8199999999997 1244.53 1287.8599999999997Z " fill="#cca266" fill-opacity="1" transform="matrix(1,0,0,1,-1198,-1270)"></path></svg>