<svg xmlns="http://www.w3.org/2000/svg" width="74" height="70" viewBox="0 0 74 70"><path fill="none" stroke="#cca266" stroke-linecap="round" stroke-linejoin="round" stroke-miterlimit="50" stroke-width="4" d="M42 34c0-4.97 6.72-9 15-9 8.28 0 15 4.03 15 9s-6.72 9-15 9c-8.28 0-15-4.03-15-9zM2 50c0-4.97 6.72-9 15-9 8.28 0 15 4.03 15 9s-6.72 9-15 9c-8.28 0-15-4.03-15-9z"/><path fill="none" stroke="#b31b2c" stroke-linecap="round" stroke-linejoin="round" stroke-miterlimit="50" stroke-width="4" d="M17.21 34.06C13.8-3.47 52.95 2.32 57.5 13.12M56.81 2v10.81H46"/><path fill="none" stroke="#cca266" stroke-linecap="round" stroke-linejoin="round" stroke-miterlimit="50" stroke-width="4" d="M2 50c0 4.95 6.66 8.97 14.88 8.97S31.77 54.95 31.77 50v8.22c0 4.95-6.67 8.97-14.89 8.97S2 63.17 2 58.22V50zM42 34c0 4.95 6.67 8.97 14.9 8.97S71.8 38.95 71.8 34l-.01 8.22c0 4.95-6.66 8.97-14.89 8.97S42 47.17 42 42.22V34z"/><path fill="none" stroke="#cca266" stroke-linecap="round" stroke-linejoin="round" stroke-miterlimit="50" stroke-width="4" d="M42 42c0 4.95 6.67 8.97 14.9 8.97S71.8 46.95 71.8 42l-.01 8.22c0 4.95-6.66 8.97-14.89 8.97S42 55.17 42 50.22V42z"/><path fill="none" stroke="#cca266" stroke-linecap="round" stroke-linejoin="round" stroke-miterlimit="50" stroke-width="4" d="M42 50c0 4.95 6.67 8.97 14.9 8.97S71.8 54.95 71.8 50l-.01 8.22c0 4.95-6.66 8.97-14.89 8.97S42 63.17 42 58.22V50z"/><path fill="none" stroke="#b31b2c" stroke-linecap="round" stroke-linejoin="round" stroke-miterlimit="50" stroke-width="4" d="M24.28 26l-7.64 7.64L9 26"/></svg>