<svg id="SvgjsSvg1013" xmlns="http://www.w3.org/2000/svg" version="1.1" xmlns:xlink="http://www.w3.org/1999/xlink" xmlns:svgjs="http://svgjs.com/svgjs" width="40" height="40" viewBox="0 0 40 40"><title>back</title><desc>Created with Avocode.</desc><defs id="SvgjsDefs1014"></defs><path id="SvgjsPath1015" d="M397 1179C397 1167.95 405.95 1159 417 1159C428.05 1159 437 1167.95 437 1179C437 1190.05 428.05 1199 417 1199C405.95 1199 397 1190.05 397 1179Z " fill="#3b5998" fill-opacity="1" transform="matrix(1,0,0,1,-397,-1159)"></path><path id="SvgjsPath1016" d="M418.75 1190.76L418.75 1179.8799999999999L421.75 1179.8799999999999L422.15 1176.1299999999999L418.75 1176.1299999999999L418.76 1174.2499999999998C418.76 1173.2699999999998 418.84999999999997 1172.7499999999998 420.25 1172.7499999999998L422.13 1172.7499999999998L422.13 1168.9999999999998L419.13 1168.9999999999998C415.52 1168.9999999999998 414.25 1170.8199999999997 414.25 1173.8799999999999L414.25 1176.1299999999999L412 1176.1299999999999L412 1179.8799999999999L414.25 1179.8799999999999L414.25 1190.76Z " fill="#ffffff" fill-opacity="1" transform="matrix(1,0,0,1,-397,-1159)"></path></svg>