<svg id="SvgjsSvg1017" xmlns="http://www.w3.org/2000/svg" version="1.1" xmlns:xlink="http://www.w3.org/1999/xlink" xmlns:svgjs="http://svgjs.com/svgjs" width="40" height="40" viewBox="0 0 40 40"><title>back</title><desc>Created with Avocode.</desc><defs id="SvgjsDefs1018"></defs><path id="SvgjsPath1019" d="M528 1179C528 1167.95 536.95 1159 548 1159C559.05 1159 568 1167.95 568 1179C568 1190.05 559.05 1199 548 1199C536.95 1199 528 1190.05 528 1179Z " fill="#dc4e41" fill-opacity="1" transform="matrix(1,0,0,1,-528,-1159)"></path><path id="SvgjsPath1020" d="M544.36 1180.6L547.97 1180.6C547.83 1181.53 546.88 1183.33 544.36 1183.33C542.19 1183.33 540.42 1181.54 540.42 1179.33C540.42 1177.1299999999999 542.1899999999999 1175.33 544.36 1175.33C545.6 1175.33 546.4300000000001 1175.86 546.9 1176.31L548.63 1174.6599999999999C547.52 1173.62 546.08 1172.9999999999998 544.36 1172.9999999999998C540.85 1172.9999999999998 538 1175.8299999999997 538 1179.3299999999997C538 1182.8299999999997 540.85 1185.6699999999996 544.36 1185.6699999999996C548.04 1185.6699999999996 550.47 1183.0999999999997 550.47 1179.4799999999996C550.47 1179.0599999999995 550.4300000000001 1178.7499999999995 550.37 1178.4299999999996L544.36 1178.4299999999996ZM558 1178.43L556.18 1178.43L556.18 1176.6200000000001L554.3599999999999 1176.6200000000001L554.3599999999999 1178.43L552.55 1178.43L552.55 1180.24L554.3599999999999 1180.24L554.3599999999999 1182.05L556.18 1182.05L556.18 1180.24L558 1180.24Z " fill="#ffffff" fill-opacity="1" transform="matrix(1,0,0,1,-528,-1159)"></path></svg>