<svg id="SvgjsSvg1000" xmlns="http://www.w3.org/2000/svg" version="1.1" xmlns:xlink="http://www.w3.org/1999/xlink" xmlns:svgjs="http://svgjs.com/svgjs" width="40" height="40" viewBox="0 0 40 40"><title>back</title><desc>Created with Avocode.</desc><defs id="SvgjsDefs1001"></defs><path id="SvgjsPath1007" d="M135 1179C135 1167.95 143.95 1159 155 1159C166.05 1159 175 1167.95 175 1179C175 1190.05 166.05 1199 155 1199C143.95 1199 135 1190.05 135 1179Z " fill="#55acee" fill-opacity="1" transform="matrix(1,0,0,1,-135,-1159)"></path><path id="SvgjsPath1008" d="M154.4 1175.26L154.44 1175.95L153.74 1175.8600000000001C151.20000000000002 1175.5400000000002 148.97 1174.44 147.08 1172.5900000000001L146.16000000000003 1171.67L145.92000000000002 1172.3500000000001C145.42000000000002 1173.8600000000001 145.74 1175.45 146.79000000000002 1176.5300000000002C147.35000000000002 1177.1200000000001 147.22000000000003 1177.2100000000003 146.26000000000002 1176.8500000000001C145.92000000000002 1176.7400000000002 145.63000000000002 1176.65 145.60000000000002 1176.7C145.50000000000003 1176.8 145.84000000000003 1178.0800000000002 146.11 1178.5900000000001C146.47000000000003 1179.3000000000002 147.21 1179.9900000000002 148.02 1180.4L148.71 1180.72L147.9 1180.74C147.11 1180.74 147.08 1180.75 147.17000000000002 1181.05C147.45000000000002 1181.96 148.55 1182.94 149.78000000000003 1183.36L150.65000000000003 1183.6599999999999L149.90000000000003 1184.11C148.78000000000003 1184.76 147.46000000000004 1185.1299999999999 146.15000000000003 1185.1599999999999C145.52000000000004 1185.1699999999998 145.00000000000003 1185.2299999999998 145.00000000000003 1185.2699999999998C145.00000000000003 1185.4099999999999 146.71000000000004 1186.1999999999998 147.70000000000002 1186.5099999999998C150.68 1187.4299999999998 154.22000000000003 1187.0399999999997 156.88000000000002 1185.4699999999998C158.77 1184.35 160.65000000000003 1182.1299999999999 161.54000000000002 1179.9899999999998C162.01000000000002 1178.8399999999997 162.49 1176.7499999999998 162.49 1175.7499999999998C162.49 1175.0999999999997 162.53 1175.0199999999998 163.31 1174.2399999999998C163.77 1173.7899999999997 164.21 1173.2899999999997 164.29 1173.1499999999999C164.42999999999998 1172.8799999999999 164.42 1172.8799999999999 163.7 1173.12C162.51 1173.55 162.35 1173.4899999999998 162.92999999999998 1172.86C163.36999999999998 1172.3999999999999 163.89 1171.58 163.89 1171.34C163.89 1171.3 163.67999999999998 1171.37 163.44 1171.5C163.19 1171.64 162.63 1171.85 162.21 1171.98L161.45000000000002 1172.22L160.77 1171.75C160.39000000000001 1171.5 159.86 1171.22 159.58 1171.13C158.86 1170.93 157.77 1170.96 157.13000000000002 1171.19C155.38000000000002 1171.8200000000002 154.28000000000003 1173.46 154.40000000000003 1175.26Z " fill="#ffffff" fill-opacity="1" transform="matrix(1,0,0,1,-135,-1159)"></path></svg>