<svg id="SvgjsSvg1009" xmlns="http://www.w3.org/2000/svg" version="1.1" xmlns:xlink="http://www.w3.org/1999/xlink" xmlns:svgjs="http://svgjs.com/svgjs" width="40" height="40" viewBox="0 0 40 40"><title>back</title><desc>Created with Avocode.</desc><defs id="SvgjsDefs1010"></defs><path id="SvgjsPath1011" d="M266 1179C266 1167.95 274.95 1159 286 1159C297.05 1159 306 1167.95 306 1179C306 1190.05 297.05 1199 286 1199C274.95 1199 266 1190.05 266 1179Z " fill="#4c6c91" fill-opacity="1" transform="matrix(1,0,0,1,-266,-1159)"></path><path id="SvgjsPath1012" d="M286.71 1185.9C286.71 1185.9 287.09999999999997 1185.8500000000001 287.29999999999995 1185.65C287.47999999999996 1185.46 287.46999999999997 1185.1000000000001 287.46999999999997 1185.1000000000001C287.46999999999997 1185.1000000000001 287.45 1183.42 288.23999999999995 1183.17C289.0199999999999 1182.93 290.03 1184.79 291.09 1185.51C291.9 1186.05 292.51 1185.94 292.51 1185.94L295.36 1185.9C295.36 1185.9 296.85 1185.8100000000002 296.14 1184.66C296.08 1184.5600000000002 295.72999999999996 1183.8100000000002 294.03 1182.25C292.23999999999995 1180.62 292.47999999999996 1180.89 294.63 1178.07C295.94 1176.36 296.46 1175.31 296.3 1174.86C296.14 1174.4299999999998 295.18 1174.55 295.18 1174.55L291.97 1174.57C291.97 1174.57 291.73 1174.54 291.56 1174.6399999999999C291.39 1174.7399999999998 291.27 1174.9799999999998 291.27 1174.9799999999998C291.27 1174.9799999999998 290.77 1176.2999999999997 290.09 1177.4299999999998C288.65999999999997 1179.81 288.09 1179.9399999999998 287.85999999999996 1179.7899999999997C287.30999999999995 1179.4499999999998 287.44999999999993 1178.4099999999996 287.44999999999993 1177.6699999999998C287.44999999999993 1175.36 287.80999999999995 1174.3999999999999 286.75999999999993 1174.1499999999999C286.4099999999999 1174.07 286.1499999999999 1174.0099999999998 285.25999999999993 1173.9999999999998C284.10999999999996 1173.9899999999998 283.1499999999999 1174.0099999999998 282.5999999999999 1174.2699999999998C282.2299999999999 1174.4499999999998 281.94999999999993 1174.8399999999997 282.1199999999999 1174.8599999999997C282.32999999999987 1174.8899999999996 282.8099999999999 1174.9899999999998 283.0699999999999 1175.3299999999997C283.39999999999986 1175.7699999999998 283.3899999999999 1176.7499999999998 283.3899999999999 1176.7499999999998C283.3899999999999 1176.7499999999998 283.5699999999999 1179.4699999999998 282.9399999999999 1179.7999999999997C282.5099999999999 1180.0399999999997 281.9199999999999 1179.5599999999997 280.64999999999986 1177.3999999999996C279.98999999999984 1176.2999999999997 279.4999999999999 1175.0699999999997 279.4999999999999 1175.0699999999997C279.4999999999999 1175.0699999999997 279.4099999999999 1174.8499999999997 279.2399999999999 1174.7199999999998C279.0299999999999 1174.5699999999997 278.7399999999999 1174.5299999999997 278.7399999999999 1174.5299999999997L275.6999999999999 1174.5499999999997C275.6999999999999 1174.5499999999997 275.2399999999999 1174.5599999999997 275.0699999999999 1174.7599999999998C274.9199999999999 1174.9299999999998 275.0599999999999 1175.2899999999997 275.0599999999999 1175.2899999999997C275.0599999999999 1175.2899999999997 277.4399999999999 1180.7699999999998 280.14999999999986 1183.5299999999997C282.6199999999999 1186.0599999999997 285.4399999999999 1185.8999999999996 285.4399999999999 1185.8999999999996Z " fill="#ffffff" fill-opacity="1" transform="matrix(1,0,0,1,-266,-1159)"></path></svg>