<svg id="SvgjsSvg1008" xmlns="http://www.w3.org/2000/svg" version="1.1" xmlns:xlink="http://www.w3.org/1999/xlink" xmlns:svgjs="http://svgjs.com/svgjs" width="50" height="44" viewBox="0 0 50 44"><title>Shape 61</title><desc>Created with Avocode.</desc><defs id="SvgjsDefs1009"></defs><path id="SvgjsPath1010" d="M941 1488L899 1488C896.794 1488 895 1486.21 895 1484L895 1455C895 1452.79 896.794 1451 899 1451L941 1451C943.206 1451 945 1452.79 945 1455L945 1472L941 1472L941 1455L899 1455L899 1484L941 1484L941 1480L904 1480L904 1476L945 1476L945 1484C945 1486.21 943.206 1488 941 1488Z " fill="#b31b2c" fill-opacity="1" transform="matrix(1,0,0,1,-895,-1451)"></path><path id="SvgjsPath1011" d="M907 1495L907 1495C907 1492.79 908.791 1491 911 1491L929 1491C931.209 1491 933 1492.79 933 1495L933 1495 " fill="#cca266" fill-opacity="1" transform="matrix(1,0,0,1,-895,-1451)"></path></svg>