<svg id="SvgjsSvg1026" xmlns="http://www.w3.org/2000/svg" version="1.1" xmlns:xlink="http://www.w3.org/1999/xlink" xmlns:svgjs="http://svgjs.com/svgjs" width="50" height="38" viewBox="0 0 50 38"><title>Shape 58</title><desc>Created with Avocode.</desc><defs id="SvgjsDefs1027"></defs><path id="SvgjsPath1028" d="M1136 1452L1106 1452C1100.49 1452 1096 1456.49 1096 1462L1096 1466C1096 1467.1 1096.9 1468 1098 1468L1104.13 1468C1102.5600000000002 1469.82 1101.1100000000001 1471.72 1099.75 1473.78L1098.34 1475.8899999999999C1098.12 1476.2199999999998 1098 1476.61 1098 1476.9999999999998L1098 1487.9999999999998C1098 1489.0999999999997 1098.9 1489.9999999999998 1100 1489.9999999999998L1142 1489.9999999999998C1143.1 1489.9999999999998 1144 1489.0999999999997 1144 1487.9999999999998L1144 1476.9999999999998C1144 1476.6099999999997 1143.88 1476.2199999999998 1143.66 1475.8899999999999L1142.25 1473.78C1140.91 1471.76 1139.45 1469.84 1137.88 1468L1144 1468C1145.1 1468 1146 1467.1 1146 1466L1146 1462C1146 1456.49 1141.51 1452 1136 1452ZM1142 1464L1134.18 1464C1133.16 1463 1132.1000000000001 1462.03 1131.02 1461.09L1130.3 1460.48C1129.94 1460.17 1129.48 1460 1129 1460L1118 1460L1118 1464L1128.26 1464L1128.41 1464.13C1132.45 1467.5900000000001 1135.98 1471.5800000000002 1138.93 1476L1140 1477.61L1140 1486L1102 1486L1102 1477.61L1103.07 1476C1105.95 1471.68 1109.2 1468.03 1113.3 1464.52C1113.75 1464.1399999999999 1114 1463.58 1114 1463L1114 1460L1110 1460L1110 1462.09C1109.28 1462.72 1108.6 1463.36 1107.93 1464L1100 1464L1100 1462C1100 1458.69 1102.69 1456 1106 1456L1136 1456C1139.31 1456 1142 1458.69 1142 1462Z " fill="#b31b2c" fill-opacity="1" transform="matrix(1,0,0,1,-1096,-1452)"></path><path id="SvgjsPath1029" d="M1121 1483C1116.59 1483 1113 1479.41 1113 1475C1113 1470.59 1116.59 1467 1121 1467C1125.41 1467 1129 1470.59 1129 1475C1129 1479.41 1125.41 1483 1121 1483ZM1121 1471C1118.79 1471 1117 1472.79 1117 1475C1117 1477.21 1118.79 1479 1121 1479C1123.21 1479 1125 1477.21 1125 1475C1125 1472.79 1123.21 1471 1121 1471Z " fill="#cca266" fill-opacity="1" transform="matrix(1,0,0,1,-1096,-1452)"></path></svg>