<svg id="SvgjsSvg1023" xmlns="http://www.w3.org/2000/svg" version="1.1" xmlns:xlink="http://www.w3.org/1999/xlink" xmlns:svgjs="http://svgjs.com/svgjs" width="282" height="23" viewBox="0 0 282 23"><title>Shape 67</title><desc>Created with Avocode.</desc><defs id="SvgjsDefs1024"></defs><path id="SvgjsPath1025" d="M252.202 27.9997L261.155 50L258.077 50L255.56 43.9502L246.048 43.9502L243.606 50L240.452 50L249.405 27.9997ZM302 50L298.553 50L293.325 42.3687C292.99 41.876999999999995 292.685 41.4724 292.416 41.1509C291.579 40.1516 289.846 40.1002 289.366 40.1002L287.452 40.1002L287.45799999999997 50L284.655 50L284.57099999999997 27.9997L287.45799999999997 27.9997L287.452 37.3501L288.957 37.3501C289.96299999999997 37.3501 290.792 37.1136 291.552 36.6338C292.32500000000005 36.1454 293.11600000000004 35.2548 293.661 34.103L294.648 32.052L296.6 27.9997L299.43100000000004 27.9997L297.24100000000004 32.5918C297.24000000000007 32.5944 297.24000000000007 32.5978 297.237 32.6016L295.951 35.2941C295.199 36.8225 294.202 37.9112 292.855 38.3908C293.399 38.5555 293.868 38.818 294.267 39.177299999999995C294.665 39.536899999999996 295.104 40.06739999999999 295.584 40.765699999999995ZM277.941 27.9997L280.738 27.9997L280.738 50L277.941 50L277.941 40.1002L266.191 40.1002L266.191 50L263.393 50L263.393 27.9997L266.191 27.9997L266.191 37.3501L277.941 37.3501ZM211.917 39.0002L215.833 50L210.798 50L208 41.1997L206.881 41.1997L204.083 50L199.048 50L202.964 39.0002L199.048 27.999699999999997L204.083 27.999699999999997L206.861 36.2499L208 36.2499L210.761 27.999699999999997L215.876 27.999699999999997ZM194.571 27.9997L196.81 50L191.844 50L191.214 44.4998L186.179 44.4998L185.609 50L180.583 50L182.821 27.9997ZM110.083 27.9997L125.191 27.9997L125.191 34.6L120.155 34.6L120.155 32.4001L115.119 32.4001L115.119 45.050200000000004L120.155 45.050200000000004L120.155 42.85L125.191 42.85L125.191 50L110.083 50ZM38.4643 27.9997L53.5715 27.9997L53.5715 50L38.4643 50ZM20 27.9997L35.1072 27.9997L35.1072 43.3999L25.0358 43.3999L25.0358 50L20 50ZM56.9286 27.9997L72.03580000000001 27.9997L72.03580000000001 34.6L67.00000000000001 34.6L67.00000000000001 32.4001L61.964300000000016 32.4001L61.964300000000016 45.050200000000004L67.00000000000001 45.050200000000004L67.00000000000001 42.85L72.03580000000001 42.85L72.03580000000001 50L56.92860000000001 50ZM128.548 27.9997L143.655 27.9997L143.655 34.6L138.619 34.6L138.619 32.4001L133.583 32.4001L133.583 45.050200000000004L138.619 45.050200000000004L138.619 42.85L143.655 42.85L143.655 50L128.548 50ZM145.893 27.9997L160.949 27.9997L161 32.9502L155.964 32.9502L155.964 50L150.929 50L150.929 32.950199999999995L145.893 32.950199999999995ZM163.238 27.9997L178.345 27.9997L178.345 43.3999L168.274 43.3999L168.274 50L163.238 50ZM91.6191 27.9997L106.726 27.9997L106.726 50L91.6191 50ZM75.3929 27.9997L88.262 27.9997L88.262 32.9502L80.4286 32.9502L80.4286 50L75.3929 50ZM233.179 37.3501C235.323 37.3501 239.708 38.5419 239.708 43.8656C239.708 44.3366 239.612 45.914 238.361 47.4161C237.73 48.1732 236.90699999999998 48.7867 235.90599999999998 49.2072C234.67 49.7258 232.99099999999999 50 231.49999999999997 50L223.66699999999997 50L223.66699999999997 47.2499L229.26199999999997 47.2499C229.26399999999998 47.2499 229.58699999999996 47.2523 231.49999999999997 47.2499C233.44799999999998 47.2478 234.65799999999996 47.0637 235.56799999999998 46.2979C236.295 45.6845 236.665 44.8542 236.665 43.727399999999996C236.665 41.714099999999995 235.32299999999998 40.100199999999994 233.179 40.100199999999994L233.179 37.35009999999999C233.179 37.35009999999999 231.034 37.35009999999999 233.179 37.35009999999999ZM254.441 41.1997L250.723 31.3001L247.167 41.1997ZM96.6548 45.0502L101.69099999999999 45.0502L101.69099999999999 32.950199999999995L96.6548 32.950199999999995ZM43.5 45.0502L48.5357 45.0502L48.5357 32.950199999999995L43.5 32.950199999999995ZM237.655 30.75L223.667 30.75L223.667 27.9997L237.655 27.9997ZM168.274 38.4498L173.31 38.4498L173.31 32.9502L168.274 32.9502ZM25.0358 38.4498L30.0715 38.4498L30.0715 32.9502L25.035800000000002 32.9502ZM190.655 39.55L190.095 32.950199999999995L187.298 32.950199999999995L186.738 39.55Z " fill="#b31b2c" fill-opacity="1" transform="matrix(1,0,0,1,-20,-27)"></path><path id="SvgjsPath1026" d="M231.5 37.3501L226.464 37.3501L226.464 32.400099999999995L223.667 32.400099999999995L223.667 37.3501L218.631 37.3501L218.631 40.1002L223.667 40.1002L223.667 45.050200000000004L226.464 45.050200000000004L226.464 40.1002L231.5 40.1002Z " fill="#cca266" fill-opacity="1" transform="matrix(1,0,0,1,-20,-27)"></path></svg>