<svg id="SvgjsSvg1014" xmlns="http://www.w3.org/2000/svg" version="1.1" xmlns:xlink="http://www.w3.org/1999/xlink" xmlns:svgjs="http://svgjs.com/svgjs" width="18" height="14" viewBox="0 0 18 14"><title>Shape 49</title><desc>Created with Avocode.</desc><defs id="SvgjsDefs1015"></defs><path id="SvgjsPath1016" d="M1197.44 3583.37L1197.44 3588.4C1198.22 3587.4900000000002 1199.16 3587.03 1200.25 3587.03C1200.81 3587.03 1201.32 3587.13 1201.77 3587.34C1202.22 3587.55 1202.56 3587.81 1202.79 3588.13C1203.02 3588.46 1203.18 3588.81 1203.26 3589.21C1203.34 3589.6 1203.39 3590.21 1203.39 3591.03L1203.39 3596.4100000000003L1200.94 3596.4100000000003L1200.94 3591.5600000000004C1200.94 3590.6000000000004 1200.9 3589.9900000000002 1200.81 3589.7300000000005C1200.72 3589.4700000000003 1200.55 3589.2700000000004 1200.32 3589.1200000000003C1200.08 3588.9600000000005 1199.79 3588.8800000000006 1199.4399999999998 3588.8800000000006C1199.0299999999997 3588.8800000000006 1198.6699999999998 3588.9800000000005 1198.36 3589.1800000000007C1198.04 3589.3800000000006 1197.8 3589.6700000000005 1197.6599999999999 3590.0700000000006C1197.5099999999998 3590.4600000000005 1197.4299999999998 3591.0400000000004 1197.4399999999998 3591.8100000000004L1197.4299999999998 3596.4100000000003L1194.9999999999998 3596.4100000000003L1194.9999999999998 3583.3700000000003ZM1204.6 3583.37L1204.6 3596.41L1207.04 3596.41L1207.04 3591.81C1207.04 3591.04 1207.12 3590.46 1207.26 3590.07C1207.41 3589.67 1207.65 3589.38 1207.96 3589.1800000000003C1208.28 3588.9800000000005 1208.64 3588.88 1209.04 3588.88C1209.3999999999999 3588.88 1209.69 3588.96 1209.92 3589.12C1210.16 3589.27 1210.3200000000002 3589.47 1210.41 3589.73C1210.51 3589.9900000000002 1210.5500000000002 3590.6 1210.5500000000002 3591.56L1210.5500000000002 3596.41L1212.9900000000002 3596.41L1212.9900000000002 3591.0299999999997C1212.9900000000002 3590.2099999999996 1212.9500000000003 3589.6 1212.8700000000003 3589.2099999999996C1212.7800000000004 3588.8099999999995 1212.6300000000003 3588.4599999999996 1212.4000000000003 3588.1299999999997C1212.1700000000003 3587.8099999999995 1211.8300000000004 3587.5499999999997 1211.3800000000003 3587.3399999999997C1210.9200000000003 3587.1299999999997 1210.4200000000003 3587.0299999999997 1209.8600000000004 3587.0299999999997C1208.7700000000004 3587.0299999999997 1207.8300000000004 3587.49 1207.0400000000004 3588.3999999999996L1207.0400000000004 3583.3699999999994Z " fill="#ffffff" fill-opacity="1" transform="matrix(1,0,0,1,-1195,-3583)"></path></svg>