<svg id="SvgjsSvg1020" xmlns="http://www.w3.org/2000/svg" version="1.1" xmlns:xlink="http://www.w3.org/1999/xlink" xmlns:svgjs="http://svgjs.com/svgjs" width="58" height="50" viewBox="0 0 58 50"><title>Shape 77</title><desc>Created with Avocode.</desc><defs id="SvgjsDefs1021"></defs><path id="SvgjsPath1022" d="M1153 2664L1152 2664L1152 2660C1152 2658.9 1151.1 2658 1150 2658L1139 2658C1137.9 2658 1137 2658.9 1137 2660C1137 2661.1 1137.9 2662 1139 2662L1148 2662L1148 2664L1135 2664L1135 2664.95C1134.53 2659.97 1132.76 2655.22 1129.83 2651.12L1126.8899999999999 2647L1127.9999999999998 2647C1129.0999999999997 2647 1129.9999999999998 2646.1 1129.9999999999998 2645C1129.9999999999998 2643.9 1129.0999999999997 2643 1127.9999999999998 2643L1126.0599999999997 2643L1128.3299999999997 2637.8C1128.5999999999997 2637.1800000000003 1128.5399999999997 2636.4700000000003 1128.1699999999996 2635.9100000000003C1127.7999999999997 2635.34 1127.1699999999996 2635.0000000000005 1126.4999999999995 2635.0000000000005L1105.9999999999995 2635.0000000000005C1105.3099999999995 2635.0000000000005 1104.6599999999996 2635.3600000000006 1104.2999999999995 2635.9500000000003C1103.9299999999996 2636.5400000000004 1103.8999999999994 2637.2700000000004 1104.2099999999996 2637.8900000000003L1106.7599999999995 2643.0000000000005L1105.9999999999995 2643.0000000000005C1104.8999999999996 2643.0000000000005 1103.9999999999995 2643.9000000000005 1103.9999999999995 2645.0000000000005C1103.9999999999995 2646.1000000000004 1104.8999999999996 2647.0000000000005 1105.9999999999995 2647.0000000000005L1106.1099999999994 2647.0000000000005L1102.8699999999994 2651.5400000000004C1099.7099999999994 2655.9700000000003 1097.8799999999994 2661.1900000000005 1097.5999999999995 2666.6200000000003L1096.9999999999995 2678.0800000000004C1096.9999999999995 2678.1100000000006 1096.9999999999995 2678.1500000000005 1096.9999999999995 2678.1800000000003C1096.9999999999995 2681.9400000000005 1100.2799999999995 2685.0000000000005 1104.2999999999995 2685.0000000000005L1127.9999999999995 2685.0000000000005C1131.3399999999995 2685.0000000000005 1134.1599999999996 2682.8900000000003 1135.0199999999995 2680.0000000000005L1148.9999999999995 2680.0000000000005C1150.0999999999995 2680.0000000000005 1150.9999999999995 2679.1000000000004 1150.9999999999995 2678.0000000000005L1150.9999999999995 2674.0000000000005L1152.9999999999995 2674.0000000000005C1154.0999999999995 2674.0000000000005 1154.9999999999995 2673.1000000000004 1154.9999999999995 2672.0000000000005L1154.9999999999995 2666.0000000000005C1154.9999999999995 2664.9000000000005 1154.0999999999995 2664.0000000000005 1152.9999999999995 2664.0000000000005ZM1128 2681L1104.3 2681C1102.5 2681 1101.03 2679.76 1101 2678.23L1101.59 2666.83C1101.84 2662.16 1103.3999999999999 2657.68 1106.12 2653.87L1111.6299999999999 2646.16C1111.6299999999999 2646.1499999999996 1111.6399999999999 2646.14 1111.6399999999999 2646.1299999999997C1111.7299999999998 2646.0099999999998 1111.8 2645.8699999999994 1111.86 2645.72C1111.8799999999999 2645.68 1111.8899999999999 2645.6299999999997 1111.8999999999999 2645.5899999999997C1111.9399999999998 2645.4799999999996 1111.9599999999998 2645.3599999999997 1111.9799999999998 2645.24C1111.9799999999998 2645.1899999999996 1111.9899999999998 2645.14 1111.9899999999998 2645.1C1111.9899999999998 2645.06 1111.9999999999998 2645.0299999999997 1111.9999999999998 2645C1111.9999999999998 2644.89 1111.9799999999998 2644.78 1111.9699999999998 2644.68C1111.9599999999998 2644.6499999999996 1111.9599999999998 2644.6299999999997 1111.9599999999998 2644.6099999999997C1111.9299999999998 2644.45 1111.87 2644.2999999999997 1111.8099999999997 2644.16C1111.7999999999997 2644.14 1111.7999999999997 2644.12 1111.7899999999997 2644.1099999999997L1109.2399999999998 2638.9999999999995L1123.4399999999998 2638.9999999999995L1121.6899999999998 2642.9999999999995L1117.9999999999998 2642.9999999999995C1116.8999999999999 2642.9999999999995 1115.9999999999998 2643.8999999999996 1115.9999999999998 2644.9999999999995C1115.9999999999998 2646.0999999999995 1116.8999999999999 2646.9999999999995 1117.9999999999998 2646.9999999999995L1121.9699999999998 2646.9999999999995L1126.5699999999997 2653.4399999999996C1129.4699999999998 2657.5099999999998 1131.0499999999997 2662.2999999999997 1131.1299999999997 2667.2899999999995L1131.2999999999997 2678.1799999999994C1131.2999999999997 2679.7399999999993 1129.8199999999997 2680.9999999999995 1127.9999999999998 2680.9999999999995ZM1135.27 2676L1135.24 2674L1147 2674L1147 2676ZM1151 2670L1135.17 2670L1135.14 2668L1151 2668Z " fill="#b31b2c" fill-opacity="1" transform="matrix(1,0,0,1,-1097,-2635)"></path><path id="SvgjsPath1023" d="M1110.83 2664.84C1112.4499999999998 2664.84 1113.77 2663.51 1113.77 2661.8700000000003C1113.77 2660.2300000000005 1112.45 2658.9000000000005 1110.83 2658.9000000000005C1109.21 2658.9000000000005 1107.8899999999999 2660.2300000000005 1107.8899999999999 2661.8700000000003C1107.8899999999999 2663.51 1109.2099999999998 2664.84 1110.83 2664.84ZM1121.61 2669.79C1119.9799999999998 2669.79 1118.6699999999998 2671.12 1118.6699999999998 2672.7599999999998C1118.6699999999998 2674.3999999999996 1119.9799999999998 2675.7299999999996 1121.61 2675.7299999999996C1123.2299999999998 2675.7299999999996 1124.55 2674.3999999999996 1124.55 2672.7599999999998C1124.55 2671.12 1123.23 2669.79 1121.61 2669.79ZM1123.97 2659.48C1123.21 2658.71 1121.97 2658.71 1121.2 2659.48L1108.46 2672.35C1107.7 2673.12 1107.7 2674.38 1108.46 2675.15C1108.8500000000001 2675.54 1109.3500000000001 2675.73 1109.8500000000001 2675.73C1110.3500000000001 2675.73 1110.8500000000001 2675.54 1111.2300000000002 2675.15L1123.9700000000003 2662.28C1124.7400000000002 2661.51 1124.7400000000002 2660.26 1123.9700000000003 2659.48Z " fill="#cca266" fill-opacity="1" transform="matrix(1,0,0,1,-1097,-2635)"></path></svg>