<svg id="SvgjsSvg1032" xmlns="http://www.w3.org/2000/svg" version="1.1" xmlns:xlink="http://www.w3.org/1999/xlink" xmlns:svgjs="http://svgjs.com/svgjs" width="64" height="48" viewBox="0 0 64 48"><title>Shape 72</title><desc>Created with Avocode.</desc><defs id="SvgjsDefs1033"></defs><path id="SvgjsPath1034" d="M1149 2889L1149 2869C1149 2866.79 1147.21 2865 1145 2865L1097 2865C1094.79 2865 1093 2866.79 1093 2869L1093 2881L1091 2881C1087.69 2881 1085 2883.69 1085 2887L1085 2907C1085 2910.31 1087.69 2913 1091 2913L1103 2913C1106.31 2913 1109 2910.31 1109 2907L1109 2905L1145 2905C1147.21 2905 1149 2903.21 1149 2901L1149 2893L1109 2893L1109 2887C1109 2883.69 1106.31 2881 1103 2881L1097 2881L1097 2869L1145 2869L1145 2889ZM1103 2885C1104.1 2885 1105 2885.9 1105 2887L1105 2897L1145 2897L1145 2901L1103 2901C1101.9 2901 1101 2901.9 1101 2903C1101 2904.1 1101.9 2905 1103 2905L1105 2905L1105 2907C1105 2908.1 1104.1 2909 1103 2909L1091 2909C1089.9 2909 1089 2908.1 1089 2907L1089 2887C1089 2885.9 1089.9 2885 1091 2885Z " fill="#b31b2c" fill-opacity="1" transform="matrix(1,0,0,1,-1085,-2865)"></path><path id="SvgjsPath1035" d="M1131 2913L1112 2913C1112 2910.79 1113.79 2909 1116 2909L1127 2909C1129.21 2909 1131 2910.79 1131 2913ZM1099 2903C1099 2904.1 1098.1 2905 1097 2905C1095.9 2905 1095 2904.1 1095 2903C1095 2901.9 1095.9 2901 1097 2901C1098.1 2901 1099 2901.9 1099 2903Z " fill="#cca266" fill-opacity="1" transform="matrix(1,0,0,1,-1085,-2865)"></path></svg>