<svg id="SvgjsSvg1008" xmlns="http://www.w3.org/2000/svg" version="1.1" xmlns:xlink="http://www.w3.org/1999/xlink" xmlns:svgjs="http://svgjs.com/svgjs" width="14" height="14" viewBox="0 0 14 14"><title>Shape 7</title><desc>Created with Avocode.</desc><defs id="SvgjsDefs1009"></defs><path id="SvgjsPath1010" d="M1109.78 3583L1098.22 3583C1097.54 3583 1097 3583.54 1097 3584.22L1097 3595.7799999999997C1097 3596.4599999999996 1097.54 3596.9999999999995 1098.22 3596.9999999999995L1109.78 3596.9999999999995C1110.46 3596.9999999999995 1111 3596.4599999999996 1111 3595.7799999999997L1111 3584.22C1111 3583.54 1110.46 3583 1109.78 3583ZM1109.37 3587.99L1109.2199999999998 3589.89L1107.2699999999998 3589.89L1107.2699999999998 3596.49L1104.8199999999997 3596.49L1104.8199999999997 3589.89L1103.4999999999998 3589.89L1103.4999999999998 3587.99L1104.8199999999997 3587.99L1104.8199999999997 3586.72C1104.8199999999997 3586.16 1104.8299999999997 3585.29 1105.2399999999998 3584.75C1105.6699999999998 3584.18 1106.2599999999998 3583.8 1107.2699999999998 3583.8C1108.9299999999998 3583.8 1109.6299999999997 3584.03 1109.6299999999997 3584.03L1109.2999999999997 3585.98C1109.2999999999997 3585.98 1108.7499999999998 3585.82 1108.2399999999998 3585.82C1107.7299999999998 3585.82 1107.2699999999998 3586 1107.2699999999998 3586.51L1107.2699999999998 3587.9900000000002Z " fill="#ffffff" fill-opacity="1" transform="matrix(1,0,0,1,-1097,-3583)"></path></svg>