<svg id="SvgjsSvg1017" xmlns="http://www.w3.org/2000/svg" version="1.1" xmlns:xlink="http://www.w3.org/1999/xlink" xmlns:svgjs="http://svgjs.com/svgjs" width="14" height="14" viewBox="0 0 14 14"><title>Shape 23 copy</title><desc>Created with Avocode.</desc><defs id="SvgjsDefs1018"></defs><path id="SvgjsPath1019" d="M1248.01 3582C1255.72 3582 1262 3588.28 1262 3596L1259.3 3596C1259.3 3589.76 1254.24 3584.68 1248.01 3584.68ZM1248 3586.76C1253.1 3586.76 1257.24 3590.9 1257.24 3595.9900000000002L1254.55 3595.9900000000002C1254.55 3594.2400000000002 1253.87 3592.59 1252.6299999999999 3591.36C1251.3899999999999 3590.1200000000003 1249.7499999999998 3589.44 1247.9999999999998 3589.44ZM1249.87 3592.27C1248.84 3592.27 1248 3593.1 1248 3594.12C1248 3595.15 1248.84 3595.98 1249.87 3595.98C1250.8999999999999 3595.98 1251.7299999999998 3595.15 1251.7299999999998 3594.12C1251.7299999999998 3593.1 1250.8999999999999 3592.27 1249.87 3592.27Z " fill="#ffffff" fill-opacity="1" transform="matrix(1,0,0,1,-1248,-3582)"></path></svg>