<svg id="SvgjsSvg1011" xmlns="http://www.w3.org/2000/svg" version="1.1" xmlns:xlink="http://www.w3.org/1999/xlink" xmlns:svgjs="http://svgjs.com/svgjs" width="17" height="13" viewBox="0 0 17 13"><title>bird</title><desc>Created with Avocode.</desc><defs id="SvgjsDefs1012"></defs><path id="SvgjsPath1013" d="M1163 3585.54C1162.38 3585.8 1161.7 3585.98 1161 3586.06C1161.72 3585.65 1162.27 3585.0099999999998 1162.53 3584.24C1161.86 3584.62 1161.11 3584.89 1160.32 3585.04C1159.6799999999998 3584.4 1158.77 3584 1157.77 3584C1155.84 3584 1154.28 3585.47 1154.28 3587.28C1154.28 3587.5400000000004 1154.31 3587.7900000000004 1154.37 3588.03C1151.4699999999998 3587.8900000000003 1148.8999999999999 3586.59 1147.1799999999998 3584.6000000000004C1146.8799999999999 3585.09 1146.7099999999998 3585.6500000000005 1146.7099999999998 3586.2500000000005C1146.7099999999998 3587.3900000000003 1147.3299999999997 3588.4000000000005 1148.2599999999998 3588.9800000000005C1147.6899999999998 3588.9700000000003 1147.1499999999999 3588.8200000000006 1146.6799999999998 3588.5700000000006C1146.6799999999998 3588.5900000000006 1146.6799999999998 3588.600000000001 1146.6799999999998 3588.6100000000006C1146.6799999999998 3590.2000000000007 1147.8799999999999 3591.5300000000007 1149.4799999999998 3591.8300000000004C1149.1899999999998 3591.9100000000003 1148.8799999999999 3591.9500000000003 1148.5599999999997 3591.9500000000003C1148.3399999999997 3591.9500000000003 1148.1199999999997 3591.92 1147.8999999999996 3591.8900000000003C1148.3499999999997 3593.1900000000005 1149.6399999999996 3594.1400000000003 1151.1599999999996 3594.1600000000003C1149.9699999999996 3595.0400000000004 1148.4599999999996 3595.57 1146.8299999999997 3595.57C1146.5499999999997 3595.57 1146.2699999999998 3595.55 1145.9999999999998 3595.52C1147.5399999999997 3596.45 1149.3799999999999 3597 1151.3499999999997 3597C1157.7599999999998 3597 1161.2699999999998 3592 1161.2699999999998 3587.66C1161.2699999999998 3587.52 1161.2699999999998 3587.3799999999997 1161.2599999999998 3587.24C1161.9399999999998 3586.7799999999997 1162.5299999999997 3586.2 1162.9999999999998 3585.54Z " fill="#ffffff" fill-opacity="1" transform="matrix(1,0,0,1,-1146,-3584)"></path></svg>