<svg id="SvgjsSvg1000" xmlns="http://www.w3.org/2000/svg" version="1.1" xmlns:xlink="http://www.w3.org/1999/xlink" xmlns:svgjs="http://svgjs.com/svgjs" width="21" height="13" viewBox="0 0 21 13"><title>Shape 5</title><desc>Created with Avocode.</desc><defs id="SvgjsDefs1001"></defs><path id="SvgjsPath1007" d="M1061.01 3591.56C1062.3 3592.74 1063.19 3593.69 1063.7 3594.43C1063.94 3594.7999999999997 1064.02 3595.1299999999997 1063.93 3595.4199999999996C1063.8500000000001 3595.7 1063.65 3595.8499999999995 1063.3500000000001 3595.8499999999995L1059.9900000000002 3595.9999999999995C1059.5100000000002 3596.0299999999997 1058.9400000000003 3595.7399999999993 1058.2600000000002 3595.1399999999994C1057.5800000000002 3594.5299999999993 1057.1200000000001 3594.0299999999993 1056.8900000000003 3593.629999999999C1056.7500000000002 3593.3899999999994 1056.5100000000002 3593.2599999999993 1056.1500000000003 3593.2199999999993C1055.7900000000004 3593.189999999999 1055.5600000000004 3593.359999999999 1055.4600000000003 3593.7299999999996L1055.3600000000004 3595.0399999999995C1055.3300000000004 3595.3099999999995 1055.2200000000003 3595.5099999999993 1055.0600000000004 3595.6399999999994C1054.8900000000003 3595.7799999999993 1054.7400000000005 3595.8499999999995 1054.6200000000003 3595.8699999999994C1054.5000000000005 3595.8899999999994 1054.3100000000004 3595.9099999999994 1054.0400000000004 3595.9499999999994C1053.1600000000003 3595.9799999999996 1052.3900000000003 3595.939999999999 1051.7200000000005 3595.8199999999993C1051.0600000000004 3595.6999999999994 1050.4600000000005 3595.459999999999 1049.9200000000005 3595.0899999999992C1049.3800000000006 3594.7199999999993 1048.9400000000005 3594.379999999999 1048.6200000000006 3594.079999999999C1048.3000000000006 3593.779999999999 1047.8300000000006 3593.289999999999 1047.2200000000005 3592.619999999999C1045.5600000000004 3590.269999999999 1044.3200000000004 3588.229999999999 1043.5100000000004 3586.519999999999C1043.2000000000005 3585.849999999999 1043.0300000000004 3585.2799999999993 1043.0000000000005 3584.809999999999C1043.1400000000006 3584.669999999999 1043.3900000000006 3584.5899999999992 1043.7600000000004 3584.549999999999C1044.1400000000006 3584.5199999999986 1044.6800000000005 3584.509999999999 1045.3900000000006 3584.529999999999C1046.1000000000006 3584.539999999999 1046.5300000000007 3584.549999999999 1046.6600000000005 3584.549999999999C1047.0000000000005 3584.5199999999986 1047.2700000000004 3584.699999999999 1047.4800000000005 3585.1099999999988C1048.3200000000004 3586.989999999999 1049.1600000000005 3588.449999999999 1049.9700000000005 3589.489999999999C1050.5100000000004 3589.999999999999 1050.8700000000006 3589.909999999999 1051.0400000000004 3589.239999999999C1051.1100000000004 3589.239999999999 1051.1400000000003 3588.4199999999987 1051.1400000000003 3586.769999999999C1051.1700000000003 3585.729999999999 1050.7500000000002 3585.0699999999993 1049.8700000000003 3584.809999999999C1050.0700000000004 3584.269999999999 1050.7800000000004 3583.999999999999 1052.0000000000005 3583.999999999999C1052.3100000000004 3583.999999999999 1052.6800000000005 3584.019999999999 1053.1200000000003 3584.0499999999993C1053.5600000000004 3584.0799999999995 1053.8000000000004 3584.0999999999995 1053.8300000000004 3584.0999999999995C1054.8500000000004 3584.0999999999995 1055.3600000000004 3584.4999999999995 1055.3600000000004 3585.3099999999995C1055.3600000000004 3585.4099999999994 1055.3400000000004 3585.6499999999996 1055.3100000000004 3586.0399999999995C1055.2800000000004 3586.4299999999994 1055.2500000000005 3586.7999999999997 1055.2300000000005 3587.1499999999996C1055.2200000000005 3587.4999999999995 1055.2100000000005 3587.8699999999994 1055.2100000000005 3588.2599999999998C1055.2100000000005 3588.64 1055.2600000000004 3588.97 1055.3600000000006 3589.24C1055.4600000000005 3589.5099999999998 1055.6000000000006 3589.68 1055.7700000000007 3589.75C1055.9500000000007 3589.61 1056.1300000000006 3589.48 1056.3000000000006 3589.37C1056.4700000000007 3589.25 1056.6500000000005 3589.06 1056.8400000000006 3588.79C1057.0200000000007 3588.52 1057.1700000000005 3588.32 1057.2700000000007 3588.18C1057.3700000000006 3588.0499999999997 1057.5200000000007 3587.7999999999997 1057.7300000000007 3587.43C1057.9300000000007 3587.06 1058.0500000000006 3586.8199999999997 1058.0800000000006 3586.72C1058.1200000000006 3586.62 1058.2300000000007 3586.3599999999997 1058.4400000000005 3585.9399999999996C1058.6400000000006 3585.5199999999995 1058.7400000000005 3585.3099999999995 1058.7400000000005 3585.3099999999995L1058.8200000000004 3585.1599999999994C1058.9600000000005 3584.859999999999 1059.0700000000004 3584.6799999999994 1059.1500000000003 3584.629999999999C1059.2400000000002 3584.579999999999 1059.4500000000003 3584.5499999999993 1059.7900000000004 3584.5499999999993L1062.9400000000005 3584.5499999999993C1063.3100000000004 3584.5499999999993 1063.5300000000004 3584.5599999999995 1063.6000000000006 3584.5799999999995C1063.6700000000005 3584.5999999999995 1063.7700000000007 3584.6699999999996 1063.9100000000005 3584.8099999999995C1064.1400000000006 3585.1099999999997 1063.9300000000005 3585.7599999999993 1063.2700000000004 3586.7699999999995C1062.6100000000004 3587.7799999999997 1061.9700000000005 3588.6199999999994 1061.3600000000004 3589.2899999999995C1060.5200000000004 3590.2299999999996 1060.4000000000003 3590.9899999999993 1061.0100000000004 3591.5599999999995Z " fill="#ffffff" fill-opacity="1" transform="matrix(1,0,0,1,-1043,-3584)"></path></svg>