<svg id="SvgjsSvg1012" xmlns="http://www.w3.org/2000/svg" version="1.1" xmlns:xlink="http://www.w3.org/1999/xlink" xmlns:svgjs="http://svgjs.com/svgjs" width="58" height="50" viewBox="0 0 58 50"><title>Shape 77 copy</title><desc>Created with Avocode.</desc><defs id="SvgjsDefs1013"></defs><path id="SvgjsPath1014" d="M353 2661L352 2661L352 2657C352 2655.9 351.105 2655 350 2655L339 2655C337.896 2655 337 2655.9 337 2657C337 2658.1 337.896 2659 339 2659L348 2659L348 2661L335 2661L335 2661.95C334.526 2656.97 332.76 2652.22 329.826 2648.12L326.886 2644L328 2644C329.1 2644 330 2643.1 330 2642C330 2640.9 329.1 2640 328 2640L326.058 2640L328.332 2634.8C328.603 2634.1800000000003 328.543 2633.4700000000003 328.174 2632.9100000000003C327.80499999999995 2632.34 327.17499999999995 2632.0000000000005 326.5 2632.0000000000005L306 2632.0000000000005C305.307 2632.0000000000005 304.663 2632.3600000000006 304.299 2632.9500000000003C303.935 2633.5400000000004 303.90099999999995 2634.2700000000004 304.21099999999996 2634.8900000000003L306.76399999999995 2640.0000000000005L305.99999999999994 2640.0000000000005C304.8999999999999 2640.0000000000005 303.99999999999994 2640.9000000000005 303.99999999999994 2642.0000000000005C303.99999999999994 2643.1000000000004 304.8999999999999 2644.0000000000005 305.99999999999994 2644.0000000000005L306.1139999999999 2644.0000000000005L302.8669999999999 2648.5400000000004C299.7049999999999 2652.9700000000003 297.8839999999999 2658.1800000000003 297.6009999999999 2663.6200000000003L297.0029999999999 2675.0800000000004C297.00099999999986 2675.1100000000006 296.9999999999999 2675.1500000000005 296.9999999999999 2675.1800000000003C296.9999999999999 2678.9400000000005 300.27499999999986 2682.0000000000005 304.3009999999999 2682.0000000000005L327.9999999999999 2682.0000000000005C331.3429999999999 2682.0000000000005 334.16199999999986 2679.8900000000003 335.0239999999999 2677.0000000000005L348.9999999999999 2677.0000000000005C350.10399999999987 2677.0000000000005 350.9999999999999 2676.1000000000004 350.9999999999999 2675.0000000000005L350.9999999999999 2671.0000000000005L352.9999999999999 2671.0000000000005C354.10399999999987 2671.0000000000005 354.9999999999999 2670.1000000000004 354.9999999999999 2669.0000000000005L354.9999999999999 2663.0000000000005C354.9999999999999 2661.9000000000005 354.10399999999987 2661.0000000000005 352.9999999999999 2661.0000000000005ZM328 2678L304.301 2678C302.498 2678 301.02799999999996 2676.76 301 2675.22L301.595 2663.83C301.838 2659.16 303.40400000000005 2654.68 306.12300000000005 2650.87L311.62800000000004 2643.16C311.63500000000005 2643.1499999999996 311.63700000000006 2643.14 311.64400000000006 2643.1299999999997C311.7320000000001 2643.0099999999998 311.80300000000005 2642.8699999999994 311.86000000000007 2642.72C311.8760000000001 2642.68 311.88700000000006 2642.6299999999997 311.9000000000001 2642.5899999999997C311.9360000000001 2642.4799999999996 311.96100000000007 2642.3599999999997 311.9750000000001 2642.24C311.98100000000005 2642.1899999999996 311.98800000000006 2642.14 311.99000000000007 2642.0899999999997C311.9920000000001 2642.0599999999995 312.00000000000006 2642.0299999999997 312.00000000000006 2641.9999999999995C312.00000000000006 2641.8899999999994 311.98500000000007 2641.7799999999997 311.96700000000004 2641.6699999999996C311.963 2641.6499999999996 311.96500000000003 2641.6299999999997 311.96000000000004 2641.6099999999997C311.92900000000003 2641.45 311.874 2641.2999999999997 311.807 2641.16C311.79900000000004 2641.14 311.798 2641.12 311.78900000000004 2641.1099999999997L309.23600000000005 2635.9999999999995L323.44200000000006 2635.9999999999995L321.69200000000006 2639.9999999999995L318.00000000000006 2639.9999999999995C316.90000000000003 2639.9999999999995 316.00000000000006 2640.8999999999996 316.00000000000006 2641.9999999999995C316.00000000000006 2643.0999999999995 316.90000000000003 2643.9999999999995 318.00000000000006 2643.9999999999995L321.97100000000006 2643.9999999999995L326.5710000000001 2650.4399999999996C329.4750000000001 2654.5099999999998 331.0510000000001 2659.2999999999997 331.1300000000001 2664.2899999999995L331.3010000000001 2675.1799999999994C331.3010000000001 2676.7399999999993 329.8200000000001 2677.9999999999995 328.0000000000001 2677.9999999999995ZM335.267 2673L335.236 2671L347 2671L347 2673ZM351 2667L335.173 2667L335.142 2665L351 2665Z " fill="#b31b2c" fill-opacity="1" transform="matrix(1,0,0,1,-297,-2632)"></path><path id="SvgjsPath1015" d="M320.5 2664C323.532 2664 326 2661.53 326 2658.5C326 2655.47 323.532 2653 320.5 2653L313.5 2653C312.395 2653 311.5 2653.9 311.5 2655L311.5 2660L311 2660C309.895 2660 309 2660.9 309 2662C309 2663.1 309.895 2664 311 2664L311.5 2664L311.5 2665L311 2665C309.895 2665 309 2665.9 309 2667C309 2668.1 309.895 2669 311 2669L311.5 2669L311.5 2671C311.5 2672.1 312.395 2673 313.5 2673C314.604 2673 315.5 2672.1 315.5 2671L315.5 2669L320 2669C321.105 2669 322 2668.1 322 2667C322 2665.9 321.105 2665 320 2665L315.5 2665L315.5 2664ZM315.5 2657L320.5 2657C321.327 2657 322 2657.67 322 2658.5C322 2659.33 321.327 2660 320.5 2660L315.5 2660Z " fill="#cca266" fill-opacity="1" transform="matrix(1,0,0,1,-297,-2632)"></path></svg>