<svg id="SvgjsSvg1016" xmlns="http://www.w3.org/2000/svg" version="1.1" xmlns:xlink="http://www.w3.org/1999/xlink" xmlns:svgjs="http://svgjs.com/svgjs" width="64" height="48" viewBox="0 0 64 48"><title>Shape 85</title><desc>Created with Avocode.</desc><defs id="SvgjsDefs1017"></defs><path id="SvgjsPath1018" d="M746 2635L694 2635C690.686 2635 688 2637.69 688 2641L688 2649C688 2650.1 688.895 2651 690 2651L748 2651L748 2677C748 2678.1 747.105 2679 746 2679L694 2679C692.895 2679 692 2678.1 692 2677L692 2661L742 2661C743.105 2661 744 2660.1 744 2659C744 2657.9 743.105 2657 742 2657L692 2657L692 2656C692 2654.9 691.1 2654 690 2654C688.9 2654 688 2654.9 688 2656L688 2677C688 2680.31 690.686 2683 694 2683L746 2683C749.314 2683 752 2680.31 752 2677L752 2641C752 2637.69 749.314 2635 746 2635ZM692 2647L692 2641C692 2639.9 692.895 2639 694 2639L746 2639C747.105 2639 748 2639.9 748 2641L748 2647Z " fill="#b31b2c" fill-opacity="1" transform="matrix(1,0,0,1,-688,-2635)"></path><path id="SvgjsPath1019" d="M704 2671L700 2671L700 2669L704 2669ZM698 2665C696.895 2665 696 2665.9 696 2667L696 2673C696 2674.1 696.895 2675 698 2675L706 2675C707.105 2675 708 2674.1 708 2673L708 2667C708 2665.9 707.105 2665 706 2665Z " fill="#cca266" fill-opacity="1" transform="matrix(1,0,0,1,-688,-2635)"></path></svg>