<svg id="SvgjsSvg1024" xmlns="http://www.w3.org/2000/svg" version="1.1" xmlns:xlink="http://www.w3.org/1999/xlink" xmlns:svgjs="http://svgjs.com/svgjs" width="60" height="53" viewBox="0 0 60 53"><title>Shape 83</title><desc>Created with Avocode.</desc><defs id="SvgjsDefs1025"></defs><path id="SvgjsPath1026" d="M348 2868.97L338 2868.97L338 2866.98C338 2865.88 337.104 2864.98 336 2864.98L304 2864.98C302.895 2864.98 302 2865.88 302 2866.98L302 2904.89L294 2904.89L294 2872.96L298 2872.96L298 2868.9700000000003L292 2868.9700000000003C290.895 2868.9700000000003 290 2869.8700000000003 290 2870.9700000000003L290 2906.88C290 2907.98 290.895 2908.88 292 2908.88L302 2908.88L302 2914.86C302 2915.53 302.338 2916.1600000000003 302.899 2916.53C303.461 2916.9 304.171 2916.96 304.788 2916.7000000000003L310.725 2914.1600000000003L313.8 2916.4600000000005C314.451 2916.9500000000003 315.332 2916.9900000000007 316.029 2916.5700000000006L320 2914.2000000000007L323.971 2916.5700000000006C324.289 2916.7600000000007 324.645 2916.8600000000006 325 2916.8600000000006C325.424 2916.8600000000006 325.846 2916.7200000000007 326.2 2916.4600000000005L329.275 2914.1600000000003L335.212 2916.7000000000003C335.83 2916.9600000000005 336.53999999999996 2916.9 337.101 2916.53C337.662 2916.1600000000003 338 2915.53 338 2914.86L338 2872.96L346 2872.96L346 2904.89L342 2904.89L342 2908.8799999999997L348 2908.8799999999997C349.104 2908.8799999999997 350 2907.9799999999996 350 2906.8799999999997L350 2870.97C350 2869.87 349.104 2868.97 348 2868.97ZM334 2911.84L329.788 2910.04C329.13 2909.75 328.373 2909.85 327.8 2910.27L324.87600000000003 2912.46L321.02900000000005 2910.16C320.71200000000005 2909.97 320.35600000000005 2909.87 320.00000000000006 2909.87C319.64400000000006 2909.87 319.28800000000007 2909.97 318.97100000000006 2910.16L315.1240000000001 2912.46L312.2000000000001 2910.27C311.6270000000001 2909.85 310.8690000000001 2909.75 310.2120000000001 2910.04L306.0000000000001 2911.84L306.0000000000001 2868.9700000000003L334.0000000000001 2868.9700000000003Z " fill="#b31b2c" fill-opacity="1" transform="matrix(1,0,0,1,-290,-2864)"></path><path id="SvgjsPath1027" d="M314.5 2884C317.532 2884 320 2881.53 320 2878.5C320 2875.47 317.532 2873 314.5 2873C311.468 2873 309 2875.47 309 2878.5C309 2881.53 311.468 2884 314.5 2884ZM310 2888L310 2892L326 2892L326 2888ZM314.5 2877C315.327 2877 316 2877.67 316 2878.5C316 2879.33 315.327 2880 314.5 2880C313.673 2880 313 2879.33 313 2878.5C313 2877.67 313.673 2877 314.5 2877ZM326 2898L326 2894L310 2894L310 2898Z " fill="#cca266" fill-opacity="1" transform="matrix(1,0,0,1,-290,-2864)"></path></svg>