<svg id="SvgjsSvg1028" xmlns="http://www.w3.org/2000/svg" version="1.1" xmlns:xlink="http://www.w3.org/1999/xlink" xmlns:svgjs="http://svgjs.com/svgjs" width="73" height="64" viewBox="0 0 73 64"><title>Shape 78</title><desc>Created with Avocode.</desc><defs id="SvgjsDefs1029"></defs><path id="SvgjsPath1030" d="M748.818 2894L748.811 2894C747.8960000000001 2894 747.08 2894.61 746.8670000000001 2895.5C743.9130000000001 2907.81 732.758 2917 719.479 2917C707.2370000000001 2917 696.818 2909.18 692.947 2898.32L697.72 2899.9C698.777 2900.25 699.914 2899.6800000000003 700.265 2898.63C700.617 2897.58 700.047 2896.4500000000003 698.9929999999999 2896.1L689.9409999999999 2893.1C688.9909999999999 2892.79 687.9529999999999 2893.22 687.5049999999999 2894.11L683.4809999999999 2902.11C682.9839999999999 2903.09 683.3869999999998 2904.3 684.3809999999999 2904.79C684.6699999999998 2904.93 684.9769999999999 2905 685.2789999999999 2905C686.0169999999999 2905 686.7279999999998 2904.59 687.0799999999999 2903.89L689.1639999999999 2899.75C693.6069999999999 2912.13 705.4969999999998 2921 719.4789999999999 2921C734.6759999999999 2921 747.41 2910.53 750.786 2896.45C751.0849999999999 2895.2 750.1089999999999 2894 748.818 2894ZM754.576 2873.21C753.58 2872.7200000000003 752.374 2873.12 751.8770000000001 2874.11L749.7930000000001 2878.25C745.3500000000001 2865.87 733.4600000000002 2857 719.4790000000002 2857C704.2810000000002 2857 691.5470000000001 2867.47 688.1710000000002 2881.55C687.8720000000002 2882.8 688.8480000000002 2884 690.1390000000001 2884L690.1460000000001 2884C691.061 2884 691.8770000000001 2883.39 692.09 2882.5C695.044 2870.19 706.1990000000001 2861 719.479 2861C731.72 2861 742.139 2868.82 746.01 2879.68L741.237 2878.1C740.179 2877.75 739.044 2878.3199999999997 738.692 2879.37C738.34 2880.42 738.91 2881.5499999999997 739.964 2881.9L749.017 2884.9C749.2270000000001 2884.9700000000003 749.442 2885 749.653 2885C750.397 2885 751.104 2884.59 751.452 2883.89L755.476 2875.89C755.973 2874.91 755.57 2873.71 754.576 2873.21Z " fill="#b31b2c" fill-opacity="1" transform="matrix(1,0,0,1,-683,-2857)"></path><path id="SvgjsPath1031" d="M723.925 2891C727.0319999999999 2891 729.559 2888.53 729.559 2885.5C729.559 2882.47 727.0319999999999 2880 723.925 2880L715.218 2880C714.087 2880 713.169 2880.9 713.169 2882L713.169 2887L712.657 2887C711.5260000000001 2887 710.6080000000001 2887.9 710.6080000000001 2889C710.6080000000001 2890.1 711.5260000000001 2891 712.657 2891L713.169 2891L713.169 2892L712.657 2892C711.5260000000001 2892 710.6080000000001 2892.9 710.6080000000001 2894C710.6080000000001 2895.1 711.5260000000001 2896 712.657 2896L713.169 2896L713.169 2898C713.169 2899.1 714.087 2900 715.218 2900C716.3489999999999 2900 717.2669999999999 2899.1 717.2669999999999 2898L717.2669999999999 2896L723.925 2896C725.0569999999999 2896 725.9739999999999 2895.1 725.9739999999999 2894C725.9739999999999 2892.9 725.0569999999999 2892 723.925 2892L717.2669999999999 2892L717.2669999999999 2891ZM717.267 2884L723.9250000000001 2884C724.773 2884 725.4620000000001 2884.67 725.4620000000001 2885.5C725.4620000000001 2886.33 724.7730000000001 2887 723.9250000000001 2887L717.267 2887Z " fill="#cca266" fill-opacity="1" transform="matrix(1,0,0,1,-683,-2857)"></path></svg>