<svg xmlns="http://www.w3.org/2000/svg" viewBox="0 0 52 50"><defs><style>.cls-1{fill:#b31b2c;}.cls-2{fill:#cca266;}</style></defs><title>Asset 11</title><g id="Layer_2" data-name="Layer 2"><g id="Layer_1-2" data-name="Layer 1"><path class="cls-1" d="M0,20c4.72-4.79,9.35-9.4,14-13.83l16,16C37.29,14.81,44.58,7.37,52,0V5.75Q40.88,16.8,30,27.83l-16-16Q7,18.53,0,25.69Z"/><polygon class="cls-2" points="0 31 0 50 4 50 4 27 0 31"/><polygon class="cls-2" points="8 23 8 50 12 50 12 19 8 23"/><polygon class="cls-2" points="20 23 20 50 16 50 16 19 20 23"/><polygon class="cls-2" points="28 31 28 50 24 50 24 27 28 31"/><polygon class="cls-2" points="32 31 32 50 36 50 36 27 32 31"/><polygon class="cls-2" points="40 23 40 50 44 50 44 19 40 23"/><polygon class="cls-2" points="48 15 48 50 52 50 52 11 48 15"/></g></g></svg>