<svg id="SvgjsSvg1009" xmlns="http://www.w3.org/2000/svg" version="1.1" xmlns:xlink="http://www.w3.org/1999/xlink" xmlns:svgjs="http://svgjs.com/svgjs" width="34" height="50" viewBox="0 0 34 50"><title>Shape 50</title><desc>Created with Avocode.</desc><defs id="SvgjsDefs1010"></defs><path id="SvgjsPath1011" d="M316 1484L316 1480L310 1480L310 1484ZM336 1476L336 1451C336 1447.69 333.309 1445 330 1445L308 1445C304.691 1445 302 1447.69 302 1451L302 1489C302 1492.31 304.691 1495 308 1495L330 1495C333.309 1495 336 1492.31 336 1489L336 1482C336 1480.9 335.104 1480 334 1480L324 1480L324 1484L332 1484L332 1489C332 1490.1 331.103 1491 330 1491L308 1491C306.897 1491 306 1490.1 306 1489L306 1451C306 1449.9 306.897 1449 308 1449L330 1449C331.103 1449 332 1449.9 332 1451L332 1476Z " fill="#b31b2c" fill-opacity="1" transform="matrix(1,0,0,1,-302,-1445)"></path><path id="SvgjsPath1012" d="M320 1488C316.691 1488 314 1485.31 314 1482C314 1478.69 316.691 1476 320 1476C323.309 1476 326 1478.69 326 1482C326 1485.31 323.309 1488 320 1488ZM320 1480C318.897 1480 318 1480.9 318 1482C318 1483.1 318.897 1484 320 1484C321.103 1484 322 1483.1 322 1482C322 1480.9 321.103 1480 320 1480Z " fill="#cca266" fill-opacity="1" transform="matrix(1,0,0,1,-302,-1445)"></path></svg>