<svg id="SvgjsSvg1013" xmlns="http://www.w3.org/2000/svg" version="1.1" xmlns:xlink="http://www.w3.org/1999/xlink" xmlns:svgjs="http://svgjs.com/svgjs" width="48" height="39" viewBox="0 0 48 39"><title>Shape 59</title><desc>Created with Avocode.</desc><defs id="SvgjsDefs1014"></defs><path id="SvgjsPath1015" d="M544 1463L538.591 1463L535.949 1451.55C535.7389999999999 1450.6399999999999 534.9319999999999 1450 534 1450L506 1450C505.068 1450 504.261 1450.64 504.051 1451.55L501.408 1463L496 1463L496 1467L498.689 1467C497.797 1468.23 496.997 1469.53 496.31100000000004 1470.9L496.20900000000006 1471.1100000000001C496.0710000000001 1471.39 496.00000000000006 1471.69 496.00000000000006 1472.0000000000002L496.00000000000006 1481.0000000000002C496.00000000000006 1482.1000000000001 496.89500000000004 1483.0000000000002 498.00000000000006 1483.0000000000002L500.00000000000006 1483.0000000000002L500.00000000000006 1487.0000000000002C500.00000000000006 1488.1000000000001 500.8960000000001 1489.0000000000002 502.00000000000006 1489.0000000000002L509.00000000000006 1489.0000000000002L509.00000000000006 1485.0000000000002L504.00000000000006 1485.0000000000002L504.00000000000006 1483.0000000000002L535 1483.0000000000002L535 1485.0000000000002L530 1485.0000000000002L530 1489.0000000000002L537 1489.0000000000002C538.105 1489.0000000000002 539 1488.1000000000001 539 1487.0000000000002L539 1483.0000000000002L542 1483.0000000000002C543.104 1483.0000000000002 544 1482.1000000000001 544 1481.0000000000002L544 1472.0000000000002C544 1471.6900000000003 543.929 1471.3900000000003 543.791 1471.1100000000001L543.687 1470.9C543.0020000000001 1469.5300000000002 542.203 1468.23 541.311 1467L544 1467ZM540 1472.47L540 1479L500 1479L500 1472.47C501.148 1470.23 502.633 1468.2 504.414 1466.41C504.68 1466.15 504.864 1465.8200000000002 504.949 1465.45L507.591 1454L532.409 1454L534.486 1463L509 1463L509 1467L536.129 1467C537.665 1468.64 538.974 1470.47 540 1472.47Z " fill="#b31b2c" fill-opacity="1" transform="matrix(1,0,0,1,-496,-1450)"></path><path id="SvgjsPath1016" d="M507 1470C505.343 1470 504 1471.34 504 1473C504 1474.66 505.343 1476 507 1476C508.657 1476 510 1474.66 510 1473C510 1471.34 508.657 1470 507 1470ZM533 1470C531.343 1470 530 1471.34 530 1473C530 1474.66 531.343 1476 533 1476C534.657 1476 536 1474.66 536 1473C536 1471.34 534.657 1470 533 1470ZM528 1475L528 1471L512 1471L512 1475Z " fill="#cca266" fill-opacity="1" transform="matrix(1,0,0,1,-496,-1450)"></path></svg>