<svg id="SvgjsSvg1010" xmlns="http://www.w3.org/2000/svg" version="1.1" xmlns:xlink="http://www.w3.org/1999/xlink" xmlns:svgjs="http://svgjs.com/svgjs" width="59" height="70" viewBox="0 0 59 70"><title>Combined Shape</title><desc>Created with Avocode.</desc><defs id="SvgjsDefs1011"></defs><path id="SvgjsPath1012" d="M1279 720L1236 720L1236 666L1279 666ZM1220 704L1220 650L1263 650L1263 656L1259 656L1259 654L1224 654L1224 700L1226 700L1226 704ZM1240 716L1275 716L1275 670L1240 670ZM1228 712L1228 658L1271 658L1271 664L1267 664L1267 662L1232 662L1232 708L1234 708L1234 712Z " fill="#b31b2c" fill-opacity="1" transform="matrix(1,0,0,1,-1220,-650)"></path><path id="SvgjsPath1013" d="M1244 678L1244 674L1271 674L1271 678ZM1244 685L1244 681L1271 681L1271 685ZM1244 692L1244 688L1271 688L1271 692ZM1244 699L1244 695L1271 695L1271 699ZM1244 706L1244 702L1271 702L1271 706Z " fill="#cca266" fill-opacity="1" transform="matrix(1,0,0,1,-1220,-650)"></path></svg>