<svg id="SvgjsSvg1000" xmlns="http://www.w3.org/2000/svg" version="1.1" xmlns:xlink="http://www.w3.org/1999/xlink" xmlns:svgjs="http://svgjs.com/svgjs" width="71" height="64" viewBox="0 0 71 64"><title>Shape</title><desc>Created with Avocode.</desc><defs id="SvgjsDefs1001"></defs><path id="SvgjsPath1007" d="M617 1141.5C616.12 1141.5 615.34 1140.92 615.08 1140.08C614.83 1139.23 615.1600000000001 1138.32 615.9000000000001 1137.83L648.4000000000001 1116.33C649.07 1115.8899999999999 649.94 1115.8899999999999 650.6100000000001 1116.33L683.1100000000001 1137.83C683.8500000000001 1138.32 684.1800000000002 1139.23 683.9200000000001 1140.08C683.6700000000001 1140.9199999999998 682.8900000000001 1141.5 682.0100000000001 1141.5ZM623.65 1137.5L675.35 1137.5L649.5 1120.4Z " fill="#b31b2c" fill-opacity="1" transform="matrix(1,0,0,1,-614,-1116)"></path><path id="SvgjsPath1008" d="M622 1145L626 1145L626 1176L672 1176L672 1145L676 1145L676 1176L684 1176L684 1180L614 1180L614 1176L622 1176Z " fill="#b31b2c" fill-opacity="1" transform="matrix(1,0,0,1,-614,-1116)"></path><path id="SvgjsPath1009" d="M632 1172L632 1145L636 1145L636 1172ZM642 1172L642 1145L646 1145L646 1172ZM652 1172L652 1145L656 1145L656 1172ZM662 1172L662 1145L666 1145L666 1172Z " fill="#cca266" fill-opacity="1" transform="matrix(1,0,0,1,-614,-1116)"></path></svg>