<svg id="SvgjsSvg1014" xmlns="http://www.w3.org/2000/svg" version="1.1" xmlns:xlink="http://www.w3.org/1999/xlink" xmlns:svgjs="http://svgjs.com/svgjs" width="70" height="70" viewBox="0 0 70 70"><title>Combined Shape</title><desc>Created with Avocode.</desc><defs id="SvgjsDefs1015"></defs><path id="SvgjsPath1016" d="M1222.63 950C1218.42 950 1215.0100000000002 946.59 1215 942.38L1215 887.63C1215 883.42 1218.42 880 1222.63 880L1277.38 880C1281.5900000000001 880.01 1285 883.42 1285 887.63L1285 894L1281 894L1281 887.63C1281 885.63 1279.38 884.01 1277.38 884L1222.63 884C1220.63 884 1219 885.63 1219 887.63L1219 942.38C1219.01 944.38 1220.63 946 1222.63 946L1277.38 946C1279.38 945.99 1280.99 944.38 1281 942.38L1281 936L1285 936L1285 942.38C1284.99 946.59 1281.59 949.99 1277.38 950ZM1231 942C1226.58 942 1223 938.42 1223 934L1223 896C1223 891.58 1226.58 888 1231 888L1269 888C1273.42 888 1277 891.58 1277 896L1277 899L1273 899L1273 896C1273 893.79 1271.21 892 1269 892L1231 892C1228.79 892 1227 893.79 1227 896L1227 934C1227 936.21 1228.79 938 1231 938L1269 938C1271.21 938 1273 936.21 1273 934L1273 931L1277 931L1277 934C1277 938.42 1273.42 942 1269 942ZM1273 920L1273 910L1277 910L1277 920ZM1281 920L1281 910L1285 910L1285 920Z " fill="#b31b2c" fill-opacity="1" transform="matrix(1,0,0,1,-1215,-880)"></path><path id="SvgjsPath1017" d="M1237 915C1237 907.27 1243.27 901 1251 901C1258.73 901 1265 907.27 1265 915C1265 918.71 1263.53 922.27 1260.9 924.9C1258.27 927.53 1254.71 929 1251 929C1243.27 929 1237 922.73 1237 915ZM1241 915C1241 920.52 1245.48 925 1251 925C1256.52 925 1261 920.52 1261 915C1261 912.35 1259.95 909.8 1258.07 907.93C1256.2 906.05 1253.6499999999999 905 1251 905C1245.48 905 1241 909.48 1241 915Z " fill="#cca266" fill-opacity="1" transform="matrix(1,0,0,1,-1215,-880)"></path><path id="SvgjsPath1018" d="M1244 915.5C1244 911.91 1246.91 909 1250.5 909C1254.09 909 1257 911.91 1257 915.5C1256.99 919.09 1254.09 921.99 1250.5 922C1246.91 922 1244 919.09 1244 915.5ZM1248 915.5C1248 916.88 1249.12 918 1250.5 918C1251.88 918 1253 916.88 1253 915.5C1253 914.12 1251.88 913 1250.5 913C1249.12 913 1248 914.12 1248 915.5Z " fill="#cca266" fill-opacity="1" transform="matrix(1,0,0,1,-1215,-880)"></path><path id="SvgjsPath1019" d="M1269 908C1267.9 908 1267 907.1 1267 906L1267 898C1267 896.9 1267.9 896 1269 896L1283 896C1284.1 896 1285 896.9 1285 898L1285 906C1285 907.1 1284.1 908 1283 908ZM1271 904L1281 904L1281 900L1271 900Z " fill="#cca266" fill-opacity="1" transform="matrix(1,0,0,1,-1215,-880)"></path><path id="SvgjsPath1020" d="M1269 934C1267.9 934 1267 933.1 1267 932L1267 924C1267 922.9 1267.9 922 1269 922L1283 922C1284.1 922 1285 922.9 1285 924L1285 932C1285 933.1 1284.1 934 1283 934ZM1271 930L1281 930L1281 926L1271 926Z " fill="#cca266" fill-opacity="1" transform="matrix(1,0,0,1,-1215,-880)"></path></svg>