<svg id="SvgjsSvg1021" xmlns="http://www.w3.org/2000/svg" version="1.1" xmlns:xlink="http://www.w3.org/1999/xlink" xmlns:svgjs="http://svgjs.com/svgjs" width="64" height="70" viewBox="0 0 64 70"><title>Shape</title><desc>Created with Avocode.</desc><defs id="SvgjsDefs1022"></defs><path id="SvgjsPath1023" d="M1251 1180L1217 1180L1217 1110L1275 1110L1275 1144L1271 1144L1271 1114L1221 1114L1221 1176L1251 1176Z " fill="#b31b2c" fill-opacity="1" transform="matrix(1,0,0,1,-1217,-1110)"></path><path id="SvgjsPath1024" d="M1253 1178L1253 1160C1253 1158.9 1253.9 1158 1255 1158L1271 1158L1271 1149L1275 1149L1275 1160C1275 1160.53 1274.79 1161.04 1274.41 1161.41L1256.41 1179.41C1256.0400000000002 1179.7900000000002 1255.53 1180 1255 1180C1253.9 1180 1253 1179.1 1253 1178ZM1257 1162L1257 1173.17L1268.17 1162Z " fill="#b31b2c" fill-opacity="1" transform="matrix(1,0,0,1,-1217,-1110)"></path><path id="SvgjsPath1025" d="M1243.94 1158L1243.8300000000002 1158C1242.9800000000002 1157.95 1242.2500000000002 1157.37 1242.0200000000002 1156.55L1236.1200000000001 1135.8999999999999L1232.89 1149.4599999999998L1229 1148.5299999999997L1234 1127.5299999999997C1234.22 1126.6299999999997 1235.02 1125.9999999999998 1235.94 1125.9999999999998L1235.94 1125.9999999999998C1236.8300000000002 1125.9999999999998 1237.6100000000001 1126.5899999999997 1237.8600000000001 1127.4499999999998L1244.2800000000002 1149.8999999999999L1251.0900000000001 1133.2499999999998C1251.42 1132.4499999999998 1252.2200000000003 1131.9499999999998 1253.0900000000001 1132.0099999999998C1253.94 1132.0599999999997 1254.67 1132.6399999999999 1254.9 1133.4599999999998L1258.45 1145.9999999999998L1280.94 1145.9999999999998L1280.94 1149.9999999999998L1256.94 1149.9999999999998C1256.05 1149.9999999999998 1255.27 1149.4099999999999 1255.02 1148.5499999999997L1252.6 1140.0999999999997L1245.79 1156.7599999999998C1245.48 1157.5099999999998 1244.75 1157.9999999999998 1243.94 1157.9999999999998Z " fill="#cca266" fill-opacity="1" transform="matrix(1,0,0,1,-1217,-1110)"></path></svg>