<?xml version="1.0" encoding="UTF-8" standalone="no"?>
<svg width="30px" height="23px" viewBox="0 0 30 23" version="1.1" xmlns="http://www.w3.org/2000/svg" xmlns:xlink="http://www.w3.org/1999/xlink">
    <!-- Generator: Sketch 44.1 (41455) - http://www.bohemiancoding.com/sketch -->
    <title>Group</title>
    <desc>Created with Sketch.</desc>
    <defs></defs>
    <g id="Page-1" stroke="none" stroke-width="1" fill="none" fill-rule="evenodd">
        <g id="icon" transform="translate(-408.000000, -45.000000)" fill="#CCA266">
            <g id="Group" transform="translate(408.000000, 45.000000)">
                <path d="M4.07265306,0 L4.07265306,8.61 C5.38285714,7.04755102 6.9544898,6.25959184 8.77714286,6.25959184 C9.71510204,6.25959184 10.5569388,6.43836735 11.3093878,6.79530612 C12.0661224,7.14795918 12.6318367,7.60163265 13.0120408,8.15265306 C13.3950276,8.70456958 13.6616648,9.3286672 13.7957143,9.98693878 C13.9353061,10.6542857 14.005102,11.6938776 14.005102,13.1014286 L14.005102,22.3089796 L9.93306122,22.3089796 L9.93306122,14.0167347 C9.93306122,12.3722449 9.85897959,11.3289796 9.70408163,10.8869388 C9.55784011,10.4531391 9.26940361,10.0814292 8.8855102,9.83204082 C8.49367347,9.56877551 8.00510204,9.43653061 7.41612245,9.43653061 C6.74081633,9.43653061 6.13530612,9.60673469 5.60816327,9.94040816 C5.07306122,10.2777551 4.68489796,10.7822449 4.44061224,11.4569388 C4.19265306,12.1316327 4.06836735,13.1283673 4.07204082,14.4471429 L4.0677551,22.3083673 L0,22.3083673 L0,0 L4.07265306,0 Z" id="Path"></path>
                <path d="M20.0044898,0 L20.0044898,8.61 C21.3146939,7.04755102 22.8863265,6.25959184 24.7089796,6.25959184 C25.6432653,6.25959184 26.4887755,6.43836735 27.2455102,6.79530612 C27.9979592,7.14795918 28.5642857,7.60163265 28.9438776,8.15265306 C29.3267442,8.70463602 29.5933705,9.32870809 29.727551,9.98693878 C29.8671429,10.6542857 29.9369388,11.6938776 29.9369388,13.1014286 L29.9369388,22.3089796 L25.8685714,22.3089796 L25.8685714,14.0167347 C25.8685714,12.3722449 25.7908163,11.3289796 25.6359184,10.8869388 C25.4898056,10.45307 25.2013392,10.0813217 24.8173469,9.83204082 C24.4297959,9.56877551 23.9369388,9.43653061 23.3479592,9.43653061 C22.6726531,9.43653061 22.0677551,9.60673469 21.54,9.94040816 C21.0091837,10.2777551 20.6216327,10.7822449 20.372449,11.4569388 C20.1281633,12.1316327 20.005102,13.1283673 20.005102,14.4471429 L20.005102,22.3083673 L15.9361224,22.3083673 L15.9361224,0 L20.0044898,0 L20.0044898,0 Z" id="Path"></path>
            </g>
        </g>
    </g>
</svg>