<?xml version="1.0" encoding="UTF-8" standalone="no"?>
<svg width="25px" height="25px" viewBox="0 0 25 25" version="1.1" xmlns="http://www.w3.org/2000/svg" xmlns:xlink="http://www.w3.org/1999/xlink">
    <!-- Generator: Sketch 44.1 (41455) - http://www.bohemiancoding.com/sketch -->
    <title>Group 3</title>
    <desc>Created with Sketch.</desc>
    <defs></defs>
    <g id="Page-1" stroke="none" stroke-width="1" fill="none" fill-rule="evenodd">
        <g id="icon" transform="translate(-290.000000, -44.000000)" fill-rule="nonzero" fill="#CCA266">
            <g id="Group-3" transform="translate(290.000000, 44.000000)">
                <path d="M18.1527147,0 L7.37206959,0 C3.71101646,0 0.732506021,2.97865275 0.732506021,6.63970588 L0.732506021,17.420351 C0.732506021,21.0815465 3.71101646,24.0600569 7.37206959,24.0600569 L18.1527147,24.0600569 C21.8140525,24.0600569 24.7925629,21.0814042 24.7925629,17.420351 L24.7925629,6.63970588 C24.7927053,2.97865275 21.8140525,0 18.1527147,0 Z M22.6579804,17.420351 C22.6579804,19.9044592 20.6369652,21.9253321 18.1528571,21.9253321 L7.37206959,21.9253321 C4.88810374,21.9254744 2.86723088,19.9044592 2.86723088,17.420351 L2.86723088,6.63970588 C2.86723088,4.15574004 4.88810374,2.13472486 7.37206959,2.13472486 L18.1527147,2.13472486 C20.6368229,2.13472486 22.6578381,4.15574004 22.6578381,6.63970588 L22.6578381,17.420351 L22.6579804,17.420351 Z" id="Shape"></path>
                <path d="M12.7625345,5.83064516 C9.3439861,5.83064516 6.56286655,8.61176471 6.56286655,12.0303131 C6.56286655,15.4487192 9.3439861,18.2296964 12.7625345,18.2296964 C16.1810829,18.2296964 18.9622024,15.4487192 18.9622024,12.0303131 C18.9622024,8.61176471 16.1810829,5.83064516 12.7625345,5.83064516 Z M12.7625345,16.0948292 C10.5212157,16.0948292 8.69759141,14.2714896 8.69759141,12.0301708 C8.69759141,9.78870968 10.5210734,7.9652277 12.7625345,7.9652277 C15.0039956,7.9652277 16.8274776,9.78870968 16.8274776,12.0301708 C16.8274776,14.2714896 15.0038533,16.0948292 12.7625345,16.0948292 Z" id="Shape"></path>
                <path d="M19.2222119,4.0205408 C18.8109216,4.0205408 18.4068893,4.18704934 18.1164244,4.47879507 C17.8245364,4.76911765 17.656747,5.17329222 17.656747,5.58600569 C17.656747,5.99743833 17.8246787,6.40147059 18.1164244,6.69321632 C18.406747,6.9835389 18.8109216,7.15147059 19.2222119,7.15147059 C19.6349254,7.15147059 20.0376768,6.9835389 20.3294225,6.69321632 C20.6211683,6.40147059 20.7876768,5.99729602 20.7876768,5.58600569 C20.7876768,5.17329222 20.6211683,4.76911765 20.3294225,4.47879507 C20.0390999,4.18704934 19.6349254,4.0205408 19.2222119,4.0205408 Z" id="Shape"></path>
            </g>
        </g>
    </g>
</svg>