<?xml version="1.0" encoding="UTF-8" standalone="no"?>
<svg width="25px" height="25px" viewBox="0 0 25 25" version="1.1" xmlns="http://www.w3.org/2000/svg" xmlns:xlink="http://www.w3.org/1999/xlink">
    <!-- Generator: Sketch 44.1 (41455) - http://www.bohemiancoding.com/sketch -->
    <title>Group 2</title>
    <desc>Created with Sketch.</desc>
    <defs></defs>
    <g id="Page-1" stroke="none" stroke-width="1" fill="none" fill-rule="evenodd">
        <g id="icon" transform="translate(-230.000000, -44.000000)" fill-rule="nonzero" fill="#CCA266">
            <g id="Group-2" transform="translate(230.000000, 44.000000)">
                <path d="M3.40049628,18.1378412 C2.45576923,18.1378412 1.6530397,18.4685484 0.99162531,19.1296526 C0.330645161,19.7906948 0,20.5936104 0,21.5382754 C0,22.4831886 0.330334988,23.2859181 0.99162531,23.9469603 C1.6530397,24.6080645 2.45601737,24.9387717 3.40049628,24.9387717 C4.34509926,24.9387717 5.14789082,24.6080645 5.80918114,23.9469603 C6.47022333,23.2859181 6.80086849,22.4831886 6.80086849,21.5382754 C6.80086849,20.5935484 6.47022333,19.7906948 5.80918114,19.1296526 C5.14807692,18.4685484 4.34528536,18.1378412 3.40049628,18.1378412 Z" id="Shape"></path>
                <path d="M11.2289082,13.7098015 C9.89454094,12.3637717 8.36550868,11.2923077 6.64156328,10.4954094 C4.91761787,9.69826303 3.11091811,9.22301489 1.22183623,9.06954094 L1.13343672,9.06954094 C0.826426799,9.06954094 0.57251861,9.16997519 0.371960298,9.37065757 C0.123883375,9.58294045 0,9.86060794 0,10.2029777 L0,12.5939826 C0,12.8890819 0.0973325062,13.1429901 0.292059553,13.3557072 C0.486848635,13.5684243 0.731823821,13.6864764 1.02704715,13.7098015 C3.7308933,13.969665 6.04224566,15.0591811 7.96085608,16.9776675 C9.87959057,18.8961538 10.9689206,21.2076303 11.22866,23.9113524 C11.2523573,24.2068859 11.3703474,24.451799 11.5830025,24.6462779 C11.7955955,24.8415633 12.0493176,24.9390819 12.3444789,24.9390819 L14.7356079,24.9390819 C15.0778536,24.9390819 15.355273,24.8153226 15.567804,24.5671216 C15.7924318,24.3306452 15.8926179,24.0472084 15.8694789,23.7166873 C15.7157568,21.8279156 15.2404467,20.0210918 14.4434864,18.2972705 C13.6465881,16.573201 12.574938,15.0442928 11.2289082,13.7098015 Z" id="Shape"></path>
                <path d="M22.8119107,14.8697891 C21.5485732,12.0419355 19.8128412,9.52996278 17.6049628,7.33368486 C15.4086228,5.12562035 12.8967742,3.39001241 10.0686725,2.12655087 C7.24088089,0.863337469 4.28014888,0.15471464 1.18647643,0.00124069479 L1.13343672,0.00124069479 C0.826426799,0.00124069479 0.566687345,0.107506203 0.354094293,0.320099256 C0.118052109,0.532444169 0,0.804218362 0,1.13486352 L0,3.66743176 C0,3.96271712 0.103411911,4.21935484 0.309925558,4.43784119 C0.516501241,4.65638958 0.767307692,4.77133995 1.06253102,4.78337469 C3.60124069,4.93709677 6.01284119,5.53945409 8.29764268,6.59026055 C10.5823821,7.64112903 12.566005,9.00787841 14.2486352,10.6901365 C15.9308933,12.3727047 17.2975806,14.3564516 18.3484491,16.6411911 C19.3993176,18.9263027 19.9959057,21.337531 20.137469,23.8761166 C20.1495658,24.1716501 20.2643921,24.4225806 20.4826303,24.6291563 C20.7012407,24.83567 20.9641439,24.939268 21.2710918,24.939268 L23.803536,24.939268 C24.1342432,24.939268 24.405335,24.8212779 24.6183002,24.5847395 C24.8545906,24.3486352 24.9605459,24.071464 24.9374069,23.7525434 C24.7841191,20.6586228 24.0752481,17.6979529 22.8119107,14.8697891 Z" id="Shape"></path>
            </g>
        </g>
    </g>
</svg>