<?xml version="1.0" encoding="UTF-8" standalone="no"?>
<svg width="30px" height="25px" viewBox="0 0 30 25" version="1.1" xmlns="http://www.w3.org/2000/svg" xmlns:xlink="http://www.w3.org/1999/xlink">
    <!-- Generator: Sketch 44.1 (41455) - http://www.bohemiancoding.com/sketch -->
    <title>Shape</title>
    <desc>Created with Sketch.</desc>
    <defs></defs>
    <g id="Page-1" stroke="none" stroke-width="1" fill="none" fill-rule="evenodd">
        <g id="icon" transform="translate(-100.000000, -44.000000)" fill-rule="nonzero" fill="#CCA266">
            <path d="M129.941579,46.8804094 C128.839825,47.3689474 127.656082,47.6991813 126.413509,47.8476608 C127.681696,47.0874269 128.655731,45.8836257 129.114444,44.4491228 C127.927368,45.1531579 126.612865,45.6643275 125.213567,45.9397661 C124.093099,44.7459064 122.49655,44 120.729708,44 C117.337251,44 114.586901,46.7502339 114.586901,50.1426316 C114.586901,50.6240936 114.641228,51.092924 114.745965,51.5425731 C109.640702,51.2863158 105.114327,48.8408187 102.08462,45.124269 C101.555848,46.0315205 101.252865,47.0867251 101.252865,48.2125146 C101.252865,50.3437427 102.33731,52.2239766 103.985614,53.3255556 C102.978655,53.2936257 102.031462,53.0173099 101.203333,52.557193 C101.202749,52.582807 101.202749,52.608538 101.202749,52.6344444 C101.202749,55.6107018 103.320234,58.0933918 106.130292,58.6578363 C105.614912,58.7981287 105.072164,58.8734503 104.51193,58.8734503 C104.116082,58.8734503 103.731287,58.8348538 103.35614,58.7630409 C104.137895,61.2033918 106.406433,62.9796491 109.094503,63.0290643 C106.992164,64.6767836 104.34345,65.6587135 101.46538,65.6587135 C100.969532,65.6587135 100.480585,65.6297076 100,65.5726901 C102.71848,67.3157895 105.947427,68.3327485 109.416433,68.3327485 C120.715322,68.3327485 126.894094,58.9723977 126.894094,50.8548538 C126.894094,50.588538 126.888012,50.3236257 126.876257,50.060117 C128.076608,49.1940936 129.11807,48.1122222 129.941579,46.8804094 Z" id="Shape"></path>
        </g>
    </g>
</svg>