<?xml version="1.0" encoding="UTF-8" standalone="no"?>
<svg width="30px" height="17px" viewBox="0 0 30 17" version="1.1" xmlns="http://www.w3.org/2000/svg" xmlns:xlink="http://www.w3.org/1999/xlink">
    <!-- Generator: Sketch 44.1 (41455) - http://www.bohemiancoding.com/sketch -->
    <title>XMLID_807_</title>
    <desc>Created with Sketch.</desc>
    <defs></defs>
    <g id="Page-1" stroke="none" stroke-width="1" fill="none" fill-rule="evenodd">
        <g id="icon" transform="translate(-161.000000, -48.000000)" fill-rule="nonzero" fill="#CCA266">
            <path d="M186.765094,58.7722623 C187.758143,59.7418033 188.806274,60.654 189.69693,61.7213115 C190.090373,62.1956066 190.462864,62.6850492 190.747815,63.2354754 C191.151586,64.0179344 190.785881,64.8789836 190.084274,64.9257049 L185.722963,64.9237377 C184.59811,65.017082 183.700766,64.5642295 182.946241,63.7951475 C182.342405,63.1800984 181.783225,62.5255082 181.202602,61.8897049 C180.964569,61.6298361 180.715422,61.3853115 180.417782,61.1920328 C179.822405,60.8055738 179.305618,60.9239016 178.965389,61.5448525 C178.618864,62.1764262 178.540274,62.8757705 178.506241,63.5796393 C178.45952,64.606623 178.149094,64.876623 177.117487,64.9236393 C174.912832,65.0276066 172.820504,64.6940656 170.876799,63.5819016 C169.163159,62.6014426 167.834307,61.2173115 166.677684,59.6503279 C164.425717,56.599082 162.701159,53.2462623 161.151192,49.7995082 C160.802307,49.0229508 161.057455,48.6060984 161.914274,48.5913443 C163.337061,48.5637049 164.759651,48.5656721 166.18411,48.589377 C166.762373,48.5978361 167.145192,48.9295082 167.368471,49.4758033 C168.138241,51.3685574 169.080143,53.1693443 170.262438,54.8385246 C170.577291,55.282918 170.89834,55.7273115 171.35552,56.0400984 C171.861291,56.3864262 172.246373,56.2716393 172.484307,55.7082295 C172.635291,55.3509836 172.701389,54.9661967 172.735422,54.5835738 C172.848143,53.2672131 172.862996,51.9531148 172.665291,50.641377 C172.543914,49.8227213 172.082799,49.2927541 171.265914,49.1378361 C170.849061,49.0588525 170.911127,48.9037377 171.112963,48.6658033 C171.46352,48.2554426 171.793225,48 172.450471,48 L177.379422,48 C178.155389,48.1531475 178.327717,48.5017377 178.433946,49.2825246 L178.438176,54.7575738 C178.429717,55.0598361 178.589159,55.9567869 179.133586,56.1568525 C179.569323,56.2992787 179.856536,55.9506885 180.117979,55.6743934 C181.29811,54.4218689 182.140373,52.9416393 182.892832,51.4088852 C183.226766,50.734918 183.513881,50.0349836 183.792143,49.3356393 C183.998307,48.8166885 184.321815,48.5613443 184.906373,48.5726557 L189.650209,48.5768852 C189.790864,48.5768852 189.933192,48.5789508 190.069422,48.6022623 C190.868799,48.7384918 191.087848,49.0823607 190.840963,49.8629508 C190.451946,51.0876393 189.695061,52.1082295 188.954996,53.133541 C188.163881,54.2281967 187.317782,55.285377 186.533258,56.3865246 C185.812471,57.3920656 185.869717,57.898918 186.765094,58.7722623 L186.765094,58.7722623 Z" id="XMLID_807_"></path>
        </g>
    </g>
</svg>