<?xml version="1.0" encoding="UTF-8" standalone="no"?>
<svg width="25px" height="30px" viewBox="0 0 25 30" version="1.1" xmlns="http://www.w3.org/2000/svg" xmlns:xlink="http://www.w3.org/1999/xlink">
    <!-- Generator: Sketch 44.1 (41455) - http://www.bohemiancoding.com/sketch -->
    <title>YouTube</title>
    <desc>Created with Sketch.</desc>
    <defs></defs>
    <g id="Page-1" stroke="none" stroke-width="1" fill="none" fill-rule="evenodd">
        <g id="icon" transform="translate(-352.000000, -41.000000)" fill-rule="nonzero" fill="#CCA266">
            <path d="M373.146333,62.944 L371.5,62.944 L371.507667,61.9876667 C371.507667,61.5626667 371.856667,61.215 372.283,61.215 L372.388,61.215 C372.815333,61.215 373.165333,61.5626667 373.165333,61.9876667 L373.146333,62.944 Z M366.971,60.8946667 C366.553333,60.8946667 366.211667,61.1753333 366.211667,61.519 L366.211667,66.17 C366.211667,66.513 366.553333,66.793 366.971,66.793 C367.390333,66.793 367.732333,66.513 367.732333,66.17 L367.732333,61.519 C367.732333,61.175 367.390333,60.8946667 366.971,60.8946667 Z M377,58.293 L377,67.141 C377,69.2633333 375.159667,71 372.91,71 L356.090333,71 C353.84,71 352,69.2633333 352,67.141 L352,58.293 C352,56.1706667 353.84,54.4336667 356.090333,54.4336667 L372.91,54.4336667 C375.159667,54.4336667 377,56.1706667 377,58.293 Z M357.212333,68.1016667 L357.211,58.7813333 L359.296,58.782 L359.296,57.401 L353.738,57.3926667 L353.738,58.7503333 L355.473,58.7553333 L355.473,68.1016667 L357.212333,68.1016667 Z M363.462333,60.1696667 L361.724,60.1696667 L361.724,65.1466667 C361.724,65.8666667 361.767667,66.2266667 361.721333,66.3536667 C361.58,66.7396667 360.944667,67.1496667 360.697,66.3953333 C360.655,66.2633333 360.692,65.865 360.691333,65.181 L360.684333,60.1696667 L358.955667,60.1696667 L358.961,65.1023333 C358.962333,65.8583333 358.944,66.422 358.967,66.6786667 C359.009333,67.131 358.994333,67.6583333 359.414,67.9596667 C360.196,68.523 361.695,67.8756667 362.07,67.0703333 L362.066667,68.098 L363.462667,68.0996667 L363.462333,60.1696667 L363.462333,60.1696667 Z M369.023333,65.869 L369.019667,61.7266667 C369.018333,60.148 367.837333,59.2026667 366.234333,60.48 L366.241333,57.4003333 L364.505,57.403 L364.496667,68.033 L365.924667,68.0123333 L366.054667,67.3503333 C367.879,69.024 369.026,67.877 369.023333,65.869 Z M374.463667,65.32 L373.160333,65.327 C373.159667,65.3786667 373.157667,65.4383333 373.157,65.5033333 L373.157,66.2306667 C373.157,66.62 372.835333,66.937 372.444667,66.937 L372.189333,66.937 C371.798,66.937 371.476333,66.62 371.476333,66.2306667 L371.476333,66.15 L371.476333,65.35 L371.476333,64.3176667 L374.461,64.3176667 L374.461,63.1943333 C374.461,62.3733333 374.44,61.5526667 374.372,61.0833333 C374.158333,59.5986667 372.074333,59.363 371.021667,60.123 C370.691333,60.3603333 370.439,60.678 370.292333,61.1046667 C370.144333,61.5316667 370.070667,62.115 370.070667,62.856 L370.070667,65.326 C370.071333,69.432 375.058667,68.8516667 374.463667,65.32 Z M367.777667,51.9106667 C367.867333,52.1286667 368.006667,52.3053333 368.195667,52.4386667 C368.382333,52.57 368.621,52.636 368.907,52.636 C369.157667,52.636 369.379667,52.5683333 369.573,52.4286667 C369.765667,52.2896667 369.928,52.082 370.060667,51.805 L370.027667,52.487 L371.965333,52.487 L371.965333,44.2466667 L370.44,44.2466667 L370.44,50.66 C370.44,51.0073333 370.154,51.2916667 369.804333,51.2916667 C369.456667,51.2916667 369.169667,51.0073333 369.169667,50.66 L369.169667,44.2466667 L367.577667,44.2466667 L367.577667,49.8046667 C367.577667,50.5126667 367.590667,50.9846667 367.611667,51.224 C367.633333,51.4616667 367.688,51.6896667 367.777667,51.9106667 Z M361.905667,47.2566667 C361.905667,46.4656667 361.971667,45.848 362.102667,45.4026667 C362.234667,44.959 362.471667,44.6023333 362.815,44.3333333 C363.157333,44.063 363.595667,43.9276667 364.128667,43.9276667 C364.577,43.9276667 364.961,44.0156667 365.281667,44.188 C365.604,44.3613333 365.852667,44.5863333 366.025,44.864 C366.200667,45.1426667 366.32,45.429 366.383667,45.722 C366.448667,46.019 366.480667,46.467 366.480667,47.0713333 L366.480667,49.1553333 C366.480667,49.9196667 366.45,50.482 366.390333,50.839 C366.331333,51.197 366.204667,51.529 366.008333,51.8403333 C365.815,52.1483333 365.565333,52.3786667 365.262667,52.5256667 C364.956667,52.674 364.606667,52.7466667 364.211333,52.7466667 C363.769667,52.7466667 363.397667,52.6856667 363.091,52.5583333 C362.783333,52.4316667 362.545667,52.2406667 362.376333,51.987 C362.205333,51.733 362.085,51.4236667 362.012333,51.063 C361.939333,50.7026667 361.904667,50.1606667 361.904667,49.4383333 L361.905667,47.2566667 L361.905667,47.2566667 Z M363.423333,50.53 C363.423333,50.9966667 363.770667,51.3776667 364.193667,51.3776667 C364.617,51.3776667 364.963,50.9966667 364.963,50.53 L364.963,46.1433333 C364.963,45.6773333 364.617,45.2963333 364.193667,45.2963333 C363.770667,45.2963333 363.423333,45.6773333 363.423333,46.1433333 L363.423333,50.53 Z M358.060667,52.745 L359.888667,52.745 L359.890667,46.425 L362.050667,41.011 L360.051333,41.011 L358.903,45.0323333 L357.738333,41 L355.759667,41 L358.057667,46.428 L358.060667,52.745 Z" id="YouTube"></path>
        </g>
    </g>
</svg>