<svg id="SvgjsSvg1017" xmlns="http://www.w3.org/2000/svg" version="1.1" xmlns:xlink="http://www.w3.org/1999/xlink" xmlns:svgjs="http://svgjs.com/svgjs" width="61" height="70" viewBox="0 0 61 70"><title>Shape</title><desc>Created with Avocode.</desc><defs id="SvgjsDefs1018"></defs><path id="SvgjsPath1019" d="M1242 936L1204 936L1204 866L1240 866C1240.56 866 1245.81 866 1248.41 868.59C1249.88 870.26 1250.97 872.23 1251.6000000000001 874.37C1253.2800000000002 874.88 1256.17 875.98 1257.6000000000001 877.77C1259.3700000000001 880.03 1259.92 884.86 1260.0200000000002 885.77L1260.0200000000002 912L1256.0200000000002 912L1256.0200000000002 886.1C1255.8200000000002 884.22 1255.2200000000003 881.22 1254.4400000000003 880.23C1253.6600000000003 879.24 1251.0900000000004 878.3100000000001 1249.5500000000002 877.94L1248.3700000000001 877.6600000000001L1248.0800000000002 876.4800000000001C1247.63 874.6300000000001 1246.7900000000002 872.9000000000001 1245.6100000000001 871.4100000000001C1244.4900000000002 870.2900000000001 1241.38 869.9800000000001 1240.0600000000002 870.0000000000001L1208.0000000000002 870.0000000000001L1208.0000000000002 932.0000000000001L1242.0000000000002 932.0000000000001Z " fill="#cca266" fill-opacity="1" transform="matrix(1,0,0,1,-1204,-866)"></path><path id="SvgjsPath1020" d="M1264.77 921.5C1264.77 918.46 1262.31 916 1259.27 916L1250.56 916C1250.06 916.01 1249.59 916.24 1249.27 916.62C1248.95 917 1248.82 917.51 1248.9 918L1248.9 923L1248 923C1246.9 923 1246 923.9 1246 925C1246 926.1 1246.9 927 1248 927L1248.9 927L1248.9 928L1248 928C1246.9 928 1246 928.9 1246 930C1246 931.1 1246.9 932 1248 932L1248.9 932L1248.9 934C1248.9 935.1 1249.8000000000002 936 1250.9 936C1252 936 1252.9 935.1 1252.9 934L1252.9 932L1259.27 932C1260.37 932 1261.27 931.1 1261.27 930C1261.27 928.9 1260.37 928 1259.27 928L1252.9 928L1252.9 927L1259.27 927C1262.31 927 1264.77 924.54 1264.77 921.5ZM1259.56 920C1260.3899999999999 920 1261.06 920.67 1261.06 921.5C1261.06 922.33 1260.3899999999999 923 1259.56 923L1252.8999999999999 923L1252.8999999999999 920Z " fill="#b31b2c" fill-opacity="1" transform="matrix(1,0,0,1,-1204,-866)"></path><path id="SvgjsPath1021" d="M1212 886L1212 882L1230 882L1230 886Z " fill="#cca266" fill-opacity="1" transform="matrix(1,0,0,1,-1204,-866)"></path><path id="SvgjsPath1022" d="M1212 894L1212 890L1248 890L1248 894Z " fill="#cca266" fill-opacity="1" transform="matrix(1,0,0,1,-1204,-866)"></path><path id="SvgjsPath1023" d="M1212 902L1212 898L1248 898L1248 902Z " fill="#cca266" fill-opacity="1" transform="matrix(1,0,0,1,-1204,-866)"></path><path id="SvgjsPath1024" d="M1212 910L1212 906L1248 906L1248 910Z " fill="#cca266" fill-opacity="1" transform="matrix(1,0,0,1,-1204,-866)"></path></svg>