<svg id="SvgjsSvg1000" xmlns="http://www.w3.org/2000/svg" version="1.1" xmlns:xlink="http://www.w3.org/1999/xlink" xmlns:svgjs="http://svgjs.com/svgjs" width="70" height="71" viewBox="0 0 70 71"><title>Shape</title><desc>Created with Avocode.</desc><defs id="SvgjsDefs1001"></defs><path id="SvgjsPath1007" d="M1195 682L1195 707L1199 707L1199 678Z " fill="#cca266" fill-opacity="1" transform="matrix(1,0,0,1,-1194,-636)"></path><path id="SvgjsPath1008" d="M1196.99 674.01C1196.19 674 1195.46 673.52 1195.15 672.77C1194.8400000000001 672.03 1195.01 671.17 1195.5800000000002 670.6L1216.9900000000002 649.1800000000001L1232.9900000000002 665.1800000000001L1260.5800000000002 637.59C1261.3600000000001 636.8000000000001 1262.63 636.8000000000001 1263.41 637.59C1264.19 638.37 1264.19 639.63 1263.41 640.4200000000001L1232.99 670.84L1216.99 654.84L1198.4 673.4300000000001C1198.0300000000002 673.8000000000001 1197.52 674.0100000000001 1196.99 674.0100000000001Z " fill="#b31b2c" fill-opacity="1" transform="matrix(1,0,0,1,-1194,-636)"></path><path id="SvgjsPath1009" d="M1203 674L1203 707L1207 707L1207 670Z " fill="#cca266" fill-opacity="1" transform="matrix(1,0,0,1,-1194,-636)"></path><path id="SvgjsPath1010" d="M1211 666L1211 707L1215 707L1215 662Z " fill="#cca266" fill-opacity="1" transform="matrix(1,0,0,1,-1194,-636)"></path><path id="SvgjsPath1011" d="M1223 666L1223 707L1219 707L1219 662Z " fill="#cca266" fill-opacity="1" transform="matrix(1,0,0,1,-1194,-636)"></path><path id="SvgjsPath1012" d="M1231 674L1231 707L1227 707L1227 670Z " fill="#cca266" fill-opacity="1" transform="matrix(1,0,0,1,-1194,-636)"></path><path id="SvgjsPath1013" d="M1235 674L1235 707L1239 707L1239 670Z " fill="#cca266" fill-opacity="1" transform="matrix(1,0,0,1,-1194,-636)"></path><path id="SvgjsPath1014" d="M1243 666L1243 707L1247 707L1247 662Z " fill="#cca266" fill-opacity="1" transform="matrix(1,0,0,1,-1194,-636)"></path><path id="SvgjsPath1015" d="M1251 658L1251 707L1255 707L1255 654Z " fill="#cca266" fill-opacity="1" transform="matrix(1,0,0,1,-1194,-636)"></path><path id="SvgjsPath1016" d="M1259 650L1259 707L1263 707L1263 646Z " fill="#cca266" fill-opacity="1" transform="matrix(1,0,0,1,-1194,-636)"></path></svg>