<svg id="SvgjsSvg1039" xmlns="http://www.w3.org/2000/svg" version="1.1" xmlns:xlink="http://www.w3.org/1999/xlink" xmlns:svgjs="http://svgjs.com/svgjs" width="13" height="11" viewBox="0 0 13 11"><title>Shape 64</title><desc>Created with Avocode.</desc><defs id="SvgjsDefs1040"></defs><path id="SvgjsPath1041" d="M980.556 1339.33L984.611 1335.34C984.982 1334.98 984.982 1334.3799999999999 984.611 1334.01L980.556 1330.03C980.182 1329.66 979.576 1329.66 979.201 1330.03C978.83 1330.3999999999999 978.83 1330.99 979.201 1331.36L981.5740000000001 1333.6899999999998L973.964 1333.6899999999998C973.4150000000001 1333.6899999999998 972.97 1334.1299999999999 972.97 1334.6699999999998C972.97 1335.2199999999998 973.4150000000001 1335.6599999999999 973.964 1335.6599999999999L981.5870000000001 1335.6599999999999L979.2010000000001 1337.9999999999998C978.8300000000002 1338.3699999999997 978.8300000000002 1338.9599999999998 979.2010000000001 1339.3299999999997C979.5760000000001 1339.6899999999996 980.1820000000001 1339.6899999999996 980.5560000000002 1339.3299999999997Z " fill="#a6111d" fill-opacity="1" transform="matrix(1,0,0,1,-972,-1329)"></path></svg>