<svg id="SvgjsSvg1017" xmlns="http://www.w3.org/2000/svg" version="1.1" xmlns:xlink="http://www.w3.org/1999/xlink" xmlns:svgjs="http://svgjs.com/svgjs" width="28" height="28" viewBox="0 0 28 28"><title>phone</title><desc>Created with Avocode.</desc><defs id="SvgjsDefs1018"><clipPath id="SvgjsClipPath1022"><path id="SvgjsPath1021" d="M54 138C61.732 138 68 144.268 68 152C68 159.732 61.732 166 54 166C46.268 166 40 159.732 40 152C40 144.268 46.268 138 54 138Z " fill="#ffffff"></path></clipPath></defs><path id="SvgjsPath1019" d="M46.2528 155.316L48.3604 153.213C48.7514 152.82399999999998 49.379 152.82399999999998 49.768 153.213L50.9525 154.39499999999998C51.7708 153.84599999999998 52.9286 152.862 53.9833 151.80899999999997C55.0133 150.78099999999998 56.0243 149.60099999999997 56.5755 148.78299999999996L55.3891 147.60099999999997C55 147.21399999999997 55 146.58599999999998 55.3891 146.19699999999997L57.4968 144.09399999999997C57.8858 143.70699999999997 58.5134 143.70699999999997 58.9006 144.09399999999997L61.0102 146.19699999999997C61.9124 147.09699999999998 61.5137 148.10399999999998 61.5137 148.10399999999998C60.5543 150.206 59.221000000000004 152.19299999999998 56.793 154.61399999999998C54.3573 157.04799999999997 52.3773 158.36699999999996 50.271699999999996 159.325C50.271699999999996 159.325 49.2951 159.754 48.3604 158.82299999999998L46.2528 156.718C45.8655 156.331 45.8655 155.70499999999998 46.2528 155.316Z " fill="#b31b2c" fill-opacity="1" transform="matrix(1,0,0,1,-40,-138)"></path><path id="SvgjsPath1020" d="M54 138C61.732 138 68 144.268 68 152C68 159.732 61.732 166 54 166C46.268 166 40 159.732 40 152C40 144.268 46.268 138 54 138Z " fill-opacity="0" fill="#ffffff" stroke-dasharray="0" stroke-linejoin="miter" stroke-linecap="butt" stroke-opacity="1" stroke="#b31b2c" stroke-miterlimit="50" stroke-width="4" clip-path="url(&quot;#SvgjsClipPath1022&quot;)" transform="matrix(1,0,0,1,-40,-138)"></path></svg>