<svg id="SvgjsSvg1027" xmlns="http://www.w3.org/2000/svg" version="1.1" xmlns:xlink="http://www.w3.org/1999/xlink" xmlns:svgjs="http://svgjs.com/svgjs" width="24" height="18" viewBox="0 0 24 18"><title>Shape 66</title><desc>Created with Avocode.</desc><defs id="SvgjsDefs1028"></defs><path id="SvgjsPath1029" d="M880 3581L860 3581C858.895 3581 858 3581.9 858 3583L858 3597C858 3598.1 858.895 3599 860 3599L880 3599C881.105 3599 882 3598.1 882 3597L882 3583C882 3581.9 881.105 3581 880 3581ZM878.199 3583L870 3589.71L861.801 3583ZM860 3597L860 3584.11L869.367 3591.77C869.5509999999999 3591.92 869.775 3592 870 3592C870.225 3592 870.449 3591.92 870.633 3591.77L880 3584.11L880 3597Z " fill="#ffffff" fill-opacity="1" transform="matrix(1,0,0,1,-858,-3581)"></path></svg>