<svg id="SvgjsSvg1020" xmlns="http://www.w3.org/2000/svg" version="1.1" xmlns:xlink="http://www.w3.org/1999/xlink" xmlns:svgjs="http://svgjs.com/svgjs" width="34" height="52" viewBox="0 0 34 52"><title>Shape 86</title><desc>Created with Avocode.</desc><defs id="SvgjsDefs1021"></defs><path id="SvgjsPath1022" d="M169 3597L169 3570C169 3566.69 166.309 3564 163 3564L141 3564C137.691 3564 135 3566.69 135 3570L135 3610C135 3613.31 137.691 3616 141 3616L163 3616C166.309 3616 169 3613.31 169 3610L169 3603C169 3601.9 168.104 3601 167 3601L158.65757 3601C157.83240999999998 3598.67122 155.60818 3597 153 3597C150.39182 3597 148.16759 3598.67122 147.34243 3601L143 3601L143 3605L147.34243 3605C148.16759000000002 3607.32878 150.39182 3609 153 3609C155.60818 3609 157.83241 3607.32878 158.65757 3605L165 3605L165 3610C165 3611.1 164.103 3612 163 3612L141 3612C139.897 3612 139 3611.1 139 3610L139 3570C139 3568.9 139.897 3568 141 3568L163 3568C164.103 3568 165 3568.9 165 3570L165 3597ZM155 3603C155 3604.1 154.103 3605 153 3605C151.897 3605 151 3604.1 151 3603C151 3601.9 151.897 3601 153 3601C154.103 3601 155 3601.9 155 3603Z " fill="#cca266" fill-opacity="1" transform="matrix(1,0,0,1,-135,-3564)"></path></svg>