<svg xmlns="http://www.w3.org/2000/svg" xmlns:xlink="http://www.w3.org/1999/xlink" viewBox="0 0 75.9 76"><defs><clipPath id="a" transform="translate(-1234.1 -1388)"><path d="M1246,1443h6.66a1.5,1.5,0,0,1,0,3H1246Zm6.37,7a5.5,5.5,0,0,0,0-11h-8.71a1.72,1.72,0,0,0-1.66,2v5h-.9a2,2,0,1,0,0,4h.9v1h-.9a2,2,0,1,0,0,4h.9v2a2,2,0,0,0,4,0v-2h6.37a2,2,0,0,0,0-4H1246v-1Z" fill="none" clip-rule="evenodd"/></clipPath><clipPath id="b" transform="translate(-1234.1 -1388)"><rect width="1440" height="2841" fill="none"/></clipPath><clipPath id="c" transform="translate(-1234.1 -1388)"><path d="M1267.64,1458a25.36,25.36,0,0,0,25.19-22.42l1.72,1.69a1.64,1.64,0,0,0,1.82-2.72l-4.09-3.27a1.64,1.64,0,0,0-.91-.28h-.29a1.15,1.15,0,0,0-.56.22l-4.16,3.32a1.64,1.64,0,1,0,1.82,2.72l1.32-1.42a22.09,22.09,0,0,1-21.85,18.88,1.64,1.64,0,1,0,0,3.27Z" fill="none" clip-rule="evenodd"/></clipPath><clipPath id="d" transform="translate(-1234.1 -1388)"><rect x="1095.82" y="264.27" width="1178.18" height="2324.45" fill="none"/></clipPath></defs><title>Icon_transfer</title><g clip-path="url(#a)"><g clip-path="url(#b)"><rect y="46" width="28.77" height="30" fill="#cca266"/></g></g><g clip-path="url(#c)"><g clip-path="url(#d)"><rect x="27.81" y="38.91" width="39.27" height="35.18" fill="#b31b2c"/></g></g><rect x="53.9" y="6" width="7" height="4" fill="#cca266"/><rect x="62.9" y="6" width="7" height="4" fill="#cca266"/><rect x="53.9" y="12" width="7" height="4" fill="#cca266"/><rect x="62.9" y="12" width="7" height="4" fill="#cca266"/><rect x="53.9" y="18" width="7" height="4" fill="#cca266"/><rect x="62.9" y="18" width="7" height="4" fill="#cca266"/><rect x="53.9" y="24" width="3" height="4" fill="#cca266"/><rect x="66.9" y="24" width="3" height="4" fill="#cca266"/><path d="M1306,1388h-20a4,4,0,0,0-4,4v30h-4v-19h3v-4h-5a2,2,0,0,0-2,2v23a2,2,0,0,0,2,2h30a4,4,0,0,0,4-4v-30A4,4,0,0,0,1306,1388Zm0,34h-7v-10h-6v10h-7v-30h20Z" transform="translate(-1234.1 -1388)" fill="#b31b2c"/><circle cx="14.9" cy="6" r="6" fill="#cca266"/><path d="M1255.54,1400.17a9,9,0,0,1-13.08,0A11,11,0,0,0,1238,1409v5h22v-5A11,11,0,0,0,1255.54,1400.17Z" transform="translate(-1234.1 -1388)" fill="#cca266"/><path d="M1254.43,1421.58l-4-4.06a2.06,2.06,0,0,0-2.84,0l-4,4.06a2,2,0,1,0,2.84,2.81l.59-.6v8.2a2,2,0,0,0,4,0v-8.2l.59.6a2,2,0,1,0,2.84-2.81Z" transform="translate(-1234.1 -1388)" fill="#b31b2c"/></svg>