<svg id="SvgjsSvg1000" xmlns="http://www.w3.org/2000/svg" version="1.1" xmlns:xlink="http://www.w3.org/1999/xlink" xmlns:svgjs="http://svgjs.com/svgjs" width="166" height="72" viewBox="0 0 166 72"><title>Fill 2</title><desc>Created with Avocode.</desc><defs id="SvgjsDefs1001"></defs><path id="SvgjsPath1007" d="M664.99 1424.97L664.75 1424.98C663.68 1425.02 662.62 1425.05 661.56 1425.05C645.41 1425.05 630.68 1419.05 619.4699999999999 1409.1699999999998C619.2299999999999 1408.9499999999998 618.2099999999999 1408.0299999999997 618.2099999999999 1408.0299999999997C615.06 1405.2199999999998 611.66 1403.0699999999997 607.16 1403.3699999999997C604.0799999999999 1403.5799999999997 601.3399999999999 1404.8799999999997 600.9499999999999 1408.9399999999996C600.8299999999999 1410.1499999999996 600.3199999999999 1410.9099999999996 598.8 1411.4799999999996C598.76 1411.4899999999996 598.7099999999999 1411.5099999999995 598.67 1411.5199999999995C598.06 1411.7299999999996 597.41 1411.8899999999994 596.74 1411.9899999999996L596.74 1407.9999999999995C596.02 1407.9699999999996 595.39 1407.9399999999996 594.82 1407.8999999999996L596.74 1404.4799999999996C597.23 1404.6599999999996 597.77 1404.7699999999995 598.33 1404.7699999999995C599.7700000000001 1404.7699999999995 600.46 1404.2999999999995 601.5600000000001 1403.4999999999995L599.37 1402.4299999999996L599.5 1402.4299999999996C600.45 1402.4299999999996 601.48 1402.6399999999996 602.29 1403.1399999999996C602.41 1403.2099999999996 602.8499999999999 1403.5599999999997 602.8499999999999 1403.5599999999997C603.05 1403.1899999999998 603.2199999999999 1402.8499999999997 603.29 1402.4399999999998C603.65 1400.2699999999998 601.61 1399.34 599.79 1399.0399999999997L600.53 1397.7199999999998L599.23 1397.7199999999998L599.23 1396.7999999999997C599.83 1396.2799999999997 600.1800000000001 1395.6499999999996 600.1800000000001 1394.8299999999997C600.1800000000001 1393.4399999999996 599.0500000000001 1392.3099999999997 597.6500000000001 1392.3099999999997L597.0900000000001 1392.3099999999997L596.8900000000001 1393.1199999999997L596.9000000000001 1393.0599999999997C596.9000000000001 1392.3999999999996 596.4300000000001 1391.8499999999997 595.8000000000001 1391.7199999999998L595.8000000000001 1391.3199999999997L596.4900000000001 1391.3199999999997L596.4900000000001 1390.7499999999998L595.8000000000001 1390.7499999999998L595.8000000000001 1390.0599999999997L595.23 1390.0599999999997L595.23 1390.7499999999998L594.54 1390.7499999999998L594.54 1391.3199999999997L595.23 1391.3199999999997L595.23 1391.7199999999998C594.61 1391.85 594.14 1392.3999999999999 594.14 1393.0599999999997L594.14 1393.1199999999997L593.9399999999999 1392.3099999999997L593.39 1392.3099999999997C592.23 1392.3099999999997 591.25 1393.0899999999997 590.9499999999999 1394.1499999999996L590.9499999999999 1394.1299999999997C590.9499999999999 1391.9799999999996 589.5999999999999 1390.5199999999998 587.7499999999999 1389.9099999999996L587.9899999999999 1388.9999999999995L585.2699999999999 1388.9999999999995L585.0699999999998 1389.7099999999996L583.7199999999998 1389.7099999999996C583.9399999999998 1389.4399999999996 584.0799999999998 1389.0899999999997 584.0799999999998 1388.7099999999996C584.0799999999998 1387.9699999999996 583.5799999999998 1387.3599999999997 582.8999999999999 1387.1799999999996L582.8999999999999 1386.7199999999996L583.8199999999998 1386.7199999999996L583.8199999999998 1385.9099999999996L582.8999999999999 1385.9099999999996L582.8999999999999 1384.9999999999995L582.0899999999999 1384.9999999999995L582.0899999999999 1385.9099999999996L581.18 1385.9099999999996L581.18 1386.7199999999996L582.0899999999999 1386.7199999999996L582.0899999999999 1387.1799999999996C581.41 1387.3599999999997 580.91 1387.9699999999996 580.91 1388.7099999999996C580.91 1389.0899999999997 581.04 1389.4399999999996 581.27 1389.7099999999996L579.92 1389.7099999999996L579.7299999999999 1388.9999999999995L576.9999999999999 1388.9999999999995L577.2399999999999 1389.8899999999996C575.3999999999999 1390.4199999999996 574.06 1392.0999999999997 574.0399999999998 1394.0899999999997C573.7299999999999 1393.0599999999997 572.7599999999999 1392.3099999999997 571.6199999999999 1392.3099999999997L571.0699999999999 1392.3099999999997L570.8699999999999 1393.1199999999997L570.8699999999999 1393.0599999999997C570.8699999999999 1392.3999999999996 570.3999999999999 1391.8499999999997 569.7799999999999 1391.7199999999998L569.7799999999999 1391.3199999999997L570.4699999999999 1391.3199999999997L570.4699999999999 1390.7499999999998L569.7799999999999 1390.7499999999998L569.7799999999999 1390.0599999999997L569.1999999999998 1390.0599999999997L569.1999999999998 1390.7499999999998L568.5099999999998 1390.7499999999998L568.5099999999998 1391.3199999999997L569.1999999999998 1391.3199999999997L569.1999999999998 1391.7199999999998C568.5799999999998 1391.85 568.1099999999998 1392.3999999999999 568.1099999999998 1393.0599999999997L568.1099999999998 1393.1199999999997L567.9099999999997 1392.3099999999997L567.3599999999998 1392.3099999999997C565.9599999999998 1392.3099999999997 564.8299999999998 1393.4399999999998 564.8299999999998 1394.8299999999997C564.8299999999998 1395.6499999999996 565.1799999999998 1396.2799999999997 565.7699999999999 1396.7999999999997L565.7699999999999 1397.7199999999998L564.4799999999999 1397.7199999999998L565.2199999999999 1399.0399999999997C563.3999999999999 1399.3399999999997 561.3599999999999 1400.2699999999998 561.7199999999999 1402.4399999999998C561.79 1402.85 561.9599999999999 1403.1899999999998 562.1499999999999 1403.5599999999997C562.1499999999999 1403.5599999999997 562.5999999999999 1403.2099999999998 562.7099999999998 1403.1399999999996C563.5299999999999 1402.6399999999996 564.5499999999998 1402.4299999999996 565.4999999999998 1402.4299999999996L565.6299999999998 1402.4299999999996L563.4499999999998 1403.4999999999995C564.5499999999998 1404.2999999999995 565.2399999999998 1404.7699999999995 566.6799999999998 1404.7699999999995C567.2399999999998 1404.7699999999995 567.7699999999999 1404.6599999999996 568.2699999999999 1404.4799999999996L570.1899999999998 1407.8899999999996C569.6199999999998 1407.9399999999996 568.9799999999998 1407.9699999999996 568.2499999999998 1407.9999999999995L568.2499999999998 1411.9899999999996C567.5799999999998 1411.8899999999996 566.9299999999997 1411.7299999999996 566.3199999999998 1411.5199999999995C566.2899999999998 1411.5099999999995 566.2299999999998 1411.4899999999996 566.1899999999998 1411.4799999999996C564.6699999999998 1410.9099999999996 564.1599999999999 1410.1499999999996 564.0399999999998 1408.9399999999996C563.6499999999999 1404.8799999999997 560.9099999999999 1403.5799999999997 557.8399999999998 1403.3699999999997C553.3299999999998 1403.0699999999997 549.9299999999998 1405.2199999999996 546.7799999999999 1408.0299999999997C546.7799999999999 1408.0299999999997 545.7599999999999 1408.9499999999998 545.5099999999999 1409.1699999999998C534.3099999999998 1419.05 519.5799999999999 1425.05 503.4299999999999 1425.05C502.3699999999999 1425.05 501.3099999999999 1425.02 500.2399999999999 1424.98L500.0099999999999 1424.97L499.9999999999999 1425.2C499.9799999999999 1427.91 501.2599999999999 1430.3700000000001 504.5499999999999 1430.31C505.6599999999999 1430.3 506.7699999999999 1430.25 507.8699999999999 1430.1799999999998C508.3899999999999 1432.1999999999998 509.6599999999999 1433.0299999999997 511.1699999999999 1433.2799999999997C511.9299999999999 1433.3999999999996 512.7499999999999 1433.3699999999997 513.56 1433.2799999999997C514.3 1433.1999999999998 515.03 1433.0699999999997 515.7199999999999 1432.9499999999998C516.43 1434.85 517.7299999999999 1435.5599999999997 519.2099999999999 1435.6699999999998C519.9599999999999 1435.7399999999998 520.7499999999999 1435.6399999999999 521.53 1435.4799999999998C522.23 1435.3399999999997 522.9399999999999 1435.1499999999999 523.6 1434.9599999999998C524.48 1436.7599999999998 525.8100000000001 1437.35 527.26 1437.34C528 1437.33 528.76 1437.1699999999998 529.51 1436.9599999999998C530.1899999999999 1436.7599999999998 530.86 1436.4999999999998 531.49 1436.2699999999998C532.0600000000001 1437.1699999999998 532.9300000000001 1437.9099999999999 534 1438.2199999999998L523.22 1438.2199999999998L523.21 1438.87C523.21 1439.1699999999998 523.1 1440.6899999999998 521.39 1440.6899999999998L520.74 1440.6899999999998L520.74 1454.0399999999997L521.39 1454.0399999999997C521.6899999999999 1454.0499999999997 523.21 1454.1499999999996 523.21 1455.8599999999997L523.21 1456.5099999999998L641.77 1456.5099999999998L641.78 1455.8599999999997C641.78 1455.5599999999997 641.89 1454.0399999999997 643.6 1454.0399999999997L644.25 1454.0399999999997L644.25 1440.6899999999998L643.6 1440.6899999999998C643.3000000000001 1440.6899999999998 641.78 1440.58 641.78 1438.87L641.78 1438.2199999999998L630.98 1438.2199999999998C632.0500000000001 1437.9099999999999 632.9300000000001 1437.1699999999998 633.5 1436.2699999999998C634.13 1436.4999999999998 634.8 1436.7599999999998 635.48 1436.9599999999998C636.23 1437.1699999999998 636.99 1437.3299999999997 637.73 1437.34C639.1800000000001 1437.35 640.51 1436.76 641.39 1434.9599999999998C642.05 1435.1499999999999 642.76 1435.34 643.46 1435.4799999999998C644.24 1435.6399999999999 645.0300000000001 1435.7399999999998 645.7800000000001 1435.6699999999998C647.2500000000001 1435.56 648.5500000000001 1434.85 649.2700000000001 1432.9499999999998C649.9600000000002 1433.0699999999997 650.69 1433.1999999999998 651.4300000000001 1433.2799999999997C652.24 1433.3699999999997 653.0600000000001 1433.3999999999996 653.82 1433.2799999999997C655.33 1433.0299999999997 656.6 1432.1999999999998 657.12 1430.1799999999998C658.22 1430.2499999999998 659.33 1430.2999999999997 660.44 1430.31C663.73 1430.37 665.0100000000001 1427.9099999999999 664.99 1425.2ZM640.52 1439.52C640.78 1441.08 641.98 1441.73 642.9399999999999 1441.92L642.9399999999999 1452.79C641.39 1453.05 640.7299999999999 1454.24 640.54 1455.21L524.47 1455.21C524.21 1453.65 523.02 1453 522.0500000000001 1452.81L522.0500000000001 1441.94C523.6 1441.68 524.2600000000001 1440.49 524.45 1439.52ZM569.62 1409.31C572.71 1409.1699999999998 574.55 1408.52 576.72 1406.25C578.64 1406.47 580.5500000000001 1406.61 582.49 1406.61L582.5 1406.61C584.43 1406.61 586.35 1406.4699999999998 588.27 1406.25C590.4399999999999 1408.52 592.28 1409.17 595.36 1409.31L595.36 1432.8799999999999C594.15 1433.51 588.1 1436.84 582.5 1437.8999999999999C577.09 1436.8899999999999 571.56 1433.87 569.68 1432.8999999999999C569.65 1432.8899999999999 569.62 1432.8799999999999 569.62 1432.8799999999999ZM547.71 1409.04C550.23 1406.8 552.83 1404.92 556.61 1404.75C559.66 1404.6 562.32 1405.44 562.67 1409.08C562.8499999999999 1410.85 563.76 1412.04 565.7299999999999 1412.78C565.7899999999998 1412.8 565.8599999999999 1412.82 565.92 1412.83C566.66 1413.09 567.4399999999999 1413.27 568.25 1413.3899999999999L568.25 1417.8C567.21 1418.98 566.14 1420.1499999999999 565.01 1421.32C563.77 1422.45 562.29 1422.32 561.21 1421.54C562.98 1419.84 564.6800000000001 1418.05 566.3100000000001 1416.2C565.9000000000001 1416.0800000000002 565.5000000000001 1415.96 565.1 1415.8300000000002C563.86 1417.2200000000003 562.5600000000001 1418.5900000000001 561.19 1419.95C559.9200000000001 1421.04 558.45 1420.89 557.3900000000001 1420.0900000000001C557.7800000000001 1419.7300000000002 558.1700000000001 1419.3700000000001 558.5500000000001 1419.0000000000002C559.9200000000001 1417.6900000000003 561.2400000000001 1416.3400000000001 562.5200000000001 1414.9300000000003C562.1300000000001 1414.7900000000002 561.7400000000001 1414.6400000000003 561.3500000000001 1414.4900000000002C560.9800000000001 1414.8900000000003 560.6100000000001 1415.2900000000002 560.2300000000001 1415.6800000000003C559.3700000000001 1416.5800000000004 558.4800000000001 1417.4800000000002 557.5500000000002 1418.3600000000004C556.2600000000002 1419.4300000000003 554.8000000000002 1419.2400000000005 553.7500000000002 1418.4300000000003C554.2000000000003 1418.0300000000002 554.6400000000002 1417.6300000000003 555.0800000000003 1417.2200000000003C556.4000000000003 1416.0100000000002 557.6700000000003 1414.7500000000002 558.9000000000003 1413.4400000000003C558.5300000000003 1413.2700000000002 558.1600000000003 1413.1000000000004 557.7900000000003 1412.9200000000003C557.1600000000003 1413.5900000000004 556.5200000000003 1414.2400000000002 555.8600000000004 1414.8800000000003C555.2800000000003 1415.4500000000003 554.6900000000004 1416.0100000000004 554.0800000000004 1416.5700000000004C552.7800000000004 1417.6100000000004 551.3200000000004 1417.4000000000003 550.2900000000004 1416.5700000000004C550.8000000000004 1416.1400000000003 551.3000000000004 1415.7000000000005 551.7900000000004 1415.2600000000004C553.0500000000004 1414.1300000000003 554.2700000000004 1412.9500000000005 555.4500000000004 1411.7300000000005C555.1000000000004 1411.5400000000004 554.7500000000003 1411.3500000000004 554.3900000000004 1411.1500000000005C553.4600000000005 1412.1000000000006 552.5100000000004 1413.0300000000007 551.5400000000004 1413.9200000000005C551.2900000000004 1414.1500000000005 551.0400000000004 1414.3800000000006 550.7900000000004 1414.6000000000006C549.4700000000004 1415.6100000000006 548.0200000000004 1415.3800000000006 547.0100000000004 1414.5300000000007C548.8100000000004 1413.0500000000006 550.5400000000004 1411.4800000000007 552.1800000000004 1409.8200000000006C551.8400000000004 1409.6200000000006 551.5200000000004 1409.4000000000005 551.1700000000004 1409.1800000000005C550.0300000000004 1410.3200000000006 548.8600000000005 1411.4100000000005 547.6600000000004 1412.4600000000005C546.3400000000004 1413.4400000000005 544.8900000000004 1413.1800000000005 543.8900000000004 1412.3200000000004C544.7600000000004 1411.6400000000003 545.6000000000005 1410.9300000000003 546.4300000000004 1410.2000000000005C546.8600000000004 1409.8200000000004 547.2900000000004 1409.4300000000005 547.7100000000004 1409.0400000000004ZM596.74 1413.39C597.54 1413.2700000000002 598.33 1413.0900000000001 599.07 1412.8300000000002C599.13 1412.8200000000002 599.2 1412.8000000000002 599.2600000000001 1412.7800000000002C601.2300000000001 1412.0400000000002 602.1400000000001 1410.8500000000001 602.32 1409.0800000000002C602.6700000000001 1405.44 605.33 1404.6000000000001 608.38 1404.7500000000002C612.16 1404.9200000000003 614.76 1406.8000000000002 617.28 1409.0400000000002C617.6999999999999 1409.4300000000003 618.13 1409.8200000000002 618.56 1410.2000000000003C619.39 1410.9300000000003 620.2299999999999 1411.6400000000003 621.0899999999999 1412.3200000000002C620.0899999999999 1413.18 618.66 1413.44 617.3299999999999 1412.4600000000003C616.1299999999999 1411.4100000000003 614.9599999999999 1410.3200000000002 613.8199999999999 1409.1800000000003C613.4799999999999 1409.4000000000003 613.14 1409.6200000000003 612.81 1409.8200000000004C614.4499999999999 1411.4800000000005 616.18 1413.0500000000004 617.9799999999999 1414.5300000000004C616.9699999999999 1415.3800000000003 615.5099999999999 1415.6100000000004 614.1999999999999 1414.6000000000004C613.9499999999999 1414.3800000000003 613.6999999999999 1414.1500000000003 613.4499999999999 1413.9200000000003C612.4799999999999 1413.0300000000002 611.52 1412.1000000000004 610.5999999999999 1411.1500000000003C610.2399999999999 1411.3500000000004 609.8899999999999 1411.5400000000004 609.54 1411.7300000000002C610.7099999999999 1412.9500000000003 611.9399999999999 1414.1300000000003 613.1999999999999 1415.2600000000002C613.6899999999999 1415.7000000000003 614.1899999999999 1416.1400000000003 614.6999999999999 1416.5700000000002C613.67 1417.4 612.2099999999999 1417.6100000000001 610.91 1416.5700000000002C610.3 1416.0100000000002 609.7099999999999 1415.4500000000003 609.12 1414.88C608.47 1414.24 607.84 1413.5900000000001 607.2 1412.92C606.83 1413.1000000000001 606.46 1413.27 606.1 1413.44C607.32 1414.75 608.59 1416.01 609.9 1417.22C610.34 1417.63 610.79 1418.03 611.24 1418.43C610.19 1419.24 608.73 1419.43 607.44 1418.3600000000001C606.5200000000001 1417.48 605.62 1416.5800000000002 604.75 1415.68C604.38 1415.29 604.01 1414.89 603.64 1414.49C603.25 1414.64 602.86 1414.79 602.48 1414.93C603.74 1416.3400000000001 605.07 1417.69 606.44 1419C606.82 1419.37 607.21 1419.73 607.6 1420.09C606.5400000000001 1420.8899999999999 605.07 1421.04 603.8000000000001 1419.9499999999998C602.4300000000001 1418.59 601.1300000000001 1417.2199999999998 599.8900000000001 1415.83C599.4900000000001 1415.96 599.0900000000001 1416.08 598.6800000000001 1416.1999999999998C600.3000000000001 1418.0499999999997 602.0100000000001 1419.84 603.7800000000001 1421.5399999999997C602.7 1422.3199999999997 601.2200000000001 1422.4499999999998 599.9800000000001 1421.3199999999997C598.8500000000001 1420.1499999999996 597.7800000000001 1418.9799999999998 596.7400000000001 1417.7999999999997ZM648.97 1427.74C643.88 1426.78 637.78 1425.16 629.4300000000001 1420.84C629.6500000000001 1420.75 630.57 1420.58 631.7 1419.1999999999998C633.4000000000001 1420.0199999999998 638.62 1422.83 646.72 1424.6999999999998C651.4100000000001 1425.7899999999997 657.03 1426.61 663.5600000000001 1426.3899999999999C663.1600000000001 1428.9199999999998 660.7 1429.06 658.5000000000001 1428.8999999999999C655.5400000000001 1428.6799999999998 652.3800000000001 1428.3799999999999 648.9700000000001 1427.7399999999998ZM501.43 1426.39C507.95 1426.6100000000001 513.58 1425.7900000000002 518.27 1424.7C526.37 1422.8300000000002 531.59 1420.02 533.29 1419.2C534.42 1420.5800000000002 535.3399999999999 1420.75 535.56 1420.8400000000001C527.2099999999999 1425.16 521.1099999999999 1426.7800000000002 516.02 1427.7400000000002C512.62 1428.3800000000003 509.45 1428.6800000000003 506.49 1428.9000000000003C504.29 1429.0600000000004 501.83 1428.9200000000003 501.43 1426.3900000000003ZM602.05 1434.52C603.74 1435.02 605.41 1434.36 606.4799999999999 1433.23C608.1399999999999 1433.58 609.7299999999999 1432.8600000000001 610.7299999999999 1431.7C612.1199999999999 1431.89 613.43 1431.3400000000001 614.3599999999999 1430.43C618.6099999999999 1433.3400000000001 623.1399999999999 1435.8600000000001 627.8999999999999 1437.95C628.1599999999999 1438.06 628.4099999999999 1438.15 628.6599999999999 1438.22L586.6599999999999 1438.22C589.7899999999998 1437.21 592.6099999999999 1435.84 595.6499999999999 1434.28C595.7399999999999 1434.3799999999999 595.8399999999999 1434.49 595.9499999999998 1434.61C597.2799999999999 1436.07 600.1199999999998 1436.3899999999999 602.0499999999998 1434.52ZM569.34 1434.28C572.25 1435.78 575.19 1437.21 578.2900000000001 1438.22L536.33 1438.22C536.58 1438.15 536.83 1438.06 537.08 1437.95C541.85 1435.8600000000001 546.38 1433.3400000000001 550.63 1430.43C551.55 1431.3400000000001 552.86 1431.89 554.26 1431.7C555.26 1432.8600000000001 556.85 1433.5800000000002 558.51 1433.23C559.58 1434.3600000000001 561.24 1435.02 562.9399999999999 1434.52C564.88 1436.3899999999999 567.7099999999999 1436.07 569.04 1434.61C569.15 1434.49 569.25 1434.3799999999999 569.3399999999999 1434.28ZM626.27 1423.28C627.09 1423.04 627.8199999999999 1422.55 628.56 1421.68C635.39 1425.5 644.4599999999999 1428.8100000000002 655.7399999999999 1429.8600000000001C654.9599999999999 1432.2600000000002 653.1199999999999 1432.15 651.3199999999999 1431.89C650.4599999999999 1431.76 638.77 1430.39 626.27 1423.2800000000002ZM509.25 1429.86C520.53 1428.81 529.6 1425.5 536.43 1421.6799999999998C537.17 1422.5499999999997 537.9 1423.0399999999997 538.7199999999999 1423.2799999999997C526.2199999999999 1430.3899999999996 514.5299999999999 1431.7599999999998 513.67 1431.8899999999996C511.86999999999995 1432.1499999999996 510.02 1432.2599999999995 509.24999999999994 1429.8599999999997ZM635.72 1431.69C632.0500000000001 1430.38 627.63 1428.3300000000002 622.9300000000001 1425.5700000000002C623.95 1425.3200000000002 624.83 1424.5600000000002 625.2700000000001 1424.0300000000002C628.5100000000001 1425.9600000000003 636.7200000000001 1430.3300000000002 647.9300000000001 1432.4800000000002C647.58 1433.5500000000002 646.3800000000001 1434.6700000000003 644.4000000000001 1434.3100000000002C643.0300000000001 1434.0600000000002 640.45 1433.38 635.7200000000001 1431.6900000000003ZM517.06 1432.48C528.27 1430.33 536.4799999999999 1425.96 539.7199999999999 1424.03C540.16 1424.56 541.04 1425.32 542.05 1425.57C537.3599999999999 1428.33 532.93 1430.3799999999999 529.27 1431.6899999999998C524.54 1433.3799999999999 521.96 1434.0599999999997 520.59 1434.3099999999997C518.61 1434.6699999999996 517.4100000000001 1433.5499999999997 517.0600000000001 1432.4799999999998ZM631.79 1434.11C627.61 1432.32 623.39 1430.24 619.43 1427.7099999999998C620.3499999999999 1427.4799999999998 621.04 1426.9999999999998 621.78 1426.2299999999998C623.93 1427.4999999999998 630.68 1431.6599999999999 640.11 1434.36C639.28 1435.84 638.1 1436.29 636.47 1435.86C635.0400000000001 1435.4799999999998 633.0600000000001 1434.6599999999999 631.7900000000001 1434.11ZM524.88 1434.36C534.31 1431.6599999999999 541.05 1427.5 543.2 1426.2299999999998C543.95 1426.9999999999998 544.6500000000001 1427.4799999999998 545.5600000000001 1427.7099999999998C541.6 1430.2399999999998 537.3800000000001 1432.3199999999997 533.2 1434.11C531.9300000000001 1434.6599999999999 529.95 1435.4799999999998 528.5200000000001 1435.86C526.8900000000001 1436.29 525.7 1435.84 524.8800000000001 1434.36ZM577.37 1398.4L577.37 1400.19L587.64 1400.19L587.64 1398.4C589.26 1397.97 590.52 1396.66 590.86 1395C590.9 1395.74 591.25 1396.32 591.8000000000001 1396.8L591.8000000000001 1397.74L590.34 1397.74C590.48 1399.16 591.07 1399.93 591.9200000000001 1400.34L587.59 1404.9399999999998C585.9 1405.11 584.21 1405.2399999999998 582.49 1405.2399999999998C580.79 1405.2399999999998 579.11 1405.1099999999997 577.42 1404.9399999999998L573.0899999999999 1400.34C573.93 1399.9299999999998 574.53 1399.1599999999999 574.67 1397.74L573.2099999999999 1397.74L573.2099999999999 1396.8C573.7399999999999 1396.33 574.0899999999999 1395.77 574.1399999999999 1395.06C574.4999999999999 1396.69 575.7499999999999 1397.99 577.3699999999999 1398.3999999999999ZM624.17 1434.66C623.66 1434.41 621.12 1433.22 615.7299999999999 1429.69C616.1599999999999 1429.5900000000001 617.2199999999999 1429.26 618.1299999999999 1428.26C624.6299999999999 1432.46 629.6299999999999 1434.48 632.2699999999999 1435.55C631.5099999999999 1436.59 630.5399999999998 1437.6 628.4899999999999 1436.71C626.2199999999999 1435.71 624.6299999999999 1434.89 624.1699999999998 1434.66ZM546.86 1428.26C547.77 1429.26 548.83 1429.59 549.26 1429.69C543.86 1433.22 541.33 1434.41 540.8199999999999 1434.66C540.3599999999999 1434.89 538.77 1435.71 536.4999999999999 1436.71C534.4499999999999 1437.6000000000001 533.4799999999999 1436.5900000000001 532.7199999999999 1435.55C535.3699999999999 1434.48 540.3599999999999 1432.46 546.8599999999999 1428.26ZM559.41 1431.34C558.63 1432 557.0899999999999 1432.4299999999998 555.5899999999999 1431.11C558.91 1428.59 561.8399999999999 1426.06 564.3899999999999 1423.56L564.3999999999999 1423.55C565.2299999999999 1424.1299999999999 566.0999999999999 1424.47 567.0299999999999 1424.48C563.3599999999999 1428.1200000000001 561.3199999999998 1429.73 559.4099999999999 1431.34ZM605.57 1431.34C603.6700000000001 1429.73 601.62 1428.12 597.96 1424.48C598.89 1424.47 599.76 1424.13 600.58 1423.55L600.6 1423.56C603.15 1426.06 606.09 1428.59 609.4 1431.11C607.9 1432.4299999999998 606.36 1432 605.5699999999999 1431.34ZM551.64 1429.44C554.33 1427.5800000000002 557.88 1424.65 560.39 1422.3200000000002L560.4 1422.3100000000002C561.2099999999999 1422.91 562.0799999999999 1423.2600000000002 563 1423.3000000000002C561.47 1424.8000000000002 557.86 1428.0100000000002 555.4 1429.8100000000002C554.35 1430.5900000000001 552.93 1430.67 551.64 1429.4400000000003ZM604.59 1422.31L604.6 1422.32C607.1 1424.6499999999999 610.66 1427.58 613.34 1429.4399999999998C612.0500000000001 1430.6699999999998 610.64 1430.59 609.58 1429.8099999999997C607.13 1428.0099999999998 603.51 1424.7999999999997 601.99 1423.2999999999997C602.9 1423.2599999999998 603.78 1422.9099999999996 604.59 1422.3099999999997ZM608.43 1420.84C611.79 1423.79 613.92 1425.4099999999999 617.1999999999999 1427.6499999999999C616.3199999999999 1428.55 614.7499999999999 1429.0199999999998 613.42 1428.08C611.74 1426.8799999999999 608.0799999999999 1423.97 605.8399999999999 1421.8899999999999C606.7699999999999 1421.84 607.6899999999999 1421.4099999999999 608.43 1420.84ZM559.15 1421.89C556.91 1423.97 553.25 1426.88 551.5699999999999 1428.0800000000002C550.2399999999999 1429.0200000000002 548.67 1428.5500000000002 547.79 1427.65C551.06 1425.41 553.1999999999999 1423.7900000000002 556.56 1420.8400000000001C557.29 1421.41 558.2099999999999 1421.8400000000001 559.15 1421.89ZM555.48 1420.26C553.76 1421.77 550.37 1424.52 547.9 1426.17C546.56 1427.0700000000002 545 1426.5800000000002 544.15 1425.64C547.6899999999999 1423.41 551.36 1420.5300000000002 552.91 1419.16C553.73 1419.8200000000002 554.63 1420.2 555.48 1420.26ZM609.51 1420.26C610.36 1420.2 611.26 1419.82 612.08 1419.16C613.63 1420.53 617.3000000000001 1423.41 620.84 1425.64C619.98 1426.5800000000002 618.4300000000001 1427.0700000000002 617.09 1426.17C614.62 1424.52 611.23 1421.77 609.51 1420.26ZM551.98 1418.43C549.62 1420.44 546.88 1422.45 544.4200000000001 1424.0900000000001C543.1500000000001 1424.94 541.5200000000001 1424.43 540.6800000000001 1423.4700000000003C541.61 1422.8900000000003 544.97 1420.9400000000003 549.4300000000001 1417.2800000000002C550.23 1417.9300000000003 551.08 1418.3500000000001 551.98 1418.4300000000003ZM613.01 1418.43C613.91 1418.3500000000001 614.76 1417.93 615.56 1417.28C620.03 1420.94 623.38 1422.8899999999999 624.31 1423.47C623.4699999999999 1424.43 621.8399999999999 1424.94 620.5699999999999 1424.09C618.1099999999999 1422.4499999999998 615.3799999999999 1420.4399999999998 613.01 1418.4299999999998ZM546.14 1415.23C546.9 1415.8700000000001 547.6999999999999 1416.32 548.68 1416.41C545 1419.3500000000001 543.2099999999999 1420.49 541.0999999999999 1421.8500000000001C539.8999999999999 1422.6200000000001 538.2499999999999 1422.21 537.3899999999999 1421.14C541.4999999999999 1418.7700000000002 544.3599999999999 1416.66 546.1399999999999 1415.23ZM616.31 1416.41C617.29 1416.3200000000002 618.0799999999999 1415.8700000000001 618.8499999999999 1415.23C620.6299999999999 1416.66 623.4899999999999 1418.77 627.5899999999999 1421.14C626.7399999999999 1422.21 625.0899999999999 1422.6200000000001 623.8899999999999 1421.8500000000001C621.7799999999999 1420.4900000000002 619.9899999999999 1419.3500000000001 616.3099999999998 1416.41ZM627.04 1419.47C625.74 1418.8 623.63 1417.47 619.4499999999999 1414.23C620.8599999999999 1414.01 621.54 1413.33 621.9799999999999 1413.01C624.1299999999999 1414.78 628.5299999999999 1417.5 630.7199999999999 1418.68C630.1299999999999 1419.4 628.79 1420.39 627.04 1419.47ZM545.54 1414.23C541.36 1417.47 539.25 1418.8 537.9499999999999 1419.47C536.1899999999999 1420.39 534.8599999999999 1419.4 534.27 1418.68C536.46 1417.5 540.86 1414.78 543.01 1413.01C543.4399999999999 1413.33 544.13 1414.01 545.54 1414.23ZM596.74 1424.91C599.28 1427.5 602.38 1430.3100000000002 605.22 1432.53C604.21 1433.41 602.75 1433.67 601.39 1432.6499999999999C599.78 1431.28 598.23 1429.8799999999999 596.74 1428.4399999999998ZM559.77 1432.53C562.61 1430.31 565.71 1427.5 568.25 1424.91L568.25 1428.44C566.76 1429.88 565.21 1431.28 563.59 1432.65C562.24 1433.67 560.7800000000001 1433.41 559.77 1432.5300000000002ZM631.81 1452.05L633.04 1448.33L633.5799999999999 1448.33L634.8199999999999 1452.05L636.9599999999999 1452.05L635.2299999999999 1447.32L636.8299999999999 1442.6799999999998L634.68 1442.6799999999998L633.5799999999999 1446.32L633.04 1446.32L631.9499999999999 1442.6799999999998L629.79 1442.6799999999998L631.39 1447.32L629.66 1452.05ZM622.21 1449.84L624.4200000000001 1449.84L624.6300000000001 1452.05L626.6400000000001 1452.05L625.7300000000001 1442.68L620.9000000000001 1442.68L619.9900000000001 1452.05L622.0000000000001 1452.05ZM596.96 1449.13L594.94 1449.13L594.94 1450.0400000000002L592.6600000000001 1450.0400000000002L592.6600000000001 1444.6800000000003L594.94 1444.6800000000003L594.94 1445.6000000000004L596.96 1445.6000000000004L596.96 1442.6800000000003L590.64 1442.6800000000003L590.64 1452.0500000000002L596.96 1452.0500000000002ZM539.77 1452.05L546.09 1452.05L546.09 1442.68L539.77 1442.68ZM569.82 1452.05L576.1400000000001 1452.05L576.1400000000001 1442.68L569.82 1442.68ZM602.44 1452.05L604.45 1452.05L604.45 1444.68L606.6 1444.68L606.6 1442.68L600.2900000000001 1442.68L600.2900000000001 1444.68L602.44 1444.68ZM586.61 1449.13L584.6 1449.13L584.6 1450.0400000000002L582.32 1450.0400000000002L582.32 1444.6800000000003L584.6 1444.6800000000003L584.6 1445.6000000000004L586.61 1445.6000000000004L586.61 1442.6800000000003L580.3000000000001 1442.6800000000003L580.3000000000001 1452.0500000000002L586.61 1452.0500000000002ZM612.31 1449.24L616.5999999999999 1449.24L616.5999999999999 1442.68L610.29 1442.68L610.29 1452.05L612.31 1452.05ZM556.56 1449.13L554.54 1449.13L554.54 1450.0400000000002L552.26 1450.0400000000002L552.26 1444.6800000000003L554.54 1444.6800000000003L554.54 1445.6000000000004L556.56 1445.6000000000004L556.56 1442.6800000000003L550.25 1442.6800000000003L550.25 1452.0500000000002L556.56 1452.0500000000002ZM562.6 1444.68L566.16 1444.68L566.16 1442.68L560.5899999999999 1442.68L560.5899999999999 1452.05L562.5999999999999 1452.05ZM581.01 1390.51L582.5 1395.86L583.99 1390.51L584.86 1390.51L582.9 1397.74L582.09 1397.74L580.13 1390.51ZM586.52 1397.74L585.62 1397.74L587.54 1390.66C589.05 1391.1000000000001 590.14 1392.49 590.14 1394.13C590.14 1396.1200000000001 588.52 1397.74 586.52 1397.74ZM579.37 1397.74L578.47 1397.74C576.47 1397.74 574.85 1396.1200000000001 574.85 1394.13C574.85 1392.49 575.95 1391.1000000000001 577.45 1390.66ZM579.11 1389.81L581.26 1397.74L580.2 1397.74L578.0500000000001 1389.81ZM596.74 1430.05C598.16 1431.3799999999999 599.65 1432.72 600.88 1433.72C600.08 1434.44 598.28 1434.99 596.92 1433.64C596.86 1433.5700000000002 596.8 1433.51 596.74 1433.46ZM568.25 1433.46C568.19 1433.51 568.13 1433.57 568.07 1433.64C566.71 1434.99 564.9100000000001 1434.44 564.11 1433.72C565.33 1432.72 566.83 1431.38 568.25 1430.05ZM571.84 1444.68L574.13 1444.68L574.13 1450.04L571.84 1450.04ZM541.79 1444.68L544.0699999999999 1444.68L544.0699999999999 1450.04L541.79 1450.04ZM566.68 1400.01L565.8599999999999 1398.54L573.7199999999999 1398.54C573.2599999999999 1399.6499999999999 571.9999999999999 1400.01 570.9699999999999 1400.01ZM594.04 1400.01C592.89 1399.94 591.75 1399.65 591.29 1398.54L599.15 1398.54L598.3199999999999 1400.01ZM568.25 1419.55L568.25 1423C567.21 1423.55 566.08 1423.37 565.2 1422.77C566.24 1421.72 567.26 1420.6399999999999 568.25 1419.55ZM596.74 1419.55C597.73 1420.6399999999999 598.75 1421.72 599.79 1422.77C598.91 1423.37 597.78 1423.55 596.74 1423ZM565.5 1401.63C564.48 1401.63 563.42 1401.8500000000001 562.52 1402.3300000000002C562.22 1400.5500000000002 564.26 1399.9600000000003 565.64 1399.7800000000002L566.1 1400.6000000000001L566.6700000000001 1401.63ZM599.37 1399.78C600.75 1399.96 602.79 1400.55 602.49 1402.33C601.59 1401.85 600.53 1401.6299999999999 599.5 1401.6299999999999L598.34 1401.6299999999999L598.9100000000001 1400.6ZM592 1403.02C591.51 1403.6 590.5 1403.06 591.17 1402.31C591.1899999999999 1402.29 591.2099999999999 1402.26 591.2299999999999 1402.24L592.7599999999999 1400.63C593.0699999999998 1400.7 593.4099999999999 1400.75 593.7599999999999 1400.7800000000002ZM573.78 1402.24C573.8 1402.26 573.8199999999999 1402.29 573.8399999999999 1402.31C574.4999999999999 1403.06 573.4999999999999 1403.6 572.9999999999999 1403.02L571.2499999999999 1400.78C571.5999999999999 1400.75 571.9299999999998 1400.7 572.2499999999999 1400.6299999999999ZM578.17 1398.54L586.8399999999999 1398.54L586.8399999999999 1399.3899999999999L578.17 1399.3899999999999ZM571.7 1393.11C572.62 1393.1499999999999 573.35 1393.9099999999999 573.35 1394.83C573.35 1395.33 573.14 1395.77 572.8100000000001 1396.08L570.95 1396.08ZM594.06 1396.08L592.1999999999999 1396.08C591.8599999999999 1395.77 591.66 1395.33 591.66 1394.83C591.66 1393.9099999999999 592.39 1393.1499999999999 593.31 1393.11ZM567.28 1393.11L568.03 1396.08L566.17 1396.08C565.8399999999999 1395.77 565.63 1395.33 565.63 1394.83C565.63 1393.9099999999999 566.36 1393.1499999999999 567.28 1393.11ZM591.91 1404.45C592.01 1404.65 592.16 1404.82 592.36 1404.95C592.5600000000001 1405.0900000000001 592.78 1405.17 593.01 1405.2L591.77 1407.21C591.3199999999999 1406.99 590.89 1406.71 590.43 1406.3400000000001ZM597.72 1393.11C598.64 1393.1499999999999 599.37 1393.9099999999999 599.37 1394.83C599.37 1395.33 599.17 1395.77 598.84 1396.08L596.98 1396.08ZM573.1 1404.45L574.57 1406.3300000000002C574.11 1406.7 573.6800000000001 1406.9800000000002 573.24 1407.2L571.99 1405.2C572.22 1405.17 572.45 1405.0900000000001 572.65 1404.95C572.84 1404.82 572.99 1404.65 573.1 1404.45ZM589.82 1405.82C589.5 1405.52 589.1700000000001 1405.2 588.8000000000001 1404.82L590.2400000000001 1403.29C590.3200000000002 1403.49 590.4800000000001 1403.68 590.6800000000002 1403.82C590.8500000000001 1403.9299999999998 591.0200000000002 1404 591.2100000000002 1404.04ZM596.76 1393.66L596.15 1396.0800000000002L594.88 1396.0800000000002L594.27 1393.66C594.49 1394.1200000000001 594.97 1394.44 595.51 1394.44C596.06 1394.44 596.53 1394.1200000000001 596.76 1393.66ZM573.8 1404.04C573.9799999999999 1404 574.16 1403.93 574.3299999999999 1403.82C574.53 1403.6799999999998 574.68 1403.49 574.77 1403.29L576.1899999999999 1404.81C575.8299999999999 1405.1799999999998 575.4999999999999 1405.52 575.1899999999999 1405.81ZM570.73 1393.66L570.12 1396.0800000000002L568.86 1396.0800000000002L568.25 1393.66C568.47 1394.1200000000001 568.94 1394.44 569.49 1394.44C570.03 1394.44 570.51 1394.1200000000001 570.73 1393.66ZM622.68 1444.68L623.9499999999999 1444.68L624.2499999999999 1447.8300000000002L622.3799999999999 1447.8300000000002ZM567.14 1400.82L567.86 1400.82L568.39 1401.7C568.88 1401.69 569.42 1401.38 569.62 1400.82C569.88 1400.82 570.14 1400.82 570.39 1400.81C570.25 1401.77 569.65 1402.55 568.15 1402.62ZM595.39 1400.82C595.59 1401.3799999999999 596.13 1401.6899999999998 596.62 1401.7L597.14 1400.82L597.87 1400.82L596.86 1402.62C595.36 1402.55 594.75 1401.77 594.62 1400.81C594.87 1400.82 595.13 1400.82 595.39 1400.82ZM612.31 1444.68L614.5899999999999 1444.68L614.5899999999999 1447.23L612.31 1447.23ZM531.38 1447.23L533.66 1447.23L533.66 1444.68L531.38 1444.68ZM594.06 1401.7C594.1999999999999 1402.05 594.39 1402.3500000000001 594.64 1402.6100000000001L593.67 1404.15L593.64 1404.19C593.27 1404.79 592.18 1404.1000000000001 592.66 1403.49ZM572.35 1403.49C572.83 1404.1 571.73 1404.79 571.36 1404.19L571.34 1404.15L570.37 1402.6100000000001C570.62 1402.3500000000001 570.8100000000001 1402.0500000000002 570.95 1401.7ZM593.94 1407.81C593.4300000000001 1407.74 592.96 1407.6499999999999 592.5200000000001 1407.5L593.7300000000001 1405.58C593.8500000000001 1405.77 594.0300000000001 1405.9299999999998 594.2200000000001 1406.04C594.4200000000002 1406.1599999999999 594.6300000000001 1406.21 594.8400000000001 1406.22ZM570.17 1406.22C570.38 1406.21 570.5899999999999 1406.16 570.78 1406.04C570.98 1405.93 571.15 1405.77 571.28 1405.58L572.48 1407.5C572.04 1407.65 571.58 1407.74 571.0600000000001 1407.81ZM568.58 1403.39C569.0200000000001 1403.3400000000001 569.39 1403.23 569.71 1403.0800000000002L570.6800000000001 1404.6200000000001C570.98 1405.21 569.94 1405.7800000000002 569.5500000000001 1405.1100000000001ZM595.46 1405.11C595.07 1405.78 594.0300000000001 1405.2099999999998 594.33 1404.62L595.2900000000001 1403.08C595.6100000000001 1403.23 595.9900000000001 1403.34 596.4200000000001 1403.3899999999999ZM598.43 1396.89L598.43 1397.73L594.17 1397.74L592.5999999999999 1397.74L592.5999999999999 1396.89ZM572.4 1396.89L572.4 1397.74L566.5799999999999 1397.73L566.5799999999999 1396.89ZM582.5 1392.86L581.72 1390.09C581.95 1390.22 582.21 1390.29 582.5 1390.29C582.78 1390.29 583.04 1390.22 583.26 1390.09ZM599.96 1403.61C599.45 1403.87 598.94 1403.9599999999998 598.33 1403.9599999999998C597.9100000000001 1403.9599999999998 597.51 1403.8999999999999 597.13 1403.7699999999998L597.33 1403.4399999999998L597.82 1402.5599999999997ZM565.05 1403.61L567.1899999999999 1402.56L567.68 1403.44L567.87 1403.77C567.5 1403.9 567.1 1403.96 566.68 1403.96C566.0699999999999 1403.96 565.56 1403.8700000000001 565.05 1403.6100000000001ZM583.28 1388.71C583.28 1389.14 582.93 1389.49 582.5 1389.49C582.06 1389.49 581.71 1389.14 581.71 1388.71C581.71 1388.28 582.0600000000001 1387.93 582.5 1387.93C582.93 1387.93 583.28 1388.28 583.28 1388.71ZM596.09 1393.06C596.09 1393.3799999999999 595.83 1393.6299999999999 595.51 1393.6299999999999C595.2 1393.6299999999999 594.9399999999999 1393.3799999999999 594.9399999999999 1393.06C594.9399999999999 1392.75 595.1999999999999 1392.49 595.51 1392.49C595.83 1392.49 596.09 1392.75 596.09 1393.06ZM570.06 1393.06C570.06 1393.3799999999999 569.81 1393.6299999999999 569.4899999999999 1393.6299999999999C569.1699999999998 1393.6299999999999 568.9199999999998 1393.3799999999999 568.9199999999998 1393.06C568.9199999999998 1392.75 569.1699999999998 1392.49 569.4899999999999 1392.49C569.81 1392.49 570.06 1392.75 570.06 1393.06ZM531.38 1449.24L531.38 1452.05L529.36 1452.05L529.36 1442.68L535.6800000000001 1442.68L535.6800000000001 1449.24Z " fill="#b99459" fill-opacity="1" transform="matrix(1,0,0,1,-499,-1385)"></path><path id="SvgjsPath1008" d="M588.28 1408C590 1409.78 592.3 1410.83 594.77 1410.97L594.77 1433.01C594.25 1433.29 587.96 1436.68 582.89 1437.62C577.81 1436.6799999999998 571.52 1433.29 571 1433.01L571 1410.97C573.47 1410.83 575.77 1409.78 577.49 1408C579.27 1408.21 581.08 1408.31 582.89 1408.31C584.6899999999999 1408.31 586.5 1408.21 588.28 1408ZM582.97 1436.18C585.89 1435.6000000000001 589.35 1434.3100000000002 592.94 1432.46L592.94 1431.56C592.3900000000001 1431.86 587.44 1434.47 582.9100000000001 1435.3799999999999L582.8900000000001 1435.3899999999999L582.8800000000001 1435.3799999999999C578.1800000000001 1434.4399999999998 573.3600000000001 1431.85 572.8200000000002 1431.56L572.8200000000002 1432.46C576.3700000000001 1434.3 579.8200000000002 1435.5900000000001 582.8100000000002 1436.18L582.8900000000002 1436.2ZM592.94 1412.15C592.3000000000001 1412 591.45 1411.76 590.5500000000001 1411.3100000000002C588.9100000000001 1410.4800000000002 588.23 1409.68 588.2 1409.65L588.0600000000001 1409.48L587.84 1409.5C587.82 1409.5 585.51 1409.75 582.89 1409.75C580.27 1409.75 577.97 1409.5 577.9399999999999 1409.5L577.7299999999999 1409.48L577.5899999999999 1409.65C577.5799999999999 1409.65 576.91 1410.46 575.2299999999999 1411.3100000000002C574.3199999999999 1411.7800000000002 573.4699999999999 1412.0100000000002 572.8199999999999 1412.16L572.8199999999999 1412.97C573.18 1412.9 574.43 1412.6100000000001 575.5999999999999 1412.02C576.9499999999999 1411.34 577.7099999999999 1410.67 578.04 1410.33L578.06 1410.31L578.0899999999999 1410.32C578.66 1410.37 580.6899999999999 1410.54 582.8799999999999 1410.54L582.8999999999999 1410.54C585.0999999999999 1410.54 587.1299999999999 1410.37 587.6899999999998 1410.32L587.7299999999998 1410.31L587.7499999999998 1410.33C588.0799999999998 1410.6699999999998 588.8399999999998 1411.34 590.1899999999998 1412.02C591.3399999999998 1412.61 592.5899999999998 1412.8899999999999 592.9399999999998 1412.97ZM581.24 1422.98L581.24 1425.3L577.67 1425.3L577.67 1426.37L582.3299999999999 1426.37L582.3299999999999 1418.8L577.67 1418.8L577.67 1422.98ZM587.01 1420.01L587.01 1421.78L583.5699999999999 1421.78L583.5699999999999 1426.37L587.91 1426.37L587.91 1425.3L584.65 1425.3L584.65 1422.98L588.09 1422.98L588.09 1418.8L583.57 1418.8L583.57 1420.01ZM590.26 1420.01L590.26 1425.3L589.33 1425.3L589.33 1426.37L592.2 1426.37L592.2 1425.3L591.35 1425.3L591.35 1418.8L589.33 1418.8L589.33 1420.01ZM574.5 1420.01L574.5 1425.3L573.57 1425.3L573.57 1426.37L576.44 1426.37L576.44 1425.3L575.59 1425.3L575.59 1418.8L573.57 1418.8L573.57 1420.01ZM578.76 1421.78L581.24 1421.78L581.24 1420.01L578.76 1420.01Z " fill="#7e1b20" fill-opacity="1" transform="matrix(1,0,0,1,-499,-1385)"></path><path id="SvgjsPath1009" d="M577.14 1418.05L577.14 1422.21L580.67 1422.21L580.67 1424.56L577.14 1424.56L577.14 1425.6L581.74 1425.6L581.74 1418.05ZM583.02 1418.01L583.02 1419.24L586.4399999999999 1419.24L586.4399999999999 1421.03L582.9799999999999 1421.03L582.9799999999999 1425.6299999999999L587.3399999999999 1425.6299999999999L587.3399999999999 1424.4999999999998L584.0899999999999 1424.4999999999998L584.0899999999999 1422.2199999999998L587.4899999999999 1422.2199999999998L587.4899999999999 1418.0099999999998ZM573 1418.06L573 1419.26L573.92 1419.26L573.92 1424.55L573 1424.55L573 1425.6299999999999L575.88 1425.6299999999999L575.88 1424.55L575.05 1424.55L575.05 1418.06ZM580.65 1419.27L580.65 1421.02L578.22 1421.02L578.22 1419.27ZM588.8 1418L588.79 1419.25L589.6899999999999 1419.25L589.6899999999999 1424.57L588.79 1424.57L588.79 1425.62L591.65 1425.62L591.65 1424.57L590.81 1424.57L590.81 1418Z " fill="#b99459" fill-opacity="1" transform="matrix(1,0,0,1,-499,-1385)"></path></svg>