<svg id="SvgjsSvg1008" xmlns="http://www.w3.org/2000/svg" version="1.1" xmlns:xlink="http://www.w3.org/1999/xlink" xmlns:svgjs="http://svgjs.com/svgjs" width="12" height="10" viewBox="0 0 12 10"><title>rightarrow</title><desc>Created with Avocode.</desc><defs id="SvgjsDefs1009"></defs><path id="SvgjsPath1010" d="M1250.63 674.73L1254.72 670.6700000000001C1254.9 670.5000000000001 1255 670.2500000000001 1255 670.0000000000001C1255 669.7400000000001 1254.9 669.5000000000001 1254.72 669.3200000000002L1250.63 665.2800000000002C1250.2600000000002 664.9100000000002 1249.65 664.9100000000002 1249.2700000000002 665.2800000000002C1249.0900000000001 665.4600000000002 1248.9900000000002 665.7000000000002 1248.9900000000002 665.9600000000002C1248.9900000000002 666.2100000000002 1249.0900000000001 666.4500000000002 1249.2700000000002 666.6300000000001L1251.6600000000003 669.0000000000001L1243.9900000000002 669.0000000000001C1243.4400000000003 669.0000000000001 1243.0000000000002 669.4500000000002 1243.0000000000002 670.0000000000001C1243.0000000000002 670.5500000000001 1243.4400000000003 671.0000000000001 1243.9900000000002 671.0000000000001L1251.6700000000003 671.0000000000001L1249.2700000000002 673.3700000000001C1249.0900000000001 673.5500000000001 1248.9900000000002 673.8000000000001 1248.9900000000002 674.0500000000001C1248.9900000000002 674.3000000000001 1249.0900000000001 674.5500000000001 1249.2700000000002 674.73C1249.6500000000003 675.09 1250.2500000000002 675.09 1250.63 674.73Z " fill="#cca266" fill-opacity="1" transform="matrix(1,0,0,1,-1243,-665)"></path></svg>