<svg id="SvgjsSvg1000" xmlns="http://www.w3.org/2000/svg" version="1.1" xmlns:xlink="http://www.w3.org/1999/xlink" xmlns:svgjs="http://svgjs.com/svgjs" width="10" height="14" viewBox="0 0 10 14"><title>Combined Shape</title><desc>Created with Avocode.</desc><defs id="SvgjsDefs1001"></defs><path id="SvgjsPath1007" d="M250.02 3443.69L246.63000000000002 3440.28C246.24000000000004 3439.9300000000003 245.65000000000003 3439.9300000000003 245.27 3440.28C244.91 3440.67 244.91 3441.26 245.27 3441.6400000000003L249.3 3445.7400000000002C249.68 3446.09 250.27 3446.09 250.65 3445.7400000000002L254.68 3441.6400000000003C255.04000000000002 3441.26 255.04000000000002 3440.6700000000005 254.68 3440.28C254.31 3439.9900000000002 253.79000000000002 3439.9900000000002 253.42000000000002 3440.28ZM249.35 3439.72C249.73 3440.0699999999997 250.32 3440.0699999999997 250.7 3439.72L254.73 3435.6299999999997C255.09 3435.24 255.09 3434.6499999999996 254.73 3434.2599999999998C254.35 3433.91 253.76 3433.91 253.36999999999998 3434.2599999999998L250.01999999999998 3437.6699999999996L246.63 3434.2599999999998C246.24 3433.91 245.65 3433.91 245.26999999999998 3434.2599999999998C244.90999999999997 3434.6499999999996 244.90999999999997 3435.24 245.26999999999998 3435.6299999999997Z " fill="#cca266" fill-opacity="1" transform="matrix(1,0,0,1,-245,-3433)"></path></svg>