<svg id="SvgjsSvg1000" xmlns="http://www.w3.org/2000/svg" version="1.1" xmlns:xlink="http://www.w3.org/1999/xlink" xmlns:svgjs="http://svgjs.com/svgjs" width="14" height="11" viewBox="0 0 14 11"><title>Combined Shape</title><desc>Created with Avocode.</desc><defs id="SvgjsDefs1001"></defs><path id="SvgjsPath1007" d="M375.69 1602.98L372.28 1606.3700000000001C371.92999999999995 1606.7600000000002 371.92999999999995 1607.3500000000001 372.28 1607.73C372.66999999999996 1608.09 373.26 1608.09 373.64 1607.73L377.74 1603.7C378.09000000000003 1603.32 378.09000000000003 1602.73 377.74 1602.3500000000001L373.64 1598.3200000000002C373.26 1597.9600000000003 372.66999999999996 1597.9600000000003 372.28 1598.3200000000002C371.98999999999995 1598.69 371.98999999999995 1599.2100000000003 372.28 1599.5800000000002ZM371.72 1603.65C372.07000000000005 1603.27 372.07000000000005 1602.68 371.72 1602.3000000000002L367.63000000000005 1598.2700000000002C367.24000000000007 1597.9100000000003 366.65000000000003 1597.9100000000003 366.26000000000005 1598.2700000000002C365.91 1598.6500000000003 365.91 1599.2400000000002 366.26000000000005 1599.63L369.6700000000001 1602.98L366.26000000000005 1606.3700000000001C365.91 1606.7600000000002 365.91 1607.3500000000001 366.26000000000005 1607.73C366.65000000000003 1608.09 367.24000000000007 1608.09 367.63000000000005 1607.73Z " fill="#cca266" fill-opacity="1" transform="matrix(1,0,0,1,-365,-1597)"></path></svg>