<svg id="SvgjsSvg1000" xmlns="http://www.w3.org/2000/svg" version="1.1" xmlns:xlink="http://www.w3.org/1999/xlink" xmlns:svgjs="http://svgjs.com/svgjs" width="3" height="9" viewBox="0 0 3 9"><title>!</title><desc>Created with Avocode.</desc><defs id="SvgjsDefs1001"></defs><path id="SvgjsPath1007" d="M337.23 448.54L335.3 448.54L335 443L337.53 443ZM335.02 450.59C335.02 450.95 335.13 451.21999999999997 335.34999999999997 451.41999999999996C335.57 451.60999999999996 335.86999999999995 451.71 336.26 451.71C336.64 451.71 336.94 451.60999999999996 337.15 451.41999999999996C337.37 451.21999999999997 337.46999999999997 450.94999999999993 337.46999999999997 450.59C337.46999999999997 450.23999999999995 337.36999999999995 449.96 337.16999999999996 449.76C336.96 449.57 336.65999999999997 449.46999999999997 336.25999999999993 449.46999999999997C335.85999999999996 449.46999999999997 335.54999999999995 449.57 335.3399999999999 449.76C335.12999999999994 449.96 335.0199999999999 450.24 335.0199999999999 450.59Z " fill="#ffffff" fill-opacity="1" transform="matrix(1,0,0,1,-335,-443)"></path></svg>