<svg id="SvgjsSvg1000" xmlns="http://www.w3.org/2000/svg" version="1.1" xmlns:xlink="http://www.w3.org/1999/xlink" xmlns:svgjs="http://svgjs.com/svgjs" width="11" height="10" viewBox="0 0 11 10"><title>close</title><desc>Created with Avocode.</desc><defs id="SvgjsDefs1001"></defs><path id="SvgjsPath1007" d="M551.78 435.51L554.76 432.52C555.1 432.15999999999997 555.08 431.63 554.72 431.28C554.57 431.11999999999995 554.34 431.01 554.1 431.01C553.87 431 553.64 431.09 553.47 431.26L550.5 434.23L547.54 431.27000000000004C547.38 431.1 547.15 431.00000000000006 546.9 431.00000000000006C546.66 431.00000000000006 546.43 431.09000000000003 546.26 431.26000000000005C545.91 431.62000000000006 545.91 432.1700000000001 546.27 432.54L549.23 435.51000000000005L546.27 438.4800000000001C545.93 438.8300000000001 545.9499999999999 439.37000000000006 546.31 439.7100000000001C546.4599999999999 439.8800000000001 546.68 439.99000000000007 546.92 439.99000000000007C547.16 440.00000000000006 547.39 439.9000000000001 547.55 439.74000000000007L550.5 436.7800000000001L553.46 439.7500000000001C553.62 439.91000000000014 553.85 440.0100000000001 554.09 440.0000000000001C554.33 439.9900000000001 554.5600000000001 439.8900000000001 554.71 439.72000000000014C555.08 439.39000000000016 555.1 438.85000000000014 554.76 438.4900000000001Z " fill="#b8bbbf" fill-opacity="1" transform="matrix(1,0,0,1,-545,-431)"></path></svg>