<svg id="Layer_1" data-name="Layer 1" xmlns="http://www.w3.org/2000/svg" xmlns:xlink="http://www.w3.org/1999/xlink" viewBox="0 0 72 72"><defs><style>.cls-1{fill:none;clip-rule:evenodd;}.cls-2{clip-path:url(#clip-path);}.cls-3{clip-path:url(#clip-path-2);}.cls-4{clip-path:url(#clip-path-3);}.cls-5{clip-path:url(#clip-path-4);}.cls-6{clip-path:url(#clip-path-5);}.cls-7{clip-path:url(#clip-path-6);}.cls-8{clip-path:url(#clip-path-7);}.cls-9{clip-path:url(#clip-path-8);}.cls-10{fill:#cca266;}.cls-11{fill:#b31b2c;}</style><clipPath id="clip-path"><path class="cls-1" d="M283-567h6.66a1.5,1.5,0,0,1,1.5,1.5,1.5,1.5,0,0,1-1.5,1.5H283Zm6.37,7a5.5,5.5,0,0,0,5.5-5.5,5.5,5.5,0,0,0-5.5-5.5h-8.71a1.72,1.72,0,0,0-1.29.62A1.72,1.72,0,0,0,279-569v5h-.9a2,2,0,0,0-2,2,2,2,0,0,0,2,2h.9v1h-.9a2,2,0,0,0-2,2,2,2,0,0,0,2,2h.9v2a2,2,0,0,0,2,2,2,2,0,0,0,2-2v-2h6.37a2,2,0,0,0,2-2,2,2,0,0,0-2-2H283v-1Z"/></clipPath><clipPath id="clip-path-2"><path class="cls-1" d="M239-601.92c1.32,2.14,5.84,3.75,8.54,3.75.52,0,2.35-.15,2.35-1.33,0-2-4.73-3.25-6.31-4-1.07-.5-4.58-1.44-4.58-5.4,0-1.53,1.67-4.89,6-5.1v-3h4v3a12.43,12.43,0,0,1,6,2l-1,4a35.69,35.69,0,0,0-4.11-1.34c-.75-.28-5.89-1.58-5.89.44,0,1.67,3.92,2.74,4.81,3.09s3.65,1.53,4.84,3A4.78,4.78,0,0,1,255-599.5c0,4.13-2.84,5.3-6.06,5.72L249-591h-4v-3a15.22,15.22,0,0,1-6-2.92Z"/></clipPath><clipPath id="clip-path-3"><path class="cls-1" d="M267-551a31,31,0,0,1-30.79-27.4l-2.1,2.07a2,2,0,0,1-2.77-.56,2,2,0,0,1,.55-2.77l5-4A2,2,0,0,1,238-584h.36a1.41,1.41,0,0,1,.68.27l5.09,4.06a2,2,0,0,1,.89,1.79,2,2,0,0,1-1.11,1.66,2,2,0,0,1-2-.13l-1.61-1.74A27,27,0,0,0,267-555a2,2,0,0,1,2,2A2,2,0,0,1,267-551Z"/></clipPath><clipPath id="clip-path-4"><path class="cls-1" d="M293.64-580a1.41,1.41,0,0,1-.68-.27l-5.09-4.06a2,2,0,0,1-.56-2.77,2,2,0,0,1,2.78-.56l1.61,1.74A27,27,0,0,0,265-609a2,2,0,0,1-2-2,2,2,0,0,1,2-2,31,31,0,0,1,30.79,27.4l2.1-2.07a2,2,0,0,1,2-.13,2,2,0,0,1,1.11,1.67,2,2,0,0,1-.89,1.79l-5,4a2,2,0,0,1-1.1.34Z"/></clipPath><clipPath id="clip-path-5"><path class="cls-1" d="M373,370.08c1.32,2.14,5.84,3.75,8.54,3.75.52,0,2.35-.15,2.35-1.33,0-2-4.73-3.25-6.31-4-1.07-.5-4.58-1.44-4.58-5.4,0-1.53,1.67-4.89,6-5.1v-3h4v3a12.43,12.43,0,0,1,6,2l-1,4a35.69,35.69,0,0,0-4.11-1.34c-.75-.28-5.89-1.58-5.89.44,0,1.67,3.92,2.74,4.81,3.09s3.65,1.53,4.84,3A4.78,4.78,0,0,1,389,372.5c0,4.13-2.84,5.3-6.06,5.72L383,381h-4v-3a15.22,15.22,0,0,1-6-2.92Z"/></clipPath><clipPath id="clip-path-6"><path class="cls-1" d="M130.64,46a1.41,1.41,0,0,1-.68-.27l-5.09-4.06a2,2,0,1,1,2.22-3.33l1.61,1.74A27,27,0,0,0,102,17a2,2,0,0,1,0-4,31,31,0,0,1,30.79,27.4l2.1-2.07a2,2,0,1,1,2.22,3.33l-5,4A2,2,0,0,1,131,46Z"/></clipPath><clipPath id="clip-path-7"><path class="cls-1" d="M-127-193h6.66a1.5,1.5,0,0,1,1.5,1.5,1.5,1.5,0,0,1-1.5,1.5H-127Zm6.37,7a5.5,5.5,0,0,0,5.5-5.5,5.5,5.5,0,0,0-5.5-5.5h-8.71a1.72,1.72,0,0,0-1.29.62A1.72,1.72,0,0,0-131-195v5h-.9a2,2,0,0,0-2,2,2,2,0,0,0,2,2h.9v1h-.9a2,2,0,0,0-2,2,2,2,0,0,0,2,2h.9v2a2,2,0,0,0,2,2,2,2,0,0,0,2-2v-2h6.37a2,2,0,0,0,2-2,2,2,0,0,0-2-2H-127v-1Z"/></clipPath><clipPath id="clip-path-8"><path class="cls-1" d="M-105.36-178a25.36,25.36,0,0,0,25.19-22.42l1.72,1.69a1.64,1.64,0,0,0,2.27-.45,1.64,1.64,0,0,0-.45-2.27l-4.09-3.27a1.64,1.64,0,0,0-.91-.28h-.29a1.15,1.15,0,0,0-.56.22l-4.16,3.32a1.64,1.64,0,0,0-.73,1.47,1.64,1.64,0,0,0,.91,1.36,1.64,1.64,0,0,0,1.63-.11l1.32-1.42a22.09,22.09,0,0,1-21.85,18.88,1.64,1.64,0,0,0-1.64,1.64A1.64,1.64,0,0,0-105.36-178Z"/></clipPath></defs><title>icon_credit-for-loyal</title><path class="cls-10" d="M22,72H0V18H20c.56,0,5.81,0,8.41,2.59a15.33,15.33,0,0,1,3.19,5.78,17.28,17.28,0,0,1,6,3.4C40,32,39.95,36.86,40,37.8V48H36V41c0-6-.8-7.78-1.58-8.77s-3.35-1.92-4.89-2.29l-1.18-.28-.29-1.18a13.18,13.18,0,0,0-2.47-5.07C24.51,22.29,21.4,22,20.08,22H4V68H22Z"/><path class="cls-11" d="M39.37,63a5.5,5.5,0,1,0,0-11H30.66c-1.13,0-1.66.89-1.66,2v5h-.9a2,2,0,1,0,0,4H29v1h-.9a2,2,0,1,0,0,4H29v2a2,2,0,0,0,4,0V68h6.37a2,2,0,1,0,0-4H33V63ZM33,56h6.66a1.5,1.5,0,1,1,0,3H33Z"/><rect class="cls-10" x="8.05" y="34" width="10" height="4"/><rect class="cls-10" x="8.05" y="42" width="20" height="4"/><circle class="cls-10" cx="60.11" cy="6.46" r="6.46"/><path class="cls-10" d="M65.62,29.78c2.58-2.47,2.73-5.24,2.08-6.87A2.71,2.71,0,0,0,65.27,21a3.67,3.67,0,0,0-3.65,2.3,1,1,0,0,1-1.9,0A3.89,3.89,0,0,0,56,21a2.71,2.71,0,0,0-2.44,1.91c-.65,1.63-.5,4.4,2.08,6.87L56.88,31h7.46Z"/><path class="cls-10" d="M67.16,13.11a9.66,9.66,0,0,1-14.09,0,11.82,11.82,0,0,0-4.8,9.51v3.15A5.23,5.23,0,0,0,53.5,31H54c-3.08-3.11-3.2-6.68-2.34-8.83A4.69,4.69,0,0,1,56,19a5.88,5.88,0,0,1,4.69,2.07A5.83,5.83,0,0,1,65.27,19a4.69,4.69,0,0,1,4.29,3.17c.86,2.14.74,5.68-2.28,8.78A5.21,5.21,0,0,0,72,25.77V22.62A11.82,11.82,0,0,0,67.16,13.11Z"/><path class="cls-11" d="M65.27,21c-3.27,0-4.15,2-4.58,2S59,21,56,21a2.71,2.71,0,0,0-2.44,1.91c-.65,1.63-.5,4.4,2.08,6.87l5,4.82c.75-.75,2.22-2.18,5-4.82,2.58-2.47,2.73-5.24,2.08-6.87A2.71,2.71,0,0,0,65.27,21Z"/></svg>