<svg id="Layer_1" data-name="Layer 1" xmlns="http://www.w3.org/2000/svg" xmlns:xlink="http://www.w3.org/1999/xlink" viewBox="0 0 80 75.99"><defs><style>.cls-1,.cls-2{fill:none;}.cls-1{clip-rule:evenodd;}.cls-3{clip-path:url(#clip-path);}.cls-4{clip-path:url(#clip-path-2);}.cls-5{fill:#cca266;}.cls-6{clip-path:url(#clip-path-3);}.cls-7{clip-path:url(#clip-path-5);}.cls-8{fill:#b31b2c;}.cls-9{clip-path:url(#clip-path-7);}</style><clipPath id="clip-path" transform="translate(-635 -107.01)"><path class="cls-1" d="M692,162h6.66a1.5,1.5,0,0,1,0,3H692v-3Zm6.37,7a5.5,5.5,0,0,0,0-11h-8.71a1.72,1.72,0,0,0-1.66,2v5h-0.9a2,2,0,0,0,0,4H688v1h-0.9a2,2,0,0,0,0,4H688v2a2,2,0,0,0,4,0v-2h6.37a2,2,0,0,0,0-4H692v-1h6.37Z"/></clipPath><clipPath id="clip-path-2" transform="translate(-635 -107.01)"><rect class="cls-2" x="-554" y="-1281" width="1440" height="2841"/></clipPath><clipPath id="clip-path-3" transform="translate(-635 -107.01)"><path class="cls-1" d="M648,127.08c1.32,2.14,5.84,3.75,8.54,3.75,0.52,0,2.35-.15,2.35-1.33,0-2-4.73-3.25-6.31-4-1.07-.5-4.58-1.44-4.58-5.4,0-1.53,1.67-4.89,6-5.1v-3h4v3a12.43,12.43,0,0,1,6,2l-1,4a35.69,35.69,0,0,0-4.11-1.34c-0.75-.28-5.89-1.58-5.89.44,0,1.67,3.92,2.74,4.81,3.09s3.65,1.53,4.84,3A4.78,4.78,0,0,1,664,129.5c0,4.13-2.84,5.3-6.06,5.72L658,138h-4v-3a15.22,15.22,0,0,1-6-2.92v-5Z"/></clipPath><clipPath id="clip-path-5" transform="translate(-635 -107.01)"><path class="cls-1" d="M676,178a31,31,0,0,1-30.79-27.4l-2.1,2.07a2,2,0,0,1-2.22-3.33l5-4A2,2,0,0,1,647,145h0.36a1.41,1.41,0,0,1,.68.27l5.09,4.06a2,2,0,1,1-2.22,3.33l-1.61-1.74A27,27,0,0,0,676,174,2,2,0,0,1,676,178Z"/></clipPath><clipPath id="clip-path-7" transform="translate(-635 -107.01)"><path class="cls-1" d="M702.64,149a1.41,1.41,0,0,1-.68-0.27l-5.09-4.06a2,2,0,1,1,2.22-3.33l1.61,1.74A27,27,0,0,0,674,120a2,2,0,0,1,0-4,31,31,0,0,1,30.79,27.4l2.1-2.07a2,2,0,1,1,2.22,3.33l-5,4a2,2,0,0,1-1.1.34h-0.37Z"/></clipPath></defs><title>currency</title><g class="cls-3"><g class="cls-4"><rect class="cls-5" x="45.1" y="45.99" width="28.77" height="30"/></g></g><g class="cls-6"><g class="cls-4"><rect class="cls-5" x="8" width="26" height="35.99"/></g></g><g class="cls-7"><g class="cls-4"><rect class="cls-8" y="32.99" width="48" height="43"/></g></g><g class="cls-9"><g class="cls-4"><rect class="cls-8" x="32" y="3.99" width="48" height="43"/></g></g></svg>