<svg id="SvgjsSvg1010" xmlns="http://www.w3.org/2000/svg" version="1.1" xmlns:xlink="http://www.w3.org/1999/xlink" xmlns:svgjs="http://svgjs.com/svgjs" width="70" height="68" viewBox="0 0 70 68"><title>Combined Shape</title><desc>Created with Avocode.</desc><defs id="SvgjsDefs1011"></defs><path id="SvgjsPath1012" d="M1194 1802L1194 1869L1264 1869L1264 1829L1260 1829L1260 1841L1198 1841L1198 1806L1221 1806L1221 1802ZM1256 1829L1252 1829L1252 1833L1206 1833L1206 1814L1221 1814L1221 1810L1202 1810L1202 1837L1256 1837ZM1260 1849L1198 1849L1198 1845L1260 1845ZM1260 1857L1198 1857L1198 1853L1260 1853ZM1260 1865L1198 1865L1198 1861L1260 1861Z " fill="#b31b2c" fill-opacity="1" transform="matrix(1,0,0,1,-1194,-1801)"></path><path id="SvgjsPath1013" d="M1239.28 1819.55C1238.1299999999999 1821.18 1236.37 1822 1233.99 1822C1231.68 1822 1229.93 1821.16 1228.76 1819.48C1227.59 1817.79 1227 1815.31 1227 1812.02C1227 1808.59 1227.57 1806.06 1228.71 1804.44C1229.8500000000001 1802.81 1231.6100000000001 1802 1233.99 1802C1236.3 1802 1238.04 1802.85 1239.23 1804.55C1240.41 1806.25 1241 1808.74 1241 1812.02C1241 1815.41 1240.43 1817.92 1239.28 1819.55ZM1231.84 1817.14C1232.27 1818.17 1232.98 1818.69 1233.99 1818.69C1234.97 1818.69 1235.68 1818.17 1236.1200000000001 1817.1200000000001C1236.5600000000002 1816.0800000000002 1236.7800000000002 1814.38 1236.7800000000002 1812.0200000000002C1236.7800000000002 1809.64 1236.5600000000002 1807.9200000000003 1236.1200000000001 1806.88C1235.67 1805.8400000000001 1234.96 1805.3200000000002 1233.99 1805.3200000000002C1232.99 1805.3200000000002 1232.28 1805.8400000000001 1231.85 1806.88C1231.4199999999998 1807.92 1231.2099999999998 1809.64 1231.2099999999998 1812.0200000000002C1231.2099999999998 1814.4000000000003 1231.4199999999998 1816.1100000000001 1231.84 1817.14Z " fill="#cca266" fill-opacity="1" transform="matrix(1,0,0,1,-1194,-1801)"></path><path id="SvgjsPath1014" d="M1264 1807.49C1264 1804.46 1261.51 1802 1258.43 1802L1249.6200000000001 1802C1248.49 1801.99 1247.5600000000002 1802.88 1247.5400000000002 1804L1247.5400000000002 1808.98L1247.0200000000002 1808.98C1245.9100000000003 1808.98 1245.0000000000002 1809.88 1245.0000000000002 1810.98C1245.0000000000002 1812.08 1245.9100000000003 1812.97 1247.0200000000002 1812.97L1247.5400000000002 1812.97L1247.5400000000002 1813.97L1247.0200000000002 1813.97C1245.9100000000003 1813.97 1245.0000000000002 1814.8600000000001 1245.0000000000002 1815.97C1245.0000000000002 1817.07 1245.9100000000003 1817.96 1247.0200000000002 1817.96L1247.5400000000002 1817.96L1247.5400000000002 1819.96C1247.5400000000002 1821.08 1248.4700000000003 1822 1249.6200000000001 1822C1250.7600000000002 1822 1251.69 1821.08 1251.69 1819.96L1251.69 1817.96L1258.43 1817.96C1259.55 1817.96 1260.46 1817.07 1260.46 1815.97C1260.46 1814.8600000000001 1259.55 1813.97 1258.43 1813.97L1251.69 1813.97L1251.69 1812.97L1258.43 1812.97C1261.51 1812.97 1264 1810.52 1264 1807.49ZM1258.43 1805.99C1259.27 1805.99 1259.95 1806.66 1259.95 1807.49C1259.95 1808.31 1259.27 1808.98 1258.43 1808.98L1251.69 1808.98L1251.69 1805.99Z " fill="#cba16a" fill-opacity="1" transform="matrix(1,0,0,1,-1194,-1801)"></path></svg>