<svg id="SvgjsSvg1000" xmlns="http://www.w3.org/2000/svg" version="1.1" xmlns:xlink="http://www.w3.org/1999/xlink" xmlns:svgjs="http://svgjs.com/svgjs" width="59" height="70" viewBox="0 0 59 70"><title>Shape</title><desc>Created with Avocode.</desc><defs id="SvgjsDefs1001"></defs><path id="SvgjsPath1007" d="M1265 1447L1222 1447L1222 1393L1265 1393ZM1226 1443L1261 1443L1261 1397L1226 1397Z " fill="#b31b2c" fill-opacity="1" transform="matrix(1,0,0,1,-1206,-1377)"></path><path id="SvgjsPath1008" d="M1212 1431L1206 1431L1206 1377L1249 1377L1249 1383L1245 1383L1245 1381L1210 1381L1210 1427L1212 1427Z " fill="#b31b2c" fill-opacity="1" transform="matrix(1,0,0,1,-1206,-1377)"></path><path id="SvgjsPath1009" d="M1220 1439L1214 1439L1214 1385L1257 1385L1257 1391L1253 1391L1253 1389L1218 1389L1218 1435L1220 1435Z " fill="#b31b2c" fill-opacity="1" transform="matrix(1,0,0,1,-1206,-1377)"></path><path id="SvgjsPath1010" d="M1230 1405L1230 1401L1257 1401L1257 1405Z " fill="#cca266" fill-opacity="1" transform="matrix(1,0,0,1,-1206,-1377)"></path><path id="SvgjsPath1011" d="M1230 1412L1230 1408L1257 1408L1257 1412Z " fill="#cca266" fill-opacity="1" transform="matrix(1,0,0,1,-1206,-1377)"></path><path id="SvgjsPath1012" d="M1230 1419L1230 1415L1257 1415L1257 1419Z " fill="#cca266" fill-opacity="1" transform="matrix(1,0,0,1,-1206,-1377)"></path><path id="SvgjsPath1013" d="M1230 1426L1230 1422L1257 1422L1257 1426Z " fill="#cca266" fill-opacity="1" transform="matrix(1,0,0,1,-1206,-1377)"></path><path id="SvgjsPath1014" d="M1230 1433L1230 1429L1257 1429L1257 1433Z " fill="#cca266" fill-opacity="1" transform="matrix(1,0,0,1,-1206,-1377)"></path></svg>