<svg id="SvgjsSvg1000" xmlns="http://www.w3.org/2000/svg" version="1.1" xmlns:xlink="http://www.w3.org/1999/xlink" xmlns:svgjs="http://svgjs.com/svgjs" width="16" height="16" viewBox="0 0 16 16"><title>icon</title><desc>Created with Avocode.</desc><defs id="SvgjsDefs1001"></defs><path id="SvgjsPath1007" d="M790 779L790 782L778 782L778 779C778 778.45 777.55 778 777 778C776.45 778 776 778.45 776 779L776 783C776 783.55 776.45 784 777 784L791 784C791.55 784 792 783.55 792 783L792 779C792 778.45 791.55 778 791 778C790.45 778 790 778.45 790 779ZM784 768L778 774L782 774L782 780L786 780L786 774L790 774Z " fill="#ffffff" fill-opacity="1" transform="matrix(1,0,0,1,-776,-768)"></path></svg>