<svg id="SvgjsSvg1000" xmlns="http://www.w3.org/2000/svg" version="1.1" xmlns:xlink="http://www.w3.org/1999/xlink" xmlns:svgjs="http://svgjs.com/svgjs" width="12" height="15" viewBox="0 0 12 15"><title>Downarrow</title><desc>Created with Avocode.</desc><defs id="SvgjsDefs1001"></defs><path id="SvgjsPath1007" d="M763.08 2270.53C762.9200000000001 2270.8900000000003 763 2271.3100000000004 763.2900000000001 2271.59L767.34 2275.7000000000003C767.51 2275.88 767.76 2275.9900000000002 768.01 2275.9900000000002C768.26 2275.9900000000002 768.51 2275.8900000000003 768.6899999999999 2275.7200000000003L772.7399999999999 2271.65C773.0099999999999 2271.36 773.0899999999999 2270.9500000000003 772.93 2270.59C772.77 2270.23 772.42 2270 772.02 2270.01L764.02 2270.01C763.62 2269.96 763.25 2270.1800000000003 763.0799999999999 2270.53Z " fill="#cca266" fill-opacity="1" transform="matrix(1,0,0,1,-762,-2261)"></path><path id="SvgjsPath1008" d="M764.02 2266.99294C763.62 2267.0429400000003 763.25 2266.82294 763.0799999999999 2266.47294C762.92 2266.11294 762.9999999999999 2265.68294 763.29 2265.41294L767.3299999999999 2261.30294C767.5099999999999 2261.11294 767.7499999999999 2261.00294 767.9999999999999 2261.00294C768.2599999999999 2261.00294 768.4999999999999 2261.1029399999998 768.6799999999998 2261.28294L772.7299999999998 2265.35294C772.9999999999998 2265.6329400000004 773.0799999999998 2266.05294 772.9199999999998 2266.41294C772.7599999999999 2266.7729400000003 772.4099999999999 2267.0029400000003 772.0099999999999 2266.99294Z " fill="#cca266" fill-opacity="1" transform="matrix(1,0,0,1,-762,-2261)"></path></svg>