<svg id="SvgjsSvg1011" xmlns="http://www.w3.org/2000/svg" version="1.1" xmlns:xlink="http://www.w3.org/1999/xlink" xmlns:svgjs="http://svgjs.com/svgjs" width="16" height="14" viewBox="0 0 16 14"><title>Combined Shape</title><desc>Created with Avocode.</desc><defs id="SvgjsDefs1012"></defs><path id="SvgjsPath1013" d="M664 224C663.45 224 663 223.55 663 223C663 222.45 663.45 222 664 222L674 222C674.55 222 675 222.45 675 223C675 223.55 674.55 224 674 224ZM674 226C674.55 226 675 226.45 675 227C675 227.55 674.55 228 674 228L664 228C663.45 228 663 227.55 663 227C663 226.45 663.45 226 664 226ZM674 230C674.55 230 675 230.45 675 231C675 231.55 674.55 232 674 232L664 232C663.45 232 663 231.55 663 231C663 230.45 663.45 230 664 230ZM661 223C661 223.55 660.55 224 660 224C659.45 224 659 223.55 659 223C659 222.45 659.45 222 660 222C660.55 222 661 222.45 661 223ZM661 227C661 227.55 660.55 228 660 228C659.45 228 659 227.55 659 227C659 226.45 659.45 226 660 226C660.55 226 661 226.45 661 227ZM661 231C661 231.55 660.55 232 660 232C659.45 232 659 231.55 659 231C659 230.45 659.45 230 660 230C660.55 230 661 230.45 661 231ZM661 235C661 235.55 660.55 236 660 236C659.45 236 659 235.55 659 235C659 234.45 659.45 234 660 234C660.55 234 661 234.45 661 235ZM674 234C674.55 234 675 234.45 675 235C675 235.55 674.55 236 674 236L664 236C663.45 236 663 235.55 663 235C663 234.45 663.45 234 664 234Z " fill="#aaaeb2" fill-opacity="1" transform="matrix(1,0,0,1,-659,-222)"></path></svg>