<?xml version="1.0" encoding="utf-8"?>
<!-- Generator: Adobe Illustrator 17.0.1, SVG Export Plug-In . SVG Version: 6.00 Build 0)  -->
<!DOCTYPE svg PUBLIC "-//W3C//DTD SVG 1.1//EN" "http://www.w3.org/Graphics/SVG/1.1/DTD/svg11.dtd">
<svg version="1.1" id="SvgjsSvg1011" xmlns:svgjs="http://svgjs.com/svgjs"
	 xmlns="http://www.w3.org/2000/svg" xmlns:xlink="http://www.w3.org/1999/xlink" x="0px" y="0px" width="16px" height="14px"
	 viewBox="0 0 16 14" enable-background="new 0 0 16 14" xml:space="preserve">
<title>Combined Shape</title>
<desc>Created with Avocode.</desc>
<path id="SvgjsPath1013" fill="#B31B2C" d="M5,2C4.45,2,4,1.55,4,1s0.45-1,1-1h10c0.55,0,1,0.45,1,1s-0.45,1-1,1H5z M15,4
	c0.55,0,1,0.45,1,1s-0.45,1-1,1H5C4.45,6,4,5.55,4,5s0.45-1,1-1H15z M15,8c0.55,0,1,0.45,1,1s-0.45,1-1,1H5c-0.55,0-1-0.45-1-1
	s0.45-1,1-1H15z M2,1c0,0.55-0.45,1-1,1S0,1.55,0,1s0.45-1,1-1S2,0.45,2,1z M2,5c0,0.55-0.45,1-1,1S0,5.55,0,5s0.45-1,1-1
	S2,4.45,2,5z M2,9c0,0.55-0.45,1-1,1S0,9.55,0,9s0.45-1,1-1S2,8.45,2,9z M2,13c0,0.55-0.45,1-1,1s-1-0.45-1-1s0.45-1,1-1
	S2,12.45,2,13z M15,12c0.55,0,1,0.45,1,1s-0.45,1-1,1H5c-0.55,0-1-0.45-1-1s0.45-1,1-1H15z"/>
</svg>
