<svg id="SvgjsSvg1008" xmlns="http://www.w3.org/2000/svg" version="1.1" xmlns:xlink="http://www.w3.org/1999/xlink" xmlns:svgjs="http://svgjs.com/svgjs" width="11" height="11" viewBox="0 0 11 11"><title>Shape</title><desc>Created with Avocode.</desc><defs id="SvgjsDefs1009"></defs><path id="SvgjsPath1010" d="M1002.11 276.21C1002.89 276.98999999999995 1003.34 278.03999999999996 1003.34 279.15C1003.34 279.82 1003.1700000000001 280.47999999999996 1002.85 281.07L1004.74 282.95C1004.9 283.11 1004.99 283.32 1004.99 283.55C1004.99 283.77000000000004 1004.9 283.98 1004.74 284.14L1004.14 284.72999999999996C1003.81 285.05999999999995 1003.27 285.05999999999995 1002.9399999999999 284.72999999999996L1001.03 282.84C1000.4499999999999 283.14 999.8 283.29999999999995 999.15 283.29999999999995C997.67 283.29999999999995 996.3 282.50999999999993 995.56 281.22999999999996C994.81 279.93999999999994 994.81 278.35999999999996 995.56 277.08C996.3 275.78999999999996 997.67 275 999.15 275C1000.26 274.99 1001.3199999999999 275.43 1002.11 276.21ZM1000.81 279.14C1000.8 278.21999999999997 1000.06 277.47999999999996 999.14 277.47999999999996C998.22 277.47999999999996 997.47 278.22999999999996 997.48 279.15C997.48 280.07 998.23 280.81 999.15 280.81C1000.0699999999999 280.81 1000.81 280.06 1000.81 279.14Z " fill="#cca266" fill-opacity="1" transform="matrix(1,0,0,1,-994,-274)"></path></svg>