<?xml version="1.0" encoding="utf-8"?>
<!-- Generator: Adobe Illustrator 17.0.1, SVG Export Plug-In . SVG Version: 6.00 Build 0)  -->
<!DOCTYPE svg PUBLIC "-//W3C//DTD SVG 1.1//EN" "http://www.w3.org/Graphics/SVG/1.1/DTD/svg11.dtd">
<svg version="1.1" id="SvgjsSvg1008" xmlns:svgjs="http://svgjs.com/svgjs"
	 xmlns="http://www.w3.org/2000/svg" xmlns:xlink="http://www.w3.org/1999/xlink" x="0px" y="0px" width="13px" height="16px"
	 viewBox="0 0 13 16" enable-background="new 0 0 13 16" xml:space="preserve">
<title>Fill 1</title>
<desc>Created with Avocode.</desc>
<path id="SvgjsPath1010" fill="#AAAEB2" d="M4.99,6c0-1.1,0.89-2,2-2c1.1,0,2,0.9,2,2c0,1.11-0.9,2-2,2C5.88,8,4.99,7.11,4.99,6z
	 M1,6.01C1,7.48,1.55,8.9,2.53,10l4.46,6l4.46-6c2.21-2.47,2-6.26-0.47-8.47C9.88,0.55,8.46,0,6.99,0C3.67,0.01,0.99,2.7,1,6.01z"/>
</svg>
