<svg id="SvgjsSvg1008" xmlns="http://www.w3.org/2000/svg" version="1.1" xmlns:xlink="http://www.w3.org/1999/xlink" xmlns:svgjs="http://svgjs.com/svgjs" width="13" height="16" viewBox="0 0 13 16"><title>Fill 1</title><desc>Created with Avocode.</desc><defs id="SvgjsDefs1009"></defs><path id="SvgjsPath1010" d="M628.99 227C628.99 225.9 629.88 225 630.99 225C632.09 225 632.99 225.9 632.99 227C632.99 228.11 632.09 229 630.99 229C629.88 229 628.99 228.11 628.99 227ZM625 227.01C625 228.48 625.55 229.89999999999998 626.53 231L630.99 237L635.45 231C637.6600000000001 228.53 637.45 224.74 634.98 222.53C633.88 221.55 632.46 221 630.99 221C627.67 221.01 624.99 223.7 625 227.01Z " fill="#b31b2c" fill-opacity="1" transform="matrix(1,0,0,1,-624,-221)"></path></svg>