<svg id="SvgjsSvg1000" xmlns="http://www.w3.org/2000/svg" version="1.1" xmlns:xlink="http://www.w3.org/1999/xlink" xmlns:svgjs="http://svgjs.com/svgjs" width="32" height="32" viewBox="0 0 32 32"><title>Oval Copy 8</title><desc>Created with Avocode.</desc><defs id="SvgjsDefs1001"><clipPath id="SvgjsClipPath1010"><path id="SvgjsPath1009" d="M1029 532C1029 523.16344 1036.16344 516 1045 516C1053.83656 516 1061 523.16344 1061 532C1061 540.83656 1053.83656 548 1045 548C1036.16344 548 1029 540.83656 1029 532Z " fill="#ffffff"></path></clipPath></defs><path id="SvgjsPath1007" d="M1029 532C1029 523.16344 1036.16344 516 1045 516C1053.83656 516 1061 523.16344 1061 532C1061 540.83656 1053.83656 548 1045 548C1036.16344 548 1029 540.83656 1029 532Z " fill="#cca266" fill-opacity="1" transform="matrix(1,0,0,1,-1029,-516)"></path><path id="SvgjsPath1008" d="M1029 532C1029 523.16344 1036.16344 516 1045 516C1053.83656 516 1061 523.16344 1061 532C1061 540.83656 1053.83656 548 1045 548C1036.16344 548 1029 540.83656 1029 532Z " fill-opacity="0" fill="#ffffff" stroke-dasharray="0" stroke-linejoin="miter" stroke-linecap="butt" stroke-opacity="1" stroke="#ffffff" stroke-miterlimit="50" stroke-width="16" clip-path="url(&quot;#SvgjsClipPath1010&quot;)" transform="matrix(1,0,0,1,-1029,-516)"></path></svg>