<svg id="SvgjsSvg1011" xmlns="http://www.w3.org/2000/svg" version="1.1" xmlns:xlink="http://www.w3.org/1999/xlink" xmlns:svgjs="http://svgjs.com/svgjs" width="32" height="32" viewBox="0 0 32 32"><title>Oval Copy 9</title><desc>Created with Avocode.</desc><defs id="SvgjsDefs1012"><clipPath id="SvgjsClipPath1016"><path id="SvgjsPath1015" d="M719 2603C719 2594.16344 726.16344 2587 735 2587C743.83656 2587 751 2594.16344 751 2603C751 2611.83656 743.83656 2619 735 2619C726.16344 2619 719 2611.83656 719 2603Z " fill="#ffffff"></path></clipPath></defs><path id="SvgjsPath1013" d="M719 2603C719 2594.16344 726.16344 2587 735 2587C743.83656 2587 751 2594.16344 751 2603C751 2611.83656 743.83656 2619 735 2619C726.16344 2619 719 2611.83656 719 2603Z " fill="#b31b2c" fill-opacity="1" transform="matrix(1,0,0,1,-719,-2587)"></path><path id="SvgjsPath1014" d="M719 2603C719 2594.16344 726.16344 2587 735 2587C743.83656 2587 751 2594.16344 751 2603C751 2611.83656 743.83656 2619 735 2619C726.16344 2619 719 2611.83656 719 2603Z " fill-opacity="0" fill="#ffffff" stroke-dasharray="0" stroke-linejoin="miter" stroke-linecap="butt" stroke-opacity="1" stroke="#ffffff" stroke-miterlimit="50" stroke-width="16" clip-path="url(&quot;#SvgjsClipPath1016&quot;)" transform="matrix(1,0,0,1,-719,-2587)"></path></svg>