<svg id="SvgjsSvg1000" xmlns="http://www.w3.org/2000/svg" version="1.1" xmlns:xlink="http://www.w3.org/1999/xlink" xmlns:svgjs="http://svgjs.com/svgjs" width="18" height="18" viewBox="0 0 18 18"><title>Rectangle 2</title><desc>Created with Avocode.</desc><defs id="SvgjsDefs1001"><clipPath id="SvgjsClipPath1009"><path id="SvgjsPath1008" d="M658 300C658 298.89543 658.89543 298 660 298L674 298C675.10457 298 676 298.89543 676 300L676 314C676 315.10457 675.10457 316 674 316L660 316C658.89543 316 658 315.10457 658 314Z " fill="#ffffff"></path></clipPath></defs><path id="SvgjsPath1007" d="M658 300C658 298.89543 658.89543 298 660 298L674 298C675.10457 298 676 298.89543 676 300L676 314C676 315.10457 675.10457 316 674 316L660 316C658.89543 316 658 315.10457 658 314Z " fill-opacity="0" fill="#ffffff" stroke-dasharray="0" stroke-linejoin="miter" stroke-linecap="butt" stroke-opacity="1" stroke="#b31b2c" stroke-miterlimit="50" stroke-width="4" clip-path="url(&quot;#SvgjsClipPath1009&quot;)" transform="matrix(1,0,0,1,-658,-298)"></path><path id="SvgjsPath1010" d="M668.97 303L667 306.46L665.03 303L662.6899999999999 308.92L661.9999999999999 308.92L661.9999999999999 309.81L665.5399999999998 309.81L665.5399999999998 308.92L665.0099999999999 308.92L665.5199999999999 307.44L666.9999999999999 309.88L668.4799999999999 307.44L668.9899999999999 308.92L668.4599999999999 308.92L668.4599999999999 309.81L671.9999999999999 309.81L671.9999999999999 308.92L671.3099999999998 308.92Z " fill="#b31b2c" fill-opacity="1" transform="matrix(1,0,0,1,-658,-298)"></path></svg>