<svg id="SvgjsSvg1009" xmlns="http://www.w3.org/2000/svg" version="1.1" xmlns:xlink="http://www.w3.org/1999/xlink" xmlns:svgjs="http://svgjs.com/svgjs" width="12" height="15" viewBox="0 0 12 15"><title>Downarrow</title><desc>Created with Avocode.</desc><defs id="SvgjsDefs1010"></defs><path id="SvgjsPath1011" d="M756.08 89.46294C755.9200000000001 89.10294 756 88.68294 756.2900000000001 88.40294L760.34 84.29294C760.51 84.11294 760.76 84.00294 761.01 84.00294C761.26 84.00294 761.51 84.10293999999999 761.6899999999999 84.27293999999999L765.7399999999999 88.34294C766.0099999999999 88.63294 766.0899999999999 89.04294 765.93 89.40294C765.77 89.76294 765.42 89.99294 765.02 89.98294L757.02 89.98294C756.62 90.03294 756.25 89.81294 756.0799999999999 89.46294Z " fill="#cca266" fill-opacity="1" transform="matrix(1,0,0,1,-755,-75)"></path><path id="SvgjsPath1012" d="M756.08 75.53C755.9200000000001 75.89 756 76.32000000000001 756.2900000000001 76.59L760.33 80.7C760.51 80.89 760.75 81 761 81C761.26 81 761.5 80.9 761.68 80.72L765.7299999999999 76.65C765.9999999999999 76.37 766.0799999999999 75.95 765.92 75.59C765.76 75.23 765.41 75 765.01 75.01L757.02 75.01C756.62 74.96000000000001 756.25 75.18 756.0799999999999 75.53Z " fill="#cca266" fill-opacity="1" transform="matrix(1,0,0,1,-755,-75)"></path></svg>