<svg id="Layer_1" data-name="Layer 1" xmlns="http://www.w3.org/2000/svg" viewBox="0 0 72 69.96"><defs><style>.cls-1{fill:none;stroke:#cca266;stroke-linecap:round;stroke-miterlimit:10;stroke-width:4px;}.cls-2{fill:#cca266;}.cls-3{fill:#b31b2c;}</style></defs><title>mortgage_credit</title><path class="cls-1" d="M1254,142" transform="translate(-1242 -109)"/><path class="cls-2" d="M1299,155h-31a4,4,0,0,1-4-4v-4a4,4,0,0,1,4-4h31a4,4,0,0,1,4,4v4A4,4,0,0,1,1299,155Zm-31-8v4h31v-4h-31Z" transform="translate(-1242 -109)"/><path class="cls-2" d="M1310,163h-42a4,4,0,0,1-4-4v-4a4,4,0,0,1,4-4h42a4,4,0,0,1,4,4v4A4,4,0,0,1,1310,163Zm-42-8v4h42v-4h-42Z" transform="translate(-1242 -109)"/><path class="cls-3" d="M1260,145a18,18,0,1,1,18-18A18,18,0,0,1,1260,145Zm0-32a14,14,0,1,0,14,14A14,14,0,0,0,1260,113Z" transform="translate(-1242 -109)"/><path class="cls-2" d="M1299,171h-31a4,4,0,0,1-4-4v-4a4,4,0,0,1,4-4h31a4,4,0,0,1,4,4v4A4,4,0,0,1,1299,171Zm-31-8v4h31v-4h-31Z" transform="translate(-1242 -109)"/><polygon class="cls-3" points="19.14 69.96 10.17 61 13.17 58 10.17 55 13.17 52 11 49.83 11 40 15 40 15 48.17 18.83 52 15.83 55 18.83 58 15.83 61 18.86 64.04 22 60.28 22 33 26 33 26 61.72 19.14 69.96"/><path class="cls-3" d="M1260,131a7,7,0,1,1,7-7A7,7,0,0,1,1260,131Zm0-10a3,3,0,1,0,3,3A3,3,0,0,0,1260,121Z" transform="translate(-1242 -109)"/><path class="cls-2" d="M1299,147v-8h-19v-4h19a4,4,0,0,1,4,4v4A4,4,0,0,1,1299,147Z" transform="translate(-1242 -109)"/></svg>