<svg id="SvgjsSvg1000" xmlns="http://www.w3.org/2000/svg" version="1.1" xmlns:xlink="http://www.w3.org/1999/xlink" xmlns:svgjs="http://svgjs.com/svgjs" width="12" height="12" viewBox="0 0 12 12"><title>plus</title><desc>Created with Avocode.</desc><defs id="SvgjsDefs1001"></defs><path id="SvgjsPath1007" d="M312 619L308 619L308 615C308 614.45 307.55 614 307 614C306.45 614 306 614.45 306 615L306 619L302 619C301.45 619 301 619.45 301 620C301 620.55 301.45 621 302 621L306 621L306 625C306 625.55 306.45 626 307 626C307.55 626 308 625.55 308 625L308 621L312 621C312.55 621 313 620.55 313 620C313 619.45 312.55 619 312 619Z " fill="#222226" fill-opacity="1" transform="matrix(1,0,0,1,-301,-614)"></path></svg>