<svg xmlns="http://www.w3.org/2000/svg" xmlns:xlink="http://www.w3.org/1999/xlink" viewBox="0 0 72 72"><defs><clipPath id="a"><path d="M283-567h6.66a1.5,1.5,0,0,1,1.5,1.5,1.5,1.5,0,0,1-1.5,1.5H283Zm6.37,7a5.5,5.5,0,0,0,5.5-5.5,5.5,5.5,0,0,0-5.5-5.5h-8.71a1.72,1.72,0,0,0-1.29.62A1.72,1.72,0,0,0,279-569v5h-.9a2,2,0,0,0-2,2,2,2,0,0,0,2,2h.9v1h-.9a2,2,0,0,0-2,2,2,2,0,0,0,2,2h.9v2a2,2,0,0,0,2,2,2,2,0,0,0,2-2v-2h6.37a2,2,0,0,0,2-2,2,2,0,0,0-2-2H283v-1Z" fill="none" clip-rule="evenodd"/></clipPath><clipPath id="b"><path d="M239-601.92c1.32,2.14,5.84,3.75,8.54,3.75.52,0,2.35-.15,2.35-1.33,0-2-4.73-3.25-6.31-4-1.07-.5-4.58-1.44-4.58-5.4,0-1.53,1.67-4.89,6-5.1v-3h4v3a12.43,12.43,0,0,1,6,2l-1,4a35.69,35.69,0,0,0-4.11-1.34c-.75-.28-5.89-1.58-5.89.44,0,1.67,3.92,2.74,4.81,3.09s3.65,1.53,4.84,3A4.78,4.78,0,0,1,255-599.5c0,4.13-2.84,5.3-6.06,5.72L249-591h-4v-3a15.22,15.22,0,0,1-6-2.92Z" fill="none" clip-rule="evenodd"/></clipPath><clipPath id="c"><path d="M267-551a31,31,0,0,1-30.79-27.4l-2.1,2.07a2,2,0,0,1-2.77-.56,2,2,0,0,1,.55-2.77l5-4A2,2,0,0,1,238-584h.36a1.41,1.41,0,0,1,.68.27l5.09,4.06a2,2,0,0,1,.89,1.79,2,2,0,0,1-1.11,1.66,2,2,0,0,1-2-.13l-1.61-1.74A27,27,0,0,0,267-555a2,2,0,0,1,2,2A2,2,0,0,1,267-551Z" fill="none" clip-rule="evenodd"/></clipPath><clipPath id="d"><path d="M293.64-580a1.41,1.41,0,0,1-.68-.27l-5.09-4.06a2,2,0,0,1-.56-2.77,2,2,0,0,1,2.78-.56l1.61,1.74A27,27,0,0,0,265-609a2,2,0,0,1-2-2,2,2,0,0,1,2-2,31,31,0,0,1,30.79,27.4l2.1-2.07a2,2,0,0,1,2-.13,2,2,0,0,1,1.11,1.67,2,2,0,0,1-.89,1.79l-5,4a2,2,0,0,1-1.1.34Z" fill="none" clip-rule="evenodd"/></clipPath><clipPath id="e"><path d="M373,370.08c1.32,2.14,5.84,3.75,8.54,3.75.52,0,2.35-.15,2.35-1.33,0-2-4.73-3.25-6.31-4-1.07-.5-4.58-1.44-4.58-5.4,0-1.53,1.67-4.89,6-5.1v-3h4v3a12.43,12.43,0,0,1,6,2l-1,4a35.69,35.69,0,0,0-4.11-1.34c-.75-.28-5.89-1.58-5.89.44,0,1.67,3.92,2.74,4.81,3.09s3.65,1.53,4.84,3A4.78,4.78,0,0,1,389,372.5c0,4.13-2.84,5.3-6.06,5.72L383,381h-4v-3a15.22,15.22,0,0,1-6-2.92Z" fill="none" clip-rule="evenodd"/></clipPath><clipPath id="f"><path d="M-201.44,228.44a1.41,1.41,0,0,1-.29-.67l-.73-6.47a2,2,0,0,1,1.57-2.35,2,2,0,0,1,2.35,1.57l-.09,2.37a27,27,0,0,0-2.56-35.2,2,2,0,0,1,0-2.83,2,2,0,0,1,2.83,0A31,31,0,0,1-196,226l2.95,0a2,2,0,0,1,1.5,1.32,2,2,0,0,1-.39,2,2,2,0,0,1-1.9.64l-6.36-.71a2,2,0,0,1-1-.54Z" fill="none" clip-rule="evenodd"/></clipPath><clipPath id="g"><path d="M-248.33,185.56a1.41,1.41,0,0,1,.29.67l.73,6.47a2,2,0,0,1-1.57,2.35,2,2,0,0,1-2.35-1.57l.09-2.37a27,27,0,0,0,2.56,35.2,2,2,0,0,1,0,2.83,2,2,0,0,1-2.83,0,31,31,0,0,1-2.4-41.15l-2.95,0a2,2,0,0,1-1.5-1.32,2,2,0,0,1,.39-2,2,2,0,0,1,1.9-.64l6.36.71a2,2,0,0,1,1,.54Z" fill="none" clip-rule="evenodd"/></clipPath><clipPath id="h"><path d="M-127-193h6.66a1.5,1.5,0,0,1,1.5,1.5,1.5,1.5,0,0,1-1.5,1.5H-127Zm6.37,7a5.5,5.5,0,0,0,5.5-5.5,5.5,5.5,0,0,0-5.5-5.5h-8.71a1.72,1.72,0,0,0-1.29.62A1.72,1.72,0,0,0-131-195v5h-.9a2,2,0,0,0-2,2,2,2,0,0,0,2,2h.9v1h-.9a2,2,0,0,0-2,2,2,2,0,0,0,2,2h.9v2a2,2,0,0,0,2,2,2,2,0,0,0,2-2v-2h6.37a2,2,0,0,0,2-2,2,2,0,0,0-2-2H-127v-1Z" fill="none" clip-rule="evenodd"/></clipPath><clipPath id="i"><path d="M-105.36-178a25.36,25.36,0,0,0,25.19-22.42l1.72,1.69a1.64,1.64,0,0,0,2.27-.45,1.64,1.64,0,0,0-.45-2.27l-4.09-3.27a1.64,1.64,0,0,0-.91-.28h-.29a1.15,1.15,0,0,0-.56.22l-4.16,3.32a1.64,1.64,0,0,0-.73,1.47,1.64,1.64,0,0,0,.91,1.36,1.64,1.64,0,0,0,1.63-.11l1.32-1.42a22.09,22.09,0,0,1-21.85,18.88,1.64,1.64,0,0,0-1.64,1.64A1.64,1.64,0,0,0-105.36-178Z" fill="none" clip-rule="evenodd"/></clipPath><clipPath id="j"><path d="M57.56,52.44a1.41,1.41,0,0,1-.29-.67l-.73-6.47a2,2,0,1,1,3.92-.78l-.09,2.37a27,27,0,0,0-2.56-35.2,2,2,0,0,1,2.83-2.83A31,31,0,0,1,63,50L66,50a2,2,0,1,1-.78,3.92l-6.36-.71a2,2,0,0,1-1-.54Z" fill="none" clip-rule="evenodd"/></clipPath><clipPath id="k"><rect x="-1735.68" y="-1053.74" width="2841" height="1440" transform="translate(143.68 -320.62) rotate(-45)" fill="none"/></clipPath><clipPath id="l"><path d="M14.67,9.56a1.41,1.41,0,0,1,.29.67l.73,6.47a2,2,0,1,1-3.92.78l.09-2.37a27,27,0,0,0,2.56,35.2,2,2,0,0,1-2.83,2.83A31,31,0,0,1,9.19,12L6.24,12A2,2,0,1,1,7,8.05l6.36.71a2,2,0,0,1,1,.54Z" fill="none" clip-rule="evenodd"/></clipPath><clipPath id="m"><rect x="-1033.09" y="-324.26" width="2841" height="1440" transform="translate(-166.36 389.85) rotate(-45)" fill="none"/></clipPath><clipPath id="n"><path d="M-354.36,71a25.36,25.36,0,0,0,25.19-22.42l1.72,1.69a1.64,1.64,0,0,0,2.27-.45,1.64,1.64,0,0,0-.45-2.27l-4.09-3.27a1.64,1.64,0,0,0-.91-.28h-.29a1.15,1.15,0,0,0-.56.22l-4.16,3.32a1.64,1.64,0,0,0-.73,1.47,1.64,1.64,0,0,0,.91,1.36,1.64,1.64,0,0,0,1.63-.11l1.32-1.42a22.09,22.09,0,0,1-21.85,18.88A1.64,1.64,0,0,0-356,69.36,1.64,1.64,0,0,0-354.36,71Z" fill="none" clip-rule="evenodd"/></clipPath></defs><title>icons</title><g clip-path="url(#j)"><g clip-path="url(#k)"><rect x="39.5" y="8.54" width="43" height="48" transform="translate(-5.14 52.67) rotate(-45)" fill="#b31b2c"/></g></g><g clip-path="url(#l)"><g clip-path="url(#m)"><rect x="-10.27" y="5.46" width="43" height="48" transform="translate(-17.54 16.57) rotate(-45)" fill="#b31b2c"/></g></g><path d="M28,20.08v-5c.63,1.5,4.12,2.52,5,2.92a11.82,11.82,0,0,0,3.54.83A2.79,2.79,0,0,0,38,18.45a1.32,1.32,0,0,0,.62-1.22q0-.59-.94-1.13A18.34,18.34,0,0,0,35.42,15c-.9-.36-1.74-.89-2.67-1.27C28.92,12.17,28,10.12,28,9c0-1.53,1.67-5.79,6-6V0h4V3a12.43,12.43,0,0,1,6,2L43,9c-1.33-.54-2.83-1-4.11-1.34a8.3,8.3,0,0,0-2.32-.5C36,7.15,33.75,7.17,34,9c.18,1.29,2.76,1.6,3.65,1.95s3.81,1.76,5,3.18A4.77,4.77,0,0,1,44,17a7,7,0,0,1-6.06,6.22L38,26H34V23A15.22,15.22,0,0,1,28,20.08Z" fill="#cca266"/><path d="M60.11,72H38.89a1,1,0,0,1-.95-1.32L41,61.37A2,2,0,0,1,42.94,60H56.06A2,2,0,0,1,58,61.37l3.11,9.32A1,1,0,0,1,60.11,72Z" fill="#cca266"/><path d="M33.11,72H11.89a1,1,0,0,1-.95-1.32L14,61.37A2,2,0,0,1,15.94,60H29.06A2,2,0,0,1,31,61.37l3.11,9.32A1,1,0,0,1,33.11,72Z" fill="#cca266"/><path d="M46.11,58H24.89a1,1,0,0,1-.95-1.32L27,47.37A2,2,0,0,1,28.94,46H42.06A2,2,0,0,1,44,47.37l3.11,9.32A1,1,0,0,1,46.11,58Z" fill="#cca266"/></svg>