<svg id="SvgjsSvg1026" xmlns="http://www.w3.org/2000/svg" version="1.1" xmlns:xlink="http://www.w3.org/1999/xlink" xmlns:svgjs="http://svgjs.com/svgjs" width="19" height="10" viewBox="0 0 19 10"><title>rightarrow</title><desc>Created with Avocode.</desc><defs id="SvgjsDefs1027"></defs><path id="SvgjsPath1028" d="M1275.72 2884.67C1275.9 2884.5 1276 2884.25 1276 2884C1276 2883.74 1275.9 2883.5 1275.72 2883.32L1271.63 2879.28C1271.2600000000002 2878.9100000000003 1270.65 2878.9100000000003 1270.2700000000002 2879.28C1270.0900000000001 2879.46 1269.9900000000002 2879.7000000000003 1269.9900000000002 2879.96C1269.9900000000002 2880.21 1270.0900000000001 2880.45 1270.2700000000002 2880.63L1272.6600000000003 2883L1257.9900000000002 2883C1257.4400000000003 2883 1257.0000000000002 2883.45 1257.0000000000002 2884C1257.0000000000002 2884.55 1257.4400000000003 2885 1257.9900000000002 2885L1272.6700000000003 2885L1270.2700000000002 2887.37C1270.0900000000001 2887.5499999999997 1269.9900000000002 2887.7999999999997 1269.9900000000002 2888.0499999999997C1269.9900000000002 2888.2999999999997 1270.0900000000001 2888.5499999999997 1270.2700000000002 2888.7299999999996C1270.6500000000003 2889.0899999999997 1271.2500000000002 2889.0899999999997 1271.63 2888.7299999999996Z " fill="#cca266" fill-opacity="1" transform="matrix(1,0,0,1,-1257,-2879)"></path></svg>