<svg id="SvgjsSvg1023" xmlns="http://www.w3.org/2000/svg" version="1.1" xmlns:xlink="http://www.w3.org/1999/xlink" xmlns:svgjs="http://svgjs.com/svgjs" width="19" height="10" viewBox="0 0 19 10"><title>rightarrow</title><desc>Created with Avocode.</desc><defs id="SvgjsDefs1024"></defs><path id="SvgjsPath1025" d="M875.72 2884.67C875.9 2884.5 876 2884.25 876 2884C876 2883.74 875.9 2883.5 875.72 2883.32L871.63 2879.28C871.26 2878.9100000000003 870.65 2878.9100000000003 870.27 2879.28C870.09 2879.46 869.99 2879.7000000000003 869.99 2879.96C869.99 2880.21 870.09 2880.45 870.27 2880.63L872.66 2883L857.99 2883C857.44 2883 857 2883.45 857 2884C857 2884.55 857.44 2885 857.99 2885L872.67 2885L870.27 2887.37C870.09 2887.5499999999997 869.99 2887.7999999999997 869.99 2888.0499999999997C869.99 2888.2999999999997 870.09 2888.5499999999997 870.27 2888.7299999999996C870.65 2889.0899999999997 871.25 2889.0899999999997 871.63 2888.7299999999996Z " fill="#acb6bf" fill-opacity="1" transform="matrix(1,0,0,1,-857,-2879)"></path></svg>