<svg id="SvgjsSvg1000" xmlns="http://www.w3.org/2000/svg" version="1.1" xmlns:xlink="http://www.w3.org/1999/xlink" xmlns:svgjs="http://svgjs.com/svgjs" width="10" height="10" viewBox="0 0 10 10"><title>arrow</title><desc>Created with Avocode.</desc><defs id="SvgjsDefs1001"></defs><path id="SvgjsPath1007" d="M622 2253C622.919 2253 623.447 2252.67 623.999 2252.05C624.4830000000001 2251.51 625 2250.78 625 2250C625 2248.51 623.97 2247 622 2247L617 2247L617 2252L615 2252L615 2253L617 2253L617 2254L615 2254L615 2255L617 2255L617 2257L618 2257L618 2255L623 2255L623 2254L618 2254L618 2253ZM618 2248L622 2248C623.382 2248 624 2249 624 2250C624 2250.53 623.573 2251.03 623.251 2251.39C622.895 2251.79 622.626 2252 622 2252L618 2252Z " fill="#191919" fill-opacity="1" transform="matrix(1,0,0,1,-615,-2247)"></path></svg>