<svg id="SvgjsSvg1008" xmlns="http://www.w3.org/2000/svg" version="1.1" xmlns:xlink="http://www.w3.org/1999/xlink" xmlns:svgjs="http://svgjs.com/svgjs" width="21" height="20" viewBox="0 0 21 20"><title>Shape 65</title><desc>Created with Avocode.</desc><defs id="SvgjsDefs1009"></defs><path id="SvgjsPath1010" d="M1304.6 148.293L1299.23 142.898C1300.28 141.542 1300.91 139.846 1300.91 138C1300.91 133.589 1297.3400000000001 130 1292.95 130C1288.55 130 1284.98 133.589 1284.98 138C1284.98 142.411 1288.55 146 1292.95 146C1294.78 146 1296.47 145.366 1297.82 144.312L1303.1899999999998 149.70700000000002C1303.3899999999999 149.90200000000002 1303.6399999999999 150.00000000000003 1303.8999999999999 150.00000000000003C1304.1499999999999 150.00000000000003 1304.4099999999999 149.90200000000002 1304.6 149.70700000000002C1304.99 149.31600000000003 1304.99 148.68400000000003 1304.6 148.29300000000003ZM1286.97 138C1286.97 134.692 1289.65 132 1292.95 132C1296.24 132 1298.92 134.692 1298.92 138C1298.92 141.309 1296.24 144 1292.95 144C1289.65 144 1286.97 141.309 1286.97 138Z " fill="#191919" fill-opacity="1" transform="matrix(1,0,0,1,-1284,-130)"></path></svg>