<svg id="SvgjsSvg1000" xmlns="http://www.w3.org/2000/svg" version="1.1" xmlns:xlink="http://www.w3.org/1999/xlink" xmlns:svgjs="http://svgjs.com/svgjs" width="20" height="20" viewBox="0 0 20 20"><title>Shape 63</title><desc>Created with Avocode.</desc><defs id="SvgjsDefs1001"></defs><path id="SvgjsPath1007" d="M468.678 1343.29L463.55899999999997 1337.8999999999999C464.55899999999997 1336.54 465.16099999999994 1334.85 465.16099999999994 1332.9999999999998C465.16099999999994 1328.5899999999997 461.756 1324.9999999999998 457.57099999999997 1324.9999999999998C453.38599999999997 1324.9999999999998 449.981 1328.5899999999997 449.981 1332.9999999999998C449.981 1337.4099999999999 453.38599999999997 1340.9999999999998 457.57099999999997 1340.9999999999998C459.32199999999995 1340.9999999999998 460.93199999999996 1340.3699999999997 462.21799999999996 1339.3099999999997L467.337 1344.7099999999998C467.522 1344.8999999999999 467.765 1344.9999999999998 468.008 1344.9999999999998C468.25 1344.9999999999998 468.493 1344.8999999999999 468.678 1344.7099999999998C469.049 1344.3199999999997 469.049 1343.6799999999998 468.678 1343.2899999999997ZM451.879 1333C451.879 1329.69 454.432 1327 457.571 1327C460.71000000000004 1327 463.264 1329.69 463.264 1333C463.264 1336.31 460.71000000000004 1339 457.571 1339C454.432 1339 451.879 1336.31 451.879 1333Z " fill="#bf914d" fill-opacity="1" transform="matrix(1,0,0,1,-449,-1325)"></path></svg>