<svg id="SvgjsSvg1008" xmlns="http://www.w3.org/2000/svg" version="1.1" xmlns:xlink="http://www.w3.org/1999/xlink" xmlns:svgjs="http://svgjs.com/svgjs" width="21" height="20" viewBox="0 0 21 20"><title>search</title><desc>Created with Avocode.</desc><defs id="SvgjsDefs1009"></defs><path id="SvgjsPath1010" d="M740.602 138.293L735.23 132.898C736.279 131.543 736.9110000000001 129.846 736.9110000000001 128C736.9110000000001 123.589 733.3380000000001 120 728.946 120C724.5550000000001 120 720.982 123.589 720.982 128C720.982 132.411 724.555 136 728.946 136C730.784 136 732.4730000000001 135.366 733.822 134.312L739.194 139.70700000000002C739.3879999999999 139.90200000000002 739.6429999999999 140.00000000000003 739.8979999999999 140.00000000000003C740.1519999999999 140.00000000000003 740.4069999999999 139.90200000000002 740.6019999999999 139.70700000000002C740.9909999999999 139.31600000000003 740.9909999999999 138.68400000000003 740.6019999999999 138.29300000000003ZM722.973 128C722.973 124.69200000000001 725.6519999999999 122 728.9459999999999 122C732.2399999999999 122 734.92 124.69200000000001 734.92 128C734.92 131.309 732.24 134 728.9459999999999 134C725.6519999999999 134 722.973 131.309 722.973 128Z " fill="#b11e30" fill-opacity="1" transform="matrix(1,0,0,1,-720,-120)"></path></svg>