<svg id="SvgjsSvg1014" xmlns="http://www.w3.org/2000/svg" version="1.1" xmlns:xlink="http://www.w3.org/1999/xlink" xmlns:svgjs="http://svgjs.com/svgjs" width="16" height="16" viewBox="0 0 16 16"><title>Combined Shape</title><desc>Created with Avocode.</desc><defs id="SvgjsDefs1015"></defs><path id="SvgjsPath1016" d="M706 234L696 234C695.45 234 695 234.45 695 235C695 235.55 695.45 236 696 236L706 236L706 237L708 237L708 233L706 233ZM702 230L702 231L704 231L704 227L702 227L702 228L696 228C695.45 228 695 228.45 695 229C695 229.55 695.45 230 696 230ZM710 222L701 222L701 224L710 224C710.55 224 711 223.55 711 223C711 222.45 710.55 222 710 222ZM698 224L698 225L700 225L700 221L698 221L698 222L696 222C695.45 222 695 222.45 695 223C695 223.55 695.45 224 696 224ZM705 228L705 230L710 230C710.55 230 711 229.55 711 229C711 228.45 710.55 228 710 228ZM709 234L709 236L710 236C710.55 236 711 235.55 711 235C711 234.45 710.55 234 710 234Z " fill="#aaaeb2" fill-opacity="1" transform="matrix(1,0,0,1,-695,-221)"></path></svg>