<?xml version="1.0" encoding="utf-8"?>
<!-- Generator: Adobe Illustrator 17.0.1, SVG Export Plug-In . SVG Version: 6.00 Build 0)  -->
<!DOCTYPE svg PUBLIC "-//W3C//DTD SVG 1.1//EN" "http://www.w3.org/Graphics/SVG/1.1/DTD/svg11.dtd">
<svg version="1.1" id="SvgjsSvg1014" xmlns:svgjs="http://svgjs.com/svgjs"
	 xmlns="http://www.w3.org/2000/svg" xmlns:xlink="http://www.w3.org/1999/xlink" x="0px" y="0px" width="16px" height="16px"
	 viewBox="0 0 16 16" enable-background="new 0 0 16 16" xml:space="preserve">
<title>Combined Shape</title>
<desc>Created with Avocode.</desc>
<path id="SvgjsPath1016" fill="#B31B2C" d="M11,13H1c-0.55,0-1,0.45-1,1s0.45,1,1,1h10v1h2v-4h-2V13z M7,9v1h2V6H7v1H1
	C0.45,7,0,7.45,0,8s0.45,1,1,1H7z M15,1H6v2h9c0.55,0,1-0.45,1-1S15.55,1,15,1z M3,3v1h2V0H3v1H1C0.45,1,0,1.45,0,2s0.45,1,1,1H3z
	 M10,7v2h5c0.55,0,1-0.45,1-1s-0.45-1-1-1H10z M14,13v2h1c0.55,0,1-0.45,1-1s-0.45-1-1-1H14z"/>
</svg>
