<svg id="SvgjsSvg1000" xmlns="http://www.w3.org/2000/svg" version="1.1" xmlns:xlink="http://www.w3.org/1999/xlink" xmlns:svgjs="http://svgjs.com/svgjs" width="504" height="41" viewBox="0 0 504 41"><title>Shape 67</title><desc>Created with Avocode.</desc><defs id="SvgjsDefs1001"></defs><path id="SvgjsPath1007" d="M545 34.9999L529 74.9998L534.637 74.9998L539 64.00009999999999L556 64.00009999999999L560.5 74.9998L566 74.9998L550 34.9999ZM627.532 58.21C626.6740000000001 56.9409 625.8910000000001 55.9761 625.1800000000001 55.3225C624.466 54.669 623.6270000000001 54.192 622.6560000000001 53.891799999999996C625.0630000000001 53.020599999999995 626.845 51.0404 628.1880000000001 48.2617L630.488 43.3664C630.4920000000001 43.360099999999996 630.4920000000001 43.3533 630.495 43.349L634.408 34.9999L629.349 34.9999L625.861 42.3677L624.096 46.096199999999996C623.123 48.1913 621.7090000000001 49.8099 620.327 50.6979C618.968 51.571 617.487 51.9999 615.689 51.9999L613 51.9999L613.01 34.9999L607.851 34.9999L608 74.9998L613.01 74.9998L613 57.00019999999999L616.42 57.00019999999999C617.2779999999999 57.00019999999999 620.375 57.093799999999995 621.87 58.91069999999999C622.352 59.49539999999999 622.897 60.23069999999999 623.495 61.12509999999999L632.839 74.9998L639 74.9998ZM596 51.9999L575 51.9999L575 34.9999L570 34.9999L570 74.9998L575 74.9998L575 57.00019999999999L596 57.00019999999999L596 74.9998L601 74.9998L601 34.9999L596 34.9999ZM485.076 34.9999L475.935 34.9999L471 50.000099999999996L468.965 50.000099999999996L464 34.9999L455 34.9999L462 55.000099999999996L455 74.9998L464 74.9998L469 58.99979999999999L471 58.99979999999999L476 74.9998L485 74.9998L478 55.00009999999999ZM426 34.9999L422 74.9998L430.983 74.9998L432 64.99969999999999L441 64.99969999999999L442.126 74.9998L451 74.9998L447 34.9999ZM135 74.9998L144 74.9998L144 63.00009999999999L162 63.00009999999999L162 34.99989999999999L135 34.99989999999999ZM360 44.0001L369 44.0001L369 74.99980000000001L378 74.99980000000001L378 44.0001L387 44.0001L386.909 34.999900000000004L360 34.999900000000004ZM329 74.9998L356 74.9998L356 61.99969999999999L347 61.99969999999999L347 66.00009999999999L338 66.00009999999999L338 43.00019999999999L347 43.00019999999999L347 47.00009999999999L356 47.00009999999999L356 34.99989999999999L329 34.99989999999999ZM201 74.9998L228 74.9998L228 61.99969999999999L219 61.99969999999999L219 66.00009999999999L210 66.00009999999999L210 43.00019999999999L219 43.00019999999999L219 47.00009999999999L228 47.00009999999999L228 34.99989999999999L201 34.99989999999999ZM168 74.9998L195 74.9998L195 34.9999L168 34.9999ZM296 74.9998L323 74.9998L323 61.99969999999999L314 61.99969999999999L314 66.00009999999999L305 66.00009999999999L305 43.00019999999999L314 43.00019999999999L314 47.00009999999999L323 47.00009999999999L323 34.99989999999999L296 34.99989999999999ZM391 74.9998L400 74.9998L400 63.00009999999999L418 63.00009999999999L418 34.99989999999999L391 34.99989999999999ZM263 74.9998L290 74.9998L290 34.9999L263 34.9999ZM234 74.9998L243 74.9998L243 44.00009999999999L257 44.00009999999999L257 34.99989999999999L234 34.99989999999999ZM516 51.9999L516 57.0002C519.833 57.0002 522.231 59.9346 522.231 63.5952C522.231 65.64359999999999 521.569 67.1534 520.27 68.2692C518.643 69.66159999999999 516.481 69.9957 513 70C509.58 70.0044 509.004 70 509 70L499 70L499 74.9998L513 74.9998C515.664 74.9998 518.665 74.50179999999999 520.875 73.5585C522.664 72.7939 524.135 71.67819999999999 525.261 70.3026C527.497 67.5706 527.67 64.7022 527.67 63.8467C527.67 54.166799999999995 519.833 51.9999 516 51.9999C512.167 51.9999 516 51.9999 516 51.9999ZM541 58.9998L547.356 41.0001L554 58.99980000000001ZM177 44.0001L186 44.0001L186 66.0001L177 66.0001ZM272 44.0001L281 44.0001L281 66.0001L272 66.0001ZM524 34.9999L499 34.9999L499 39.9999L524 39.9999ZM144 44.0001L153 44.0001L153 53.999900000000004L144 53.999900000000004ZM400 44.0001L409 44.0001L409 53.999900000000004L400 53.999900000000004ZM433 56L434 44.0001L439 44.0001L440 56Z " fill="#b31b2c" fill-opacity="1" transform="matrix(1,0,0,1,-135,-34)"></path><path id="SvgjsPath1008" d="M513 51.9999L504 51.9999L504 43.00019999999999L499 43.00019999999999L499 51.9999L490 51.9999L490 57.0002L499 57.0002L499 66.0001L504 66.0001L504 57.00020000000001L513 57.00020000000001Z " fill="#cca266" fill-opacity="1" transform="matrix(1,0,0,1,-135,-34)"></path></svg>