<svg id="SvgjsSvg1023" xmlns="http://www.w3.org/2000/svg" version="1.1" xmlns:xlink="http://www.w3.org/1999/xlink" xmlns:svgjs="http://svgjs.com/svgjs" width="252" height="20" viewBox="0 0 252 20"><title>Shape 67</title><desc>Created with Avocode.</desc><defs id="SvgjsDefs1024"></defs><path id="SvgjsPath1025" d="M342 3687L334 3707L336.818 3707L339 3701.5L347.5 3701.5L349.75 3707L352.5 3707L344.5 3687ZM383.266 3698.61C382.83700000000005 3697.9700000000003 382.445 3697.4900000000002 382.09000000000003 3697.1600000000003C381.733 3696.8300000000004 381.314 3696.6000000000004 380.82800000000003 3696.4500000000003C382.031 3696.01 382.922 3695.0200000000004 383.59400000000005 3693.63L384.744 3691.1800000000003C384.74600000000004 3691.1800000000003 384.74600000000004 3691.1800000000003 384.747 3691.17L386.704 3687L384.17400000000004 3687L382.43 3690.68L381.548 3692.5499999999997C381.061 3693.6 380.354 3694.41 379.663 3694.85C378.98400000000004 3695.29 378.243 3695.5 377.345 3695.5L376 3695.5L376.005 3687L373.425 3687L373.5 3707L376.005 3707L376 3698L377.71 3698C378.13899999999995 3698 379.688 3698.05 380.435 3698.96C380.676 3699.25 380.948 3699.62 381.248 3700.06L385.919 3707L389 3707ZM367.5 3695.5L357 3695.5L357 3687L354.5 3687L354.5 3707L357 3707L357 3698L367.5 3698L367.5 3707L370 3707L370 3687L367.5 3687ZM312.038 3687L307.467 3687L305 3694.5L303.983 3694.5L301.5 3687L297 3687L300.5 3697L297 3707L301.5 3707L304 3699L305 3699L307.5 3707L312 3707L308.5 3697ZM282.5 3687L280.5 3707L284.991 3707L285.5 3702L290 3702L290.563 3707L295 3707L293 3687ZM137 3707L141.5 3707L141.5 3701L150.5 3701L150.5 3687L137 3687ZM249.5 3691.5L254 3691.5L254 3707L258.5 3707L258.5 3691.5L263 3691.5L262.955 3687L249.49999999999997 3687ZM234 3707L247.5 3707L247.5 3700.5L243 3700.5L243 3702.5L238.5 3702.5L238.5 3691L243 3691L243 3693L247.5 3693L247.5 3687L234 3687ZM170 3707L183.5 3707L183.5 3700.5L179 3700.5L179 3702.5L174.5 3702.5L174.5 3691L179 3691L179 3693L183.5 3693L183.5 3687L170 3687ZM153.5 3707L167 3707L167 3687L153.5 3687ZM217.5 3707L231 3707L231 3700.5L226.5 3700.5L226.5 3702.5L222 3702.5L222 3691L226.5 3691L226.5 3693L231 3693L231 3687L217.5 3687ZM265 3707L269.5 3707L269.5 3701L278.5 3701L278.5 3687L265 3687ZM201 3707L214.5 3707L214.5 3687L201 3687ZM186.5 3707L191 3707L191 3691.5L198 3691.5L198 3687L186.5 3687ZM327.5 3695.5L327.5 3698C329.417 3698 330.616 3699.47 330.616 3701.3C330.616 3702.32 330.284 3703.0800000000004 329.635 3703.63C328.822 3704.33 327.741 3704.5 326 3704.5C324.29 3704.5 324.002 3704.5 324 3704.5L319 3704.5L319 3707L326 3707C327.332 3707 328.832 3706.75 329.937 3706.28C330.832 3705.9 331.567 3705.34 332.13100000000003 3704.65C333.249 3703.29 333.33500000000004 3701.85 333.33500000000004 3701.42C333.33500000000004 3696.58 329.41700000000003 3695.5 327.50000000000006 3695.5C325.5830000000001 3695.5 327.50000000000006 3695.5 327.50000000000006 3695.5ZM340 3699L343.178 3690L346.5 3699ZM158 3691.5L162.5 3691.5L162.5 3702.5L158 3702.5ZM205.5 3691.5L210 3691.5L210 3702.5L205.5 3702.5ZM331.5 3687L319 3687L319 3689.5L331.5 3689.5ZM141.5 3691.5L146 3691.5L146 3696.5L141.5 3696.5ZM269.5 3691.5L274 3691.5L274 3696.5L269.5 3696.5ZM286 3697.5L286.5 3691.5L289 3691.5L289.5 3697.5Z " fill="#b31b2c" fill-opacity="1" transform="matrix(1,0,0,1,-137,-3687)"></path><path id="SvgjsPath1026" d="M327 3695.5L322.5 3695.5L322.5 3691L320 3691L320 3695.5L315.5 3695.5L315.5 3698L320 3698L320 3702.5L322.5 3702.5L322.5 3698L327 3698Z " fill="#cca266" fill-opacity="1" transform="matrix(1,0,0,1,-137,-3687)"></path></svg>