<svg id="SvgjsSvg1010" xmlns="http://www.w3.org/2000/svg" version="1.1" xmlns:xlink="http://www.w3.org/1999/xlink" xmlns:svgjs="http://svgjs.com/svgjs" width="69" height="69" viewBox="0 0 69 69"><title>Fill 1</title><desc>Created with Avocode.</desc><defs id="SvgjsDefs1011"></defs><path id="SvgjsPath1012" d="M1215 1401L1196 1401L1196 1432L1215 1432L1215 1451L1228 1451L1228 1447L1219 1447L1219 1428L1200 1428L1200 1405L1219 1405L1219 1386L1242 1386L1242 1405L1261 1405L1261 1414L1265 1414L1265 1401L1246 1401L1246 1382L1215 1382Z " fill="#cca266" fill-opacity="1" transform="matrix(1,0,0,1,-1196,-1382)"></path><path id="SvgjsPath1013" d="M1230 1424C1230 1428.42 1233.58 1432 1238 1432C1242.42 1432 1246 1428.42 1246 1424C1246 1419.58 1242.42 1416 1238 1416C1233.58 1416 1230 1419.58 1230 1424ZM1242 1424C1242 1426.21 1240.21 1428 1238 1428C1235.79 1428 1234 1426.21 1234 1424C1234 1421.79 1235.79 1420 1238 1420C1240.21 1420 1242 1421.79 1242 1424Z " fill="#b31b2c" fill-opacity="1" transform="matrix(1,0,0,1,-1196,-1382)"></path><path id="SvgjsPath1014" d="M1249 1443C1249 1447.42 1252.58 1451 1257 1451C1261.42 1451 1265 1447.42 1265 1443C1265 1438.58 1261.42 1435 1257 1435C1252.58 1435 1249 1438.58 1249 1443ZM1261 1443C1261 1445.21 1259.21 1447 1257 1447C1254.79 1447 1253 1445.21 1253 1443C1253 1440.79 1254.79 1439 1257 1439C1259.21 1439 1261 1440.79 1261 1443Z " fill="#b31b2c" fill-opacity="1" transform="matrix(1,0,0,1,-1196,-1382)"></path><path id="SvgjsPath1015" d="M1234 1449C1233.49 1449 1232.98 1448.8 1232.59 1448.41C1231.8 1447.63 1231.8 1446.3700000000001 1232.59 1445.5900000000001L1259.59 1418.5900000000001C1260.37 1417.8000000000002 1261.6299999999999 1417.8000000000002 1262.4099999999999 1418.5900000000001C1263.1899999999998 1419.3700000000001 1263.1899999999998 1420.63 1262.4099999999999 1421.41L1235.4099999999999 1448.41C1235.0199999999998 1448.8000000000002 1234.5099999999998 1449 1233.9999999999998 1449 " fill="#b31b2c" fill-opacity="1" transform="matrix(1,0,0,1,-1196,-1382)"></path></svg>