<svg id="SvgjsSvg1014" xmlns="http://www.w3.org/2000/svg" version="1.1" xmlns:xlink="http://www.w3.org/1999/xlink" xmlns:svgjs="http://svgjs.com/svgjs" width="58" height="58" viewBox="0 0 58 58"><title>moneygram logo</title><desc>Created with Avocode.</desc><defs id="SvgjsDefs1015"></defs><path id="SvgjsPath1016" d="M841 1248C841 1231.98374 853.98374 1219 870 1219C886.01626 1219 899 1231.98374 899 1248C899 1264.01626 886.01626 1277 870 1277C853.98374 1277 841 1264.01626 841 1248ZM847.93 1238.64C847.93 1238.64 846.1099999999999 1240.66 845.1999999999999 1242.8600000000001C844.29 1245.0500000000002 844.39 1246.19 844.52 1247.46C844.65 1248.73 844.8199999999999 1250.53 846.65 1252.82C848.47 1255.11 850.43 1256.07 852.17 1257.03C853.92 1257.99 857.99 1258.8799999999999 857.99 1258.8799999999999L858.6800000000001 1259.05C858.6800000000001 1259.05 860.9200000000001 1263.84 862.96 1266.07C865 1268.31 866.7900000000001 1270.01 870.76 1271.9399999999998C874.74 1273.87 868.4 1269.86 865.35 1265.7399999999998C862.3000000000001 1261.6299999999999 861.74 1259.0699999999997 861.74 1259.0699999999997C861.74 1259.0699999999997 865.54 1258.8799999999997 870.02 1257.8299999999997C874.5 1256.7799999999997 880.46 1253.1499999999996 880.46 1253.1499999999996C880.46 1253.1499999999996 880.46 1253.3499999999997 880.22 1254.1499999999996C879.99 1254.9399999999996 879.88 1255.2699999999995 879.88 1255.2699999999995C879.88 1255.2699999999995 881.32 1254.1299999999994 881.75 1253.3499999999995C882.18 1252.5699999999995 882.43 1251.3699999999994 882.43 1251.3699999999994C882.43 1251.3699999999994 884.5999999999999 1249.6599999999994 885.8599999999999 1247.7899999999995C887.1199999999999 1245.9299999999996 888.1599999999999 1242.6399999999994 888.1599999999999 1242.6399999999994C888.1599999999999 1242.6399999999994 886.4099999999999 1245.9799999999993 884.8799999999999 1247.5199999999995C883.3499999999999 1249.0699999999995 879.0299999999999 1253.0199999999995 873.9899999999999 1254.6899999999996C868.9599999999999 1256.3699999999997 862.2799999999999 1256.9999999999995 859.5999999999999 1256.7099999999996C856.93 1256.4299999999996 852.2399999999999 1255.4999999999995 849.7799999999999 1253.2899999999995C847.3199999999998 1251.0899999999995 845.4599999999998 1249.0499999999995 845.4599999999998 1246.5099999999995C845.4599999999998 1243.9799999999996 845.6699999999998 1243.1099999999994 846.4099999999999 1241.5899999999995C847.1599999999999 1240.0699999999995 847.9299999999998 1238.6399999999994 847.9299999999998 1238.6399999999994ZM860.02 1254.35C860.02 1254.35 858.61 1249 858.74 1244.3C858.87 1239.6 859.88 1233.36 861.84 1230.78C863.7900000000001 1228.19 866.3100000000001 1225.27 868.9300000000001 1225.27C871.5400000000001 1225.27 873.7600000000001 1225.11 875.7600000000001 1226.01C877.7600000000001 1226.91 878.7500000000001 1227.8 878.7500000000001 1227.8C878.7500000000001 1227.8 875.7700000000001 1225.05 874.1500000000001 1224.6C872.5200000000001 1224.1399999999999 871.4200000000001 1223.9299999999998 870.08 1223.9299999999998C868.74 1223.9299999999998 865.75 1224.2999999999997 863.95 1226.0099999999998C862.1600000000001 1227.7099999999998 860.34 1229.4699999999998 860.34 1229.4699999999998L855.1600000000001 1228.8299999999997L857.4100000000001 1232.8399999999997C857.4100000000001 1232.8399999999997 854.7600000000001 1234.0599999999997 853.2400000000001 1235.1699999999996C851.7200000000001 1236.2799999999995 849.7700000000001 1238.8999999999996 849.1400000000001 1239.8699999999997C848.5200000000001 1240.8399999999997 847.5000000000001 1243.4199999999996 847.5000000000001 1243.4199999999996C847.5000000000001 1243.4199999999996 849.0100000000001 1240.1299999999997 851.2900000000001 1238.8999999999996C853.57 1237.6699999999996 853.97 1237.4299999999996 855.3700000000001 1237.0499999999997C856.7700000000001 1236.6799999999998 857.1300000000001 1236.8799999999997 857.1300000000001 1236.8799999999997C857.1300000000001 1236.8799999999997 856.1300000000001 1240.9899999999996 856.1300000000001 1243.9599999999996C856.1300000000001 1246.9299999999996 856.4500000000002 1250.4499999999996 856.5900000000001 1251.1399999999996C856.7300000000001 1251.8299999999997 857.1000000000001 1254.0999999999997 857.1000000000001 1254.0999999999997ZM874.68 1265.66C877.7199999999999 1266.67 881.4699999999999 1266.97 881.4699999999999 1266.97L881.9599999999999 1264.02C881.9599999999999 1264.02 884.8799999999999 1263.1 889.03 1260.01C893.1899999999999 1256.92 894.8399999999999 1251.8 894.8399999999999 1251.8C894.8399999999999 1251.8 891.4899999999999 1256.25 888.91 1257.77C886.3199999999999 1259.28 883.64 1259.43 883.64 1259.43C883.64 1259.43 884.67 1258.0800000000002 885.4 1256.64C886.13 1255.21 887.11 1251.96 887.11 1251.96C887.11 1251.96 882.1 1256.4 877.45 1258.68C872.8000000000001 1260.97 867.49 1261.89 867.49 1261.89C867.49 1261.89 871.65 1264.65 874.6800000000001 1265.66ZM864.06 1230.77C864.06 1230.77 862.42 1233.44 862 1234.84C861.58 1236.24 860.8 1240.23 860.8 1240.23C860.8 1240.23 865.03 1237.03 867.4799999999999 1236.26C869.93 1235.5 874.3799999999999 1234.83 874.3799999999999 1234.83C874.3799999999999 1234.83 869.4499999999999 1232.49 868.4699999999999 1232.1499999999999C867.4799999999999 1231.82 864.06 1230.7699999999998 864.06 1230.7699999999998ZM864.47 1245.62C864.47 1245.62 865.78 1242.1399999999999 869.2 1240.1499999999999C872.63 1238.1499999999999 871.5 1238.6699999999998 873.88 1237.9799999999998C876.26 1237.2799999999997 880.7 1236.7399999999998 880.7 1236.7399999999998C880.7 1236.7399999999998 881.9200000000001 1239.2199999999998 881.9200000000001 1241.8999999999999C881.9200000000001 1244.58 881.6800000000001 1249.4099999999999 881.6800000000001 1249.4099999999999L883.0500000000001 1247.9299999999998C883.0500000000001 1247.9299999999998 883.3700000000001 1242.86 883.21 1241.7699999999998C883.0500000000001 1240.6799999999998 882.09 1236.6899999999998 882.09 1236.6899999999998C882.09 1236.6899999999998 886.69 1236.7199999999998 889.15 1238.9999999999998C891.61 1241.2799999999997 891.73 1243.4899999999998 891.73 1244.0199999999998C891.73 1244.5499999999997 891.63 1245.9099999999999 891.29 1246.5399999999997C890.9399999999999 1247.1799999999998 889.78 1248.9199999999998 889.78 1248.9199999999998C889.78 1248.9199999999998 891.8299999999999 1246.8 892.14 1245.7599999999998C892.4399999999999 1244.7299999999998 892.99 1242.8299999999997 892.29 1241.3399999999997C891.5899999999999 1239.8499999999997 889.98 1237.6499999999996 887.66 1236.6899999999996C885.3399999999999 1235.7399999999996 884.5899999999999 1235.2999999999995 883.26 1235.2999999999995C881.92 1235.2999999999995 881.39 1235.2699999999995 881.39 1235.2699999999995C881.39 1235.2699999999995 879.81 1232.3399999999995 878.26 1231.1399999999994C876.71 1229.9399999999994 873.8199999999999 1229.6799999999994 873.33 1229.6799999999994C872.83 1229.6799999999994 870.5500000000001 1230.8599999999994 870.5500000000001 1230.8599999999994C870.5500000000001 1230.8599999999994 871.82 1230.2799999999995 873.7800000000001 1230.5699999999995C875.7400000000001 1230.8599999999994 877.0300000000001 1231.0599999999995 878.32 1232.7099999999996C879.61 1234.3499999999997 880.0400000000001 1235.7099999999996 880.0400000000001 1235.7099999999996C880.0400000000001 1235.7099999999996 876.1 1236.0899999999997 874.2900000000001 1236.7799999999995C872.47 1237.4699999999996 868.3700000000001 1239.6499999999994 867.6100000000001 1240.2399999999996C866.8500000000001 1240.8399999999995 865.4100000000001 1242.5399999999995 864.9400000000002 1243.3699999999997C864.4700000000001 1244.2099999999996 864.4700000000001 1245.6199999999997 864.4700000000001 1245.6199999999997Z " fill="#ed1c2e" fill-opacity="1" transform="matrix(1,0,0,1,-841,-1219)"></path></svg>