<svg id="SvgjsSvg1020" xmlns="http://www.w3.org/2000/svg" version="1.1" xmlns:xlink="http://www.w3.org/1999/xlink" xmlns:svgjs="http://svgjs.com/svgjs" width="58" height="58" viewBox="0 0 58 58"><title>Combined Shape</title><desc>Created with Avocode.</desc><defs id="SvgjsDefs1021"></defs><path id="SvgjsPath1022" d="M840 1248C840 1231.98374 852.98374 1219 869 1219C885.01626 1219 898 1231.98374 898 1248C898 1264.01626 885.01626 1277 869 1277C852.98374 1277 840 1264.01626 840 1248ZM846.93 1238.64C846.93 1238.64 845.1099999999999 1240.66 844.1999999999999 1242.8600000000001C843.29 1245.0500000000002 843.39 1246.19 843.52 1247.46C843.65 1248.73 843.8199999999999 1250.53 845.65 1252.82C847.47 1255.11 849.43 1256.07 851.17 1257.03C852.92 1257.99 856.99 1258.8799999999999 856.99 1258.8799999999999L857.6800000000001 1259.05C857.6800000000001 1259.05 859.9200000000001 1263.84 861.96 1266.07C864 1268.31 865.7900000000001 1270.01 869.76 1271.9399999999998C873.74 1273.87 867.4 1269.86 864.35 1265.7399999999998C861.3000000000001 1261.6299999999999 860.74 1259.0699999999997 860.74 1259.0699999999997C860.74 1259.0699999999997 864.54 1258.8799999999997 869.02 1257.8299999999997C873.5 1256.7799999999997 879.46 1253.1499999999996 879.46 1253.1499999999996C879.46 1253.1499999999996 879.46 1253.3499999999997 879.22 1254.1499999999996C878.99 1254.9399999999996 878.88 1255.2699999999995 878.88 1255.2699999999995C878.88 1255.2699999999995 880.32 1254.1299999999994 880.75 1253.3499999999995C881.18 1252.5699999999995 881.43 1251.3699999999994 881.43 1251.3699999999994C881.43 1251.3699999999994 883.5999999999999 1249.6599999999994 884.8599999999999 1247.7899999999995C886.1199999999999 1245.9299999999996 887.1599999999999 1242.6399999999994 887.1599999999999 1242.6399999999994C887.1599999999999 1242.6399999999994 885.4099999999999 1245.9799999999993 883.8799999999999 1247.5199999999995C882.3499999999999 1249.0699999999995 878.0299999999999 1253.0199999999995 872.9899999999999 1254.6899999999996C867.9599999999999 1256.3699999999997 861.2799999999999 1256.9999999999995 858.5999999999999 1256.7099999999996C855.93 1256.4299999999996 851.2399999999999 1255.4999999999995 848.7799999999999 1253.2899999999995C846.3199999999998 1251.0899999999995 844.4599999999998 1249.0499999999995 844.4599999999998 1246.5099999999995C844.4599999999998 1243.9799999999996 844.6699999999998 1243.1099999999994 845.4099999999999 1241.5899999999995C846.1599999999999 1240.0699999999995 846.9299999999998 1238.6399999999994 846.9299999999998 1238.6399999999994ZM859.02 1254.35C859.02 1254.35 857.61 1249 857.74 1244.3C857.87 1239.6 858.88 1233.36 860.84 1230.78C862.7900000000001 1228.19 865.3100000000001 1225.27 867.9300000000001 1225.27C870.5400000000001 1225.27 872.7600000000001 1225.11 874.7600000000001 1226.01C876.7600000000001 1226.91 877.7500000000001 1227.8 877.7500000000001 1227.8C877.7500000000001 1227.8 874.7700000000001 1225.05 873.1500000000001 1224.6C871.5200000000001 1224.1399999999999 870.4200000000001 1223.9299999999998 869.08 1223.9299999999998C867.74 1223.9299999999998 864.75 1224.2999999999997 862.95 1226.0099999999998C861.1600000000001 1227.7099999999998 859.34 1229.4699999999998 859.34 1229.4699999999998L854.1600000000001 1228.8299999999997L856.4100000000001 1232.8399999999997C856.4100000000001 1232.8399999999997 853.7600000000001 1234.0599999999997 852.2400000000001 1235.1699999999996C850.7200000000001 1236.2799999999995 848.7700000000001 1238.8999999999996 848.1400000000001 1239.8699999999997C847.5200000000001 1240.8399999999997 846.5000000000001 1243.4199999999996 846.5000000000001 1243.4199999999996C846.5000000000001 1243.4199999999996 848.0100000000001 1240.1299999999997 850.2900000000001 1238.8999999999996C852.57 1237.6699999999996 852.97 1237.4299999999996 854.3700000000001 1237.0499999999997C855.7700000000001 1236.6799999999998 856.1300000000001 1236.8799999999997 856.1300000000001 1236.8799999999997C856.1300000000001 1236.8799999999997 855.1300000000001 1240.9899999999996 855.1300000000001 1243.9599999999996C855.1300000000001 1246.9299999999996 855.4500000000002 1250.4499999999996 855.5900000000001 1251.1399999999996C855.7300000000001 1251.8299999999997 856.1000000000001 1254.0999999999997 856.1000000000001 1254.0999999999997ZM873.68 1265.66C876.7199999999999 1266.67 880.4699999999999 1266.97 880.4699999999999 1266.97L880.9599999999999 1264.02C880.9599999999999 1264.02 883.8799999999999 1263.1 888.03 1260.01C892.1899999999999 1256.92 893.8399999999999 1251.8 893.8399999999999 1251.8C893.8399999999999 1251.8 890.4899999999999 1256.25 887.91 1257.77C885.3199999999999 1259.28 882.64 1259.43 882.64 1259.43C882.64 1259.43 883.67 1258.0800000000002 884.4 1256.64C885.13 1255.21 886.11 1251.96 886.11 1251.96C886.11 1251.96 881.1 1256.4 876.45 1258.68C871.8000000000001 1260.97 866.49 1261.89 866.49 1261.89C866.49 1261.89 870.65 1264.65 873.6800000000001 1265.66ZM863.06 1230.77C863.06 1230.77 861.42 1233.44 861 1234.84C860.58 1236.24 859.8 1240.23 859.8 1240.23C859.8 1240.23 864.03 1237.03 866.4799999999999 1236.26C868.93 1235.5 873.3799999999999 1234.83 873.3799999999999 1234.83C873.3799999999999 1234.83 868.4499999999999 1232.49 867.4699999999999 1232.1499999999999C866.4799999999999 1231.82 863.06 1230.7699999999998 863.06 1230.7699999999998ZM863.47 1245.62C863.47 1245.62 864.78 1242.1399999999999 868.2 1240.1499999999999C871.63 1238.1499999999999 870.5 1238.6699999999998 872.88 1237.9799999999998C875.26 1237.2799999999997 879.7 1236.7399999999998 879.7 1236.7399999999998C879.7 1236.7399999999998 880.9200000000001 1239.2199999999998 880.9200000000001 1241.8999999999999C880.9200000000001 1244.58 880.6800000000001 1249.4099999999999 880.6800000000001 1249.4099999999999L882.0500000000001 1247.9299999999998C882.0500000000001 1247.9299999999998 882.3700000000001 1242.86 882.21 1241.7699999999998C882.0500000000001 1240.6799999999998 881.09 1236.6899999999998 881.09 1236.6899999999998C881.09 1236.6899999999998 885.69 1236.7199999999998 888.15 1238.9999999999998C890.61 1241.2799999999997 890.73 1243.4899999999998 890.73 1244.0199999999998C890.73 1244.5499999999997 890.63 1245.9099999999999 890.29 1246.5399999999997C889.9399999999999 1247.1799999999998 888.78 1248.9199999999998 888.78 1248.9199999999998C888.78 1248.9199999999998 890.8299999999999 1246.8 891.14 1245.7599999999998C891.4399999999999 1244.7299999999998 891.99 1242.8299999999997 891.29 1241.3399999999997C890.5899999999999 1239.8499999999997 888.98 1237.6499999999996 886.66 1236.6899999999996C884.3399999999999 1235.7399999999996 883.5899999999999 1235.2999999999995 882.26 1235.2999999999995C880.92 1235.2999999999995 880.39 1235.2699999999995 880.39 1235.2699999999995C880.39 1235.2699999999995 878.81 1232.3399999999995 877.26 1231.1399999999994C875.71 1229.9399999999994 872.8199999999999 1229.6799999999994 872.33 1229.6799999999994C871.83 1229.6799999999994 869.5500000000001 1230.8599999999994 869.5500000000001 1230.8599999999994C869.5500000000001 1230.8599999999994 870.82 1230.2799999999995 872.7800000000001 1230.5699999999995C874.7400000000001 1230.8599999999994 876.0300000000001 1231.0599999999995 877.32 1232.7099999999996C878.61 1234.3499999999997 879.0400000000001 1235.7099999999996 879.0400000000001 1235.7099999999996C879.0400000000001 1235.7099999999996 875.1 1236.0899999999997 873.2900000000001 1236.7799999999995C871.47 1237.4699999999996 867.3700000000001 1239.6499999999994 866.6100000000001 1240.2399999999996C865.8500000000001 1240.8399999999995 864.4100000000001 1242.5399999999995 863.9400000000002 1243.3699999999997C863.4700000000001 1244.2099999999996 863.4700000000001 1245.6199999999997 863.4700000000001 1245.6199999999997Z " fill="#ffffff" fill-opacity="1" transform="matrix(1,0,0,1,-840,-1219)"></path></svg>