<svg id="SvgjsSvg1027" xmlns="http://www.w3.org/2000/svg" version="1.1" xmlns:xlink="http://www.w3.org/1999/xlink" xmlns:svgjs="http://svgjs.com/svgjs" width="136" height="59" viewBox="0 0 136 59"><title>Fill 2</title><desc>Created with Avocode.</desc><defs id="SvgjsDefs1028"></defs><path id="SvgjsPath1029" d="M352.99 1248.94C353.01 1251.16 351.96000000000004 1253.17 349.27 1253.13C348.35999999999996 1253.1200000000001 347.45 1253.0800000000002 346.54999999999995 1253.0200000000002C346.12999999999994 1254.6800000000003 345.09 1255.3600000000001 343.85999999999996 1255.5600000000002C343.22999999999996 1255.66 342.55999999999995 1255.64 341.9 1255.5700000000002C341.28999999999996 1255.5000000000002 340.69 1255.39 340.13 1255.2900000000002C339.54 1256.8500000000001 338.48 1257.4300000000003 337.27 1257.5200000000002C336.65999999999997 1257.5800000000002 336.01 1257.5000000000002 335.38 1257.3700000000001C334.8 1257.2500000000002 334.21999999999997 1257.0900000000001 333.68 1256.94C332.97 1258.41 331.88 1258.9 330.69 1258.89C330.08 1258.89 329.46 1258.75 328.85 1258.5800000000002C328.29 1258.41 327.74 1258.2 327.22 1258.0100000000002C326.76000000000005 1258.7500000000002 326.04 1259.3600000000001 325.17 1259.6100000000001L334 1259.6100000000001L334 1260.14C334 1261.5400000000002 335.24 1261.63 335.49 1261.63L336.02 1261.64L336.02 1272.5800000000002L335.49 1272.5800000000002C334.09000000000003 1272.5800000000002 334 1273.8200000000002 334 1274.0700000000002L333.99 1274.6000000000001L236.99 1274.6000000000001L236.99 1274.0600000000002C236.99 1272.66 235.75 1272.5800000000002 235.5 1272.5800000000002L234.97 1272.5700000000002L234.97 1261.63L235.5 1261.63C236.9 1261.63 236.99 1260.39 236.99 1260.14L237 1259.6100000000001L245.82 1259.6100000000001C244.94 1259.3600000000001 244.23 1258.7500000000002 243.76999999999998 1258.0100000000002C243.24999999999997 1258.2000000000003 242.7 1258.4100000000003 242.14 1258.5800000000002C241.52999999999997 1258.7500000000002 240.91 1258.89 240.29999999999998 1258.89C239.10999999999999 1258.9 238.02999999999997 1258.41 237.30999999999997 1256.94C236.76999999999998 1257.0900000000001 236.18999999999997 1257.25 235.60999999999999 1257.3700000000001C234.98 1257.5000000000002 234.32999999999998 1257.5800000000002 233.72 1257.5200000000002C232.51 1257.4300000000003 231.45 1256.8500000000001 230.85999999999999 1255.2900000000002C230.29999999999998 1255.39 229.7 1255.5000000000002 229.1 1255.5700000000002C228.44 1255.64 227.76 1255.66 227.14 1255.5600000000002C225.89999999999998 1255.3600000000001 224.85999999999999 1254.68 224.44 1253.0200000000002C223.54 1253.0800000000002 222.63 1253.1200000000001 221.72 1253.13C219.03 1253.17 217.98 1251.16 218 1248.94L218 1248.75L218.2 1248.76C219.07 1248.8 219.94 1248.82 220.81 1248.82C234.02 1248.82 246.07 1243.8999999999999 255.24 1235.81C255.44 1235.6299999999999 256.28000000000003 1234.87 256.28000000000003 1234.87C258.85 1232.57 261.64000000000004 1230.81 265.32000000000005 1231.05C267.83000000000004 1231.22 270.08000000000004 1232.29 270.40000000000003 1235.62C270.50000000000006 1236.61 270.91 1237.2399999999998 272.16 1237.6999999999998C272.19 1237.7099999999998 272.23 1237.7199999999998 272.26000000000005 1237.7299999999998C272.76000000000005 1237.8999999999999 273.29 1238.0299999999997 273.84000000000003 1238.12L273.84000000000003 1234.85C274.44000000000005 1234.82 274.96000000000004 1234.79 275.43 1234.76L273.86 1231.96C273.45 1232.1100000000001 273.01 1232.2 272.55 1232.2C271.38 1232.2 270.81 1231.82 269.91 1231.16L271.70000000000005 1230.28L271.59000000000003 1230.28C270.82000000000005 1230.28 269.98 1230.46 269.31000000000006 1230.87C269.2200000000001 1230.9199999999998 268.8500000000001 1231.2099999999998 268.8500000000001 1231.2099999999998C268.7000000000001 1230.9099999999999 268.55000000000007 1230.6299999999999 268.50000000000006 1230.2899999999997C268.20000000000005 1228.5099999999998 269.87000000000006 1227.7499999999998 271.36000000000007 1227.4999999999998L270.76000000000005 1226.4199999999998L271.82000000000005 1226.4199999999998L271.82000000000005 1225.6699999999998C271.33000000000004 1225.2499999999998 271.0400000000001 1224.7299999999998 271.0400000000001 1224.06C271.0400000000001 1222.9099999999999 271.9700000000001 1221.99 273.11000000000007 1221.99L273.56000000000006 1221.99L273.7300000000001 1222.65L273.7300000000001 1222.6100000000001C273.7300000000001 1222.0700000000002 274.11000000000007 1221.6100000000001 274.62000000000006 1221.5100000000002L274.62000000000006 1221.1800000000003L274.06000000000006 1221.1800000000003L274.06000000000006 1220.7100000000003L274.62000000000006 1220.7100000000003L274.62000000000006 1220.1500000000003L275.0900000000001 1220.1500000000003L275.0900000000001 1220.7100000000003L275.6600000000001 1220.7100000000003L275.6600000000001 1221.1800000000003L275.0900000000001 1221.1800000000003L275.0900000000001 1221.5100000000002C275.6000000000001 1221.6100000000001 275.9800000000001 1222.0700000000002 275.9800000000001 1222.6100000000001L275.9800000000001 1222.65L276.1500000000001 1221.99L276.6000000000001 1221.99C277.5300000000001 1221.99 278.3200000000001 1222.61 278.5800000000001 1223.45C278.5900000000001 1221.82 279.6900000000001 1220.44 281.1900000000001 1220L281.0000000000001 1219.28L283.23000000000013 1219.28L283.39000000000016 1219.86L284.4900000000002 1219.86C284.3100000000002 1219.6399999999999 284.20000000000016 1219.35 284.20000000000016 1219.04C284.20000000000016 1218.44 284.6100000000002 1217.93 285.1700000000002 1217.79L285.1700000000002 1217.4099999999999L284.4200000000002 1217.4099999999999L284.4200000000002 1216.7499999999998L285.1700000000002 1216.7499999999998L285.1700000000002 1215.9999999999998L285.8300000000002 1215.9999999999998L285.8300000000002 1216.7499999999998L286.5800000000002 1216.7499999999998L286.5800000000002 1217.4099999999999L285.8300000000002 1217.4099999999999L285.8300000000002 1217.79C286.3800000000002 1217.93 286.7900000000002 1218.44 286.7900000000002 1219.04C286.7900000000002 1219.35 286.6800000000002 1219.6399999999999 286.50000000000017 1219.86L287.6000000000002 1219.86L287.7600000000002 1219.28L289.99000000000024 1219.28L289.79000000000025 1220.03C291.31000000000023 1220.52 292.41000000000025 1221.72 292.41000000000025 1223.48L292.41000000000025 1223.5C292.66000000000025 1222.63 293.46000000000026 1221.99 294.41000000000025 1221.99L294.86000000000024 1221.99L295.02000000000027 1222.65L295.02000000000027 1222.6100000000001C295.02000000000027 1222.0700000000002 295.41000000000025 1221.6100000000001 295.91000000000025 1221.5100000000002L295.91000000000025 1221.1800000000003L295.35000000000025 1221.1800000000003L295.35000000000025 1220.7100000000003L295.91000000000025 1220.7100000000003L295.91000000000025 1220.1500000000003L296.39000000000027 1220.1500000000003L296.39000000000027 1220.7100000000003L296.9500000000003 1220.7100000000003L296.9500000000003 1221.1800000000003L296.39000000000027 1221.1800000000003L296.39000000000027 1221.5100000000002C296.90000000000026 1221.6100000000001 297.28000000000026 1222.0700000000002 297.28000000000026 1222.6100000000001L297.28000000000026 1222.65L297.4400000000003 1221.99L297.89000000000027 1221.99C299.04000000000025 1221.99 299.97000000000025 1222.91 299.97000000000025 1224.06C299.97000000000025 1224.73 299.68000000000023 1225.25 299.1900000000003 1225.6699999999998L299.1900000000003 1226.4199999999998L300.2500000000003 1226.4199999999998L299.64000000000027 1227.4999999999998C301.1300000000003 1227.7499999999998 302.8000000000003 1228.5099999999998 302.5100000000003 1230.2899999999997C302.4500000000003 1230.6299999999997 302.3100000000003 1230.9099999999996 302.15000000000026 1231.2099999999998C302.15000000000026 1231.2099999999998 301.79000000000025 1230.9199999999998 301.6900000000003 1230.87C301.03000000000026 1230.4599999999998 300.1900000000003 1230.28 299.4100000000003 1230.28L299.3000000000003 1230.28L301.0900000000003 1231.16C300.19000000000034 1231.8200000000002 299.63000000000034 1232.2 298.45000000000033 1232.2C297.99000000000035 1232.2 297.56000000000034 1232.1100000000001 297.1500000000003 1231.96L295.5800000000003 1234.76C296.0400000000003 1234.8 296.56000000000034 1234.82 297.1500000000003 1234.85L297.1500000000003 1238.12C297.70000000000033 1238.03 298.2300000000003 1237.8999999999999 298.7300000000003 1237.7299999999998C298.7600000000003 1237.7199999999998 298.8000000000003 1237.7099999999998 298.8300000000003 1237.6999999999998C300.0800000000003 1237.2399999999998 300.50000000000034 1236.61 300.5900000000003 1235.62C300.9200000000003 1232.29 303.1600000000003 1231.2199999999998 305.6700000000003 1231.05C309.3600000000003 1230.81 312.1400000000003 1232.57 314.7100000000003 1234.87C314.7100000000003 1234.87 315.5500000000003 1235.6299999999999 315.75000000000034 1235.81C324.92000000000036 1243.8999999999999 336.98000000000036 1248.82 350.18000000000035 1248.82C351.06000000000034 1248.82 351.92000000000036 1248.8 352.80000000000035 1248.76L352.99000000000035 1248.75ZM238.01 1260.68C237.85 1261.47 237.31 1262.44 236.04 1262.66L236.04 1271.5600000000002C236.82999999999998 1271.7300000000002 237.81 1272.2600000000002 238.01999999999998 1273.5300000000002L332.97999999999996 1273.5300000000002C333.14 1272.7400000000002 333.67999999999995 1271.7700000000002 334.95 1271.5500000000002L334.95 1262.64C334.15999999999997 1262.49 333.18 1261.95 332.96999999999997 1260.68ZM274.96 1255.23C274.96 1255.23 274.98999999999995 1255.24 275.01 1255.25C276.55 1256.04 281.07 1258.52 285.5 1259.35C290.08 1258.48 295.03 1255.75 296.02 1255.23L296.02 1235.92C293.5 1235.8000000000002 291.99 1235.27 290.21999999999997 1233.41C288.65 1233.6000000000001 287.08 1233.71 285.49999999999994 1233.71L285.48999999999995 1233.71C283.90999999999997 1233.71 282.34999999999997 1233.6000000000001 280.7699999999999 1233.41C278.99999999999994 1235.27 277.48999999999995 1235.8000000000002 274.9599999999999 1235.92ZM297.15 1242.88C298 1243.8500000000001 298.88 1244.8000000000002 299.79999999999995 1245.7600000000002C300.81999999999994 1246.6900000000003 302.03 1246.5800000000002 302.90999999999997 1245.9500000000003C301.46 1244.5500000000002 300.05999999999995 1243.0900000000004 298.73999999999995 1241.5700000000002C299.06999999999994 1241.4700000000003 299.4 1241.3700000000001 299.72999999999996 1241.2600000000002C300.73999999999995 1242.4000000000003 301.79999999999995 1243.5200000000002 302.92999999999995 1244.6400000000003C303.9599999999999 1245.5400000000004 305.16999999999996 1245.4100000000003 306.03 1244.7600000000002C305.71999999999997 1244.4600000000003 305.4 1244.1600000000003 305.08 1243.8600000000001C303.96 1242.7900000000002 302.88 1241.68 301.84 1240.5300000000002C302.15999999999997 1240.4100000000003 302.47999999999996 1240.2900000000002 302.78999999999996 1240.1600000000003C303.09999999999997 1240.4900000000002 303.4 1240.8200000000004 303.71 1241.1400000000003C304.40999999999997 1241.8800000000003 305.15 1242.6100000000004 305.90999999999997 1243.3400000000004C306.96 1244.2100000000003 308.15 1244.0600000000004 309.01 1243.3900000000003C308.65 1243.0700000000004 308.28 1242.7400000000002 307.92 1242.4100000000003C306.84000000000003 1241.4100000000003 305.81 1240.3700000000003 304.81 1239.3000000000004C305.1 1239.1700000000003 305.4 1239.0300000000004 305.71 1238.8800000000003C306.22999999999996 1239.4300000000003 306.75 1239.9600000000003 307.28 1240.4900000000002C307.76 1240.9500000000003 308.23999999999995 1241.4100000000003 308.75 1241.8700000000003C309.81 1242.7200000000003 311.01 1242.5500000000004 311.84 1241.8700000000003C311.42999999999995 1241.5200000000004 311.02 1241.1600000000003 310.61999999999995 1240.8000000000004C309.5799999999999 1239.8700000000003 308.5799999999999 1238.9000000000003 307.61999999999995 1237.9100000000003C307.90999999999997 1237.7500000000002 308.19999999999993 1237.5900000000004 308.48999999999995 1237.4300000000003C309.24999999999994 1238.2100000000003 310.03 1238.9700000000003 310.81999999999994 1239.7000000000003C311.0299999999999 1239.8900000000003 311.22999999999996 1240.0700000000002 311.43999999999994 1240.2600000000002C312.50999999999993 1241.0900000000001 313.69999999999993 1240.8900000000003 314.5299999999999 1240.2000000000003C313.0599999999999 1238.9900000000002 311.63999999999993 1237.7000000000003 310.2999999999999 1236.3400000000004C310.5699999999999 1236.1700000000003 310.8399999999999 1236.0000000000005 311.1299999999999 1235.8100000000004C312.0599999999999 1236.7500000000005 313.0099999999999 1237.6500000000003 313.9999999999999 1238.5000000000005C315.07999999999987 1239.3000000000004 316.2599999999999 1239.0900000000004 317.07999999999987 1238.3900000000006C316.3699999999999 1237.8300000000006 315.6799999999999 1237.2500000000005 314.9999999999999 1236.6500000000005C314.64999999999986 1236.3400000000006 314.2999999999999 1236.0200000000004 313.95999999999987 1235.7000000000005C311.89999999999986 1233.8600000000006 309.76999999999987 1232.3300000000006 306.6799999999999 1232.1800000000005C304.1799999999999 1232.0600000000006 302.0099999999999 1232.7500000000005 301.70999999999987 1235.7300000000005C301.5699999999999 1237.1800000000005 300.82999999999987 1238.1600000000005 299.20999999999987 1238.7600000000004C299.15999999999985 1238.7800000000004 299.10999999999984 1238.8000000000004 299.0599999999999 1238.8100000000004C298.4499999999999 1239.0200000000004 297.8099999999999 1239.1700000000003 297.14999999999986 1239.2600000000004ZM255.99 1236.65C255.31 1237.25 254.62 1237.8300000000002 253.91 1238.39C254.73 1239.0900000000001 255.91 1239.3000000000002 256.99 1238.5C257.98 1237.65 258.94 1236.75 259.87 1235.81C260.15 1236 260.42 1236.1699999999998 260.69 1236.34C259.35 1237.6999999999998 257.93 1238.99 256.46 1240.1999999999998C257.28999999999996 1240.8899999999999 258.47999999999996 1241.09 259.54999999999995 1240.2599999999998C259.75999999999993 1240.0699999999997 259.96999999999997 1239.8899999999999 260.16999999999996 1239.6999999999998C260.96 1238.9699999999998 261.73999999999995 1238.2099999999998 262.49999999999994 1237.4299999999998C262.79999999999995 1237.59 263.0799999999999 1237.7499999999998 263.36999999999995 1237.9099999999999C262.40999999999997 1238.8999999999999 261.40999999999997 1239.87 260.36999999999995 1240.8C259.96999999999997 1241.1599999999999 259.55999999999995 1241.52 259.1499999999999 1241.87C259.9899999999999 1242.55 261.1799999999999 1242.7199999999998 262.24999999999994 1241.87C262.74999999999994 1241.4099999999999 263.22999999999996 1240.9499999999998 263.7099999999999 1240.4899999999998C264.2399999999999 1239.9599999999998 264.75999999999993 1239.4299999999998 265.2799999999999 1238.8799999999999C265.5899999999999 1239.03 265.88999999999993 1239.1699999999998 266.18999999999994 1239.3C265.18999999999994 1240.37 264.13999999999993 1241.4099999999999 263.06999999999994 1242.4099999999999C262.7099999999999 1242.7399999999998 262.3499999999999 1243.07 261.97999999999996 1243.3899999999999C262.83 1244.06 264.03 1244.2099999999998 265.08 1243.34C265.84 1242.61 266.57 1241.8799999999999 267.28 1241.1399999999999C267.59 1240.82 267.9 1240.4899999999998 268.2 1240.1599999999999C268.52 1240.29 268.83 1240.4099999999999 269.15 1240.5299999999997C268.10999999999996 1241.6799999999998 267.03 1242.7899999999997 265.90999999999997 1243.8599999999997C265.59 1244.1599999999996 265.28 1244.4599999999996 264.96 1244.7599999999998C265.83 1245.4099999999999 267.03 1245.5399999999997 268.06 1244.6399999999999C269.19 1243.52 270.25 1242.3999999999999 271.26 1241.2599999999998L271.27 1241.2599999999998C271.59 1241.3699999999997 271.91999999999996 1241.4699999999998 272.25 1241.5699999999997C270.92 1243.0899999999997 269.53 1244.5499999999997 268.08 1245.9499999999998C268.96 1246.58 270.16999999999996 1246.6899999999998 271.19 1245.7599999999998C272.11 1244.7999999999997 272.99 1243.8499999999997 273.84 1242.8799999999997L273.84 1239.2599999999998C273.17999999999995 1239.1699999999998 272.53999999999996 1239.0199999999998 271.92999999999995 1238.8099999999997C271.87999999999994 1238.7999999999997 271.8299999999999 1238.7799999999997 271.78 1238.7599999999998C270.15999999999997 1238.1599999999999 269.41999999999996 1237.1799999999998 269.28 1235.7299999999998C268.98999999999995 1232.7499999999998 266.80999999999995 1232.0599999999997 264.32 1232.1799999999998C261.21999999999997 1232.33 259.09 1233.86 257.04 1235.6999999999998C256.69 1236.0199999999998 256.34000000000003 1236.34 255.99 1236.6499999999999ZM347.68 1251.97C349.48 1252.1100000000001 351.49 1251.99 351.82 1249.92C346.48 1250.1000000000001 341.88 1249.42 338.05 1248.54C331.42 1247 327.15000000000003 1244.7 325.76 1244.02C324.83 1245.15 324.08 1245.3 323.89 1245.37C330.72999999999996 1248.9099999999999 335.71999999999997 1250.2399999999998 339.88 1251.02C342.67 1251.55 345.26 1251.79 347.68 1251.97ZM223.31 1251.97C225.73 1251.79 228.32 1251.55 231.11 1251.02C235.27 1250.24 240.27 1248.91 247.10000000000002 1245.37C246.91000000000003 1245.3 246.16000000000003 1245.1499999999999 245.24 1244.02C243.85000000000002 1244.7 239.57000000000002 1247 232.95000000000002 1248.54C229.11 1249.42 224.51000000000002 1250.1 219.17000000000002 1249.92C219.50000000000003 1251.99 221.51000000000002 1252.1100000000001 223.31 1251.97ZM296.5 1256.65C296.42 1256.5500000000002 296.33 1256.46 296.26 1256.38C293.77 1257.66 291.46999999999997 1258.7800000000002 288.90999999999997 1259.6100000000001L323.27 1259.6100000000001C323.06 1259.5600000000002 322.85999999999996 1259.48 322.65 1259.39C318.75 1257.68 315.04999999999995 1255.6100000000001 311.57 1253.23C310.81 1253.97 309.74 1254.43 308.59 1254.27C307.78 1255.22 306.47999999999996 1255.81 305.11999999999995 1255.52C304.23999999999995 1256.45 302.87999999999994 1256.99 301.49999999999994 1256.58C299.90999999999997 1258.11 297.59999999999997 1257.85 296.49999999999994 1256.6499999999999ZM274.49 1256.65C273.40000000000003 1257.8500000000001 271.08 1258.1100000000001 269.49 1256.5800000000002C268.11 1256.9900000000002 266.75 1256.45 265.87 1255.5200000000002C264.51 1255.8100000000002 263.21 1255.2200000000003 262.4 1254.2700000000002C261.25 1254.4300000000003 260.17999999999995 1253.9700000000003 259.41999999999996 1253.2300000000002C255.94999999999996 1255.6100000000004 252.23999999999995 1257.6800000000003 248.33999999999995 1259.3900000000003C248.12999999999994 1259.4800000000002 247.92999999999995 1259.5600000000004 247.71999999999994 1259.6100000000004L282.04999999999995 1259.6100000000004C279.52 1258.7800000000004 277.10999999999996 1257.6100000000004 274.73999999999995 1256.3800000000003C274.65999999999997 1256.4600000000003 274.5799999999999 1256.5500000000004 274.48999999999995 1256.6500000000003ZM229.18 1254.42C229.89000000000001 1254.3200000000002 239.46 1253.2 249.68 1247.3700000000001C249.01000000000002 1247.17 248.41 1246.7700000000002 247.81 1246.0600000000002C242.22 1249.1900000000003 234.8 1251.9 225.57 1252.7600000000002C226.2 1254.7200000000003 227.70999999999998 1254.6400000000003 229.18 1254.4200000000003ZM341.81 1254.42C343.28000000000003 1254.64 344.79 1254.72 345.42 1252.76C336.19 1251.9 328.77000000000004 1249.19 323.18 1246.06C322.58 1246.77 321.99 1247.1699999999998 321.31 1247.37C331.54 1253.1999999999998 341.1 1254.32 341.81 1254.4199999999998ZM234.85 1256.41C235.97 1256.2 238.07999999999998 1255.65 241.95 1254.26C244.94 1253.18 248.57 1251.5 252.41 1249.25C251.57999999999998 1249.04 250.85999999999999 1248.42 250.5 1247.98C247.85 1249.56 241.13 1253.15 231.96 1254.91C232.24 1255.7900000000002 233.22 1256.7 234.85 1256.41ZM336.14 1256.41C337.77 1256.7 338.75 1255.7900000000002 339.03 1254.91C329.85999999999996 1253.15 323.14 1249.5600000000002 320.48999999999995 1247.98C320.12999999999994 1248.42 319.41999999999996 1249.04 318.5799999999999 1249.25C322.42999999999995 1251.5 326.0399999999999 1253.18 329.0399999999999 1254.26C332.9199999999999 1255.65 335.0299999999999 1256.2 336.13999999999993 1256.41ZM329.66 1257.68C330.99 1258.03 331.96000000000004 1257.66 332.63000000000005 1256.45C324.9200000000001 1254.23 319.40000000000003 1250.82 317.64000000000004 1249.78C317.03000000000003 1250.42 316.47 1250.81 315.71000000000004 1251C318.96000000000004 1253.07 322.41 1254.77 325.83000000000004 1256.24C326.87000000000006 1256.69 328.49000000000007 1257.3700000000001 329.66 1257.68ZM241.33 1257.68C242.51000000000002 1257.3700000000001 244.12 1256.69 245.17000000000002 1256.24C248.58 1254.77 252.03000000000003 1253.07 255.28000000000003 1251C254.53000000000003 1250.81 253.96000000000004 1250.42 253.35000000000002 1249.78C251.59000000000003 1250.82 246.07000000000002 1254.23 238.36 1256.45C239.03 1257.66 240 1258.03 241.33 1257.68ZM278.66 1224.25C278.62 1224.83 278.34000000000003 1225.29 277.90000000000003 1225.67L277.90000000000003 1226.44L279.09000000000003 1226.44C278.98 1227.6000000000001 278.49 1228.23 277.8 1228.5700000000002L281.34000000000003 1232.3400000000001C282.72 1232.4800000000002 284.1 1232.5800000000002 285.49 1232.5800000000002C286.90000000000003 1232.5800000000002 288.28000000000003 1232.4800000000002 289.66 1232.3400000000001L293.21000000000004 1228.5700000000002C292.52000000000004 1228.2300000000002 292.03000000000003 1227.6000000000001 291.91 1226.44L293.11 1226.44L293.11 1225.67C292.66 1225.28 292.38 1224.8000000000002 292.34000000000003 1224.2C292.07000000000005 1225.55 291.03000000000003 1226.63 289.70000000000005 1226.98L289.70000000000005 1228.45L281.30000000000007 1228.45L281.30000000000007 1226.98C279.9800000000001 1226.64 278.95000000000005 1225.58 278.6600000000001 1224.25ZM244.77 1257.42C245.39000000000001 1258.28 246.19 1259.1100000000001 247.86 1258.3700000000001C249.72000000000003 1257.5600000000002 251.02 1256.88 251.4 1256.7C251.81 1256.49 253.89000000000001 1255.51 258.31 1252.6200000000001C257.95 1252.5400000000002 257.08 1252.2700000000002 256.34 1251.45C251.01999999999998 1254.89 246.93999999999997 1256.54 244.76999999999998 1257.42ZM323.13 1258.37C324.8 1259.11 325.6 1258.28 326.21999999999997 1257.4199999999998C324.05999999999995 1256.5399999999997 319.96999999999997 1254.8899999999999 314.65 1251.4499999999998C313.90999999999997 1252.2699999999998 313.03999999999996 1252.5399999999997 312.69 1252.62C317.1 1255.51 319.18 1256.4899999999998 319.59 1256.6999999999998C319.96999999999997 1256.8799999999999 321.27 1257.5599999999997 323.13 1258.37ZM272.85 1248.35C272.08000000000004 1248.34 271.37 1248.06 270.69 1247.59L270.68 1247.6C268.6 1249.6499999999999 266.2 1251.7199999999998 263.49 1253.78C264.71000000000004 1254.87 265.97 1254.51 266.61 1253.97C268.17 1252.65 269.84000000000003 1251.34 272.85 1248.3500000000001ZM307.51 1253.78C304.8 1251.72 302.39 1249.6499999999999 300.31 1247.6L300.3 1247.59C299.62 1248.06 298.91 1248.34 298.15000000000003 1248.35C301.14000000000004 1251.34 302.82000000000005 1252.6499999999999 304.38000000000005 1253.9699999999998C305.02000000000004 1254.5099999999998 306.28000000000003 1254.87 307.51000000000005 1253.7799999999997ZM301.44 1247.39C302.69 1248.6100000000001 305.65 1251.24 307.66 1252.72C308.52000000000004 1253.3500000000001 309.68 1253.43 310.74 1252.42C308.54 1250.89 305.63 1248.49 303.58 1246.5800000000002L303.58 1246.5700000000002C302.90999999999997 1247.0600000000002 302.19 1247.3500000000001 301.44 1247.39ZM263.33 1252.72C265.34 1251.24 268.3 1248.6100000000001 269.55 1247.39C268.8 1247.3500000000001 268.08 1247.0600000000002 267.41 1246.5700000000002L267.41 1246.5800000000002C265.36 1248.4900000000002 262.45000000000005 1250.89 260.25 1252.42C261.31 1253.43 262.47 1253.3500000000001 263.33 1252.72ZM264.28 1245.37C261.52 1247.78 259.78 1249.12 257.09999999999997 1250.9499999999998C257.82 1251.6899999999998 259.10999999999996 1252.08 260.18999999999994 1251.2999999999997C261.56999999999994 1250.3199999999997 264.55999999999995 1247.9299999999998 266.3999999999999 1246.2299999999998C265.62999999999994 1246.1899999999998 264.87999999999994 1245.8299999999997 264.2799999999999 1245.37ZM304.6 1246.23C306.43 1247.93 309.42 1250.32 310.8 1251.3C311.88 1252.08 313.17 1251.69 313.89 1250.95C311.21 1249.1200000000001 309.46999999999997 1247.78 306.71 1245.3700000000001C306.10999999999996 1245.8300000000002 305.35999999999996 1246.19 304.59999999999997 1246.23ZM261.29 1243.99C260.02000000000004 1245.1200000000001 257.02000000000004 1247.48 254.12000000000003 1249.3C254.82000000000002 1250.07 256.09000000000003 1250.47 257.19000000000005 1249.73C259.21000000000004 1248.38 261.99000000000007 1246.13 263.39000000000004 1244.89C262.69000000000005 1244.8400000000001 261.96000000000004 1244.5300000000002 261.29 1243.99ZM313.8 1249.73C314.89 1250.47 316.17 1250.07 316.87 1249.3C313.98 1247.48 310.97 1245.12 309.7 1243.99C309.03 1244.53 308.3 1244.84 307.59999999999997 1244.89C308.99999999999994 1246.13 311.78 1248.38 313.79999999999995 1249.73ZM258.44 1242.45C254.79 1245.45 252.04 1247.05 251.28 1247.52C251.97 1248.31 253.3 1248.73 254.34 1248.03C256.36 1246.69 258.6 1245.04 260.53000000000003 1243.3899999999999C259.79 1243.33 259.09000000000003 1242.9899999999998 258.44000000000005 1242.4499999999998ZM316.65 1248.03C317.69 1248.73 319.02 1248.31 319.7 1247.52C318.95 1247.05 316.2 1245.45 312.55 1242.45C311.89 1242.99 311.2 1243.3300000000002 310.46000000000004 1243.39C312.40000000000003 1245.0400000000002 314.63000000000005 1246.69 316.65000000000003 1248.0300000000002ZM248.59 1245.61C249.3 1246.49 250.65 1246.83 251.63 1246.1999999999998C253.35 1245.09 254.82 1244.1499999999999 257.83 1241.7399999999998C257.03 1241.6599999999999 256.37 1241.2999999999997 255.74999999999997 1240.7699999999998C254.29999999999998 1241.9399999999998 251.94999999999996 1243.6699999999998 248.58999999999997 1245.6099999999997ZM319.36 1246.2C320.34000000000003 1246.8300000000002 321.69 1246.49 322.39 1245.6100000000001C319.03999999999996 1243.67 316.7 1241.94 315.24 1240.7700000000002C314.61 1241.3000000000002 313.96000000000004 1241.6600000000003 313.16 1241.7400000000002C316.17 1244.1500000000003 317.64000000000004 1245.0900000000001 319.36 1246.2000000000003ZM324.95 1243.6C323.15999999999997 1242.6299999999999 319.56 1240.4099999999999 317.8 1238.9499999999998C317.44 1239.2099999999998 316.89 1239.7699999999998 315.73 1239.9499999999998C319.15000000000003 1242.61 320.88 1243.6899999999998 321.94 1244.2499999999998C323.38 1244.9999999999998 324.46999999999997 1244.1899999999998 324.95 1243.5999999999997ZM253.19 1238.95C251.43 1240.41 247.82999999999998 1242.63 246.04 1243.6000000000001C246.51999999999998 1244.19 247.60999999999999 1245.0000000000002 249.04999999999998 1244.2500000000002C250.10999999999999 1243.6900000000003 251.83999999999997 1242.6100000000001 255.26 1239.9500000000003C254.1 1239.7700000000002 253.54 1239.2100000000003 253.19 1238.9500000000003ZM270.03 1255.05C271.34999999999997 1253.9199999999998 272.61999999999995 1252.77 273.84 1251.6L273.84 1248.6999999999998C271.76 1250.8199999999997 269.22999999999996 1253.1299999999999 266.9 1254.9499999999998C267.72999999999996 1255.6699999999998 268.92999999999995 1255.8899999999999 270.03 1255.0499999999997ZM297.15 1251.6C298.37 1252.78 299.64 1253.9199999999998 300.96 1255.05C302.07 1255.8899999999999 303.26 1255.6699999999998 304.09 1254.95C301.77 1253.13 299.22999999999996 1250.82 297.15 1248.71ZM324.09 1270.95L325.5 1267.07L324.2 1263.26L325.96 1263.26L326.84999999999997 1266.25L327.28999999999996 1266.25L328.2 1263.26L329.95 1263.26L328.65 1267.07L330.06 1270.95L328.31 1270.95L327.29 1267.9L326.85 1267.9L325.85 1270.95ZM317.82 1270.95L316.17 1270.95L316.92 1263.26L320.87 1263.26L321.61 1270.95L319.97 1270.95L319.8 1269.13L317.99 1269.13ZM250.54 1263.26L255.70999999999998 1263.26L255.70999999999998 1270.95L250.54 1270.95ZM288.87 1270.95L283.7 1270.95L283.7 1263.26L288.87 1263.26L288.87 1265.66L287.22 1265.66L287.22 1264.91L285.35 1264.91L285.35 1269.3000000000002L287.22 1269.3000000000002L287.22 1268.5500000000002L288.87 1268.5500000000002ZM275.13 1263.26L280.3 1263.26L280.3 1270.95L275.13 1270.95ZM301.81 1264.91L300.05 1264.91L300.05 1263.26L305.22 1263.26L305.22 1264.91L303.46000000000004 1264.91L303.46000000000004 1270.95L301.81000000000006 1270.95ZM297.33 1270.95L292.15999999999997 1270.95L292.15999999999997 1263.26L297.33 1263.26L297.33 1265.66L295.68 1265.66L295.68 1264.91L293.81 1264.91L293.81 1269.3000000000002L295.68 1269.3000000000002L295.68 1268.5500000000002L297.33 1268.5500000000002ZM264.28 1270.95L259.10999999999996 1270.95L259.10999999999996 1263.26L264.28 1263.26L264.28 1265.66L262.63 1265.66L262.63 1264.91L260.76 1264.91L260.76 1269.3000000000002L262.63 1269.3000000000002L262.63 1268.5500000000002L264.28 1268.5500000000002ZM309.89 1270.95L308.24 1270.95L308.24 1263.26L313.40000000000003 1263.26L313.40000000000003 1268.64L309.89000000000004 1268.64ZM269.22 1270.95L267.57000000000005 1270.95L267.57000000000005 1263.26L272.13000000000005 1263.26L272.13000000000005 1264.91L269.22 1264.91ZM283.56 1220.52L285.17 1226.44L285.83000000000004 1226.44L287.43000000000006 1220.52L286.7200000000001 1220.52L285.50000000000006 1224.9L284.28000000000003 1220.52ZM281.37 1220.64C280.14 1221 279.24 1222.14 279.24 1223.48C279.24 1225.1100000000001 280.57 1226.44 282.2 1226.44L282.94 1226.44ZM291.75 1223.48C291.75 1222.14 290.86 1221 289.63 1220.64L288.05 1226.44L288.79 1226.44C290.43 1226.44 291.75 1225.1100000000001 291.75 1223.48ZM286.51 1226.44L287.37 1226.44L289.13 1219.94L288.26 1219.94ZM297.15 1255.71C297.2 1255.75 297.25 1255.8 297.29999999999995 1255.8500000000001C298.40999999999997 1256.97 299.87999999999994 1256.5100000000002 300.53999999999996 1255.93C299.53999999999996 1255.1000000000001 298.30999999999995 1254.01 297.15 1252.92ZM273.84 1252.92C272.67999999999995 1254.01 271.46 1255.1000000000001 270.45 1255.93C271.11 1256.51 272.58 1256.97 273.7 1255.8500000000001C273.75 1255.8000000000002 273.78999999999996 1255.7500000000002 273.84 1255.71ZM276.78 1269.3L278.65 1269.3L278.65 1264.9099999999999L276.78 1264.9099999999999ZM252.19 1269.3L254.06 1269.3L254.06 1264.9099999999999L252.19 1264.9099999999999ZM276.06 1228.3C276.91 1228.3 277.94 1228.01 278.32 1227.09L271.88 1227.09L272.56 1228.3ZM298.44 1228.3L299.12 1227.09L292.69 1227.09C293.06 1228.01 294 1228.24 294.95 1228.3ZM297.15 1247.14C298.01 1247.5900000000001 298.92999999999995 1247.44 299.64 1246.95C298.78999999999996 1246.0900000000001 297.96 1245.21 297.15 1244.31ZM271.35 1246.95C272.06 1247.44 272.99 1247.5900000000001 273.84000000000003 1247.14L273.84000000000003 1244.3100000000002C273.03000000000003 1245.2100000000003 272.20000000000005 1246.0900000000001 271.35 1246.9500000000003ZM272.55 1229.62L272.08 1228.79L271.7 1228.11C270.57 1228.26 268.90999999999997 1228.74 269.15 1230.1999999999998C269.89 1229.7999999999997 270.75 1229.62 271.59 1229.62ZM298.92 1228.79L298.46000000000004 1229.62L299.41 1229.62C300.25 1229.62 301.12 1229.8 301.85 1230.1999999999998C302.1 1228.7399999999998 300.44 1228.2599999999998 299.3 1228.11ZM277.12 1228.8C276.86 1228.87 276.58 1228.9099999999999 276.29 1228.93L277.73 1230.77C278.13 1231.24 278.96000000000004 1230.8 278.41 1230.18C278.40000000000003 1230.17 278.38000000000005 1230.15 278.36 1230.13ZM294.71 1228.93C294.43 1228.91 294.15 1228.8700000000001 293.89 1228.8L292.65 1230.1299999999999C292.63 1230.1499999999999 292.60999999999996 1230.1699999999998 292.59 1230.1799999999998C292.04999999999995 1230.7999999999997 292.86999999999995 1231.2399999999998 293.27 1230.7699999999998ZM281.96 1227.79L289.04999999999995 1227.79L289.04999999999995 1227.09L281.96 1227.09ZM277.44 1232.35C277.28 1232.4599999999998 277.09 1232.53 276.9 1232.55L277.91999999999996 1234.19C278.28 1234.02 278.64 1233.78 279.02 1233.48L277.81 1231.94C277.72 1232.1000000000001 277.6 1232.24 277.44 1232.3500000000001ZM291.99 1233.49C292.36 1233.79 292.72 1234.02 293.08 1234.2L294.09999999999997 1232.55C293.90999999999997 1232.53 293.72999999999996 1232.46 293.57 1232.35C293.40999999999997 1232.24 293.28 1232.1 293.2 1231.9399999999998ZM271.7 1224.06C271.7 1224.46 271.87 1224.82 272.14 1225.08L273.65999999999997 1225.08L273.04999999999995 1222.6499999999999C272.29999999999995 1222.6799999999998 271.69999999999993 1223.3 271.69999999999993 1224.06ZM297.35 1225.08L298.87 1225.08C299.14 1224.82 299.31 1224.46 299.31 1224.06C299.31 1223.3 298.71 1222.6799999999998 297.96 1222.6499999999999ZM276.05 1225.08L277.57 1225.08C277.84999999999997 1224.82 278.01 1224.46 278.01 1224.06C278.01 1223.3 277.40999999999997 1222.6799999999998 276.65999999999997 1222.6499999999999ZM294.34 1222.65C293.59 1222.68 292.98999999999995 1223.3000000000002 292.98999999999995 1224.0600000000002C292.98999999999995 1224.4600000000003 293.15999999999997 1224.8200000000002 293.42999999999995 1225.0800000000002L294.94999999999993 1225.0800000000002ZM292.62 1231.6C292.47 1231.57 292.33 1231.51 292.19 1231.4199999999998C292.03 1231.31 291.9 1231.1599999999999 291.83 1230.9899999999998L290.65999999999997 1232.2399999999998C290.95 1232.5499999999997 291.22999999999996 1232.8199999999997 291.48999999999995 1233.0599999999997ZM279.52 1233.05C279.77 1232.81 280.04999999999995 1232.54 280.34 1232.23L279.16999999999996 1230.99C279.09999999999997 1231.16 278.97999999999996 1231.31 278.80999999999995 1231.42C278.67999999999995 1231.51 278.53 1231.5700000000002 278.37999999999994 1231.6000000000001ZM274.86 1223.73C274.41 1223.73 274.02000000000004 1223.47 273.84000000000003 1223.1L274.34000000000003 1225.08L275.37 1225.08L275.87 1223.1C275.69 1223.4699999999998 275.3 1223.73 274.86 1223.73ZM296.14 1223.73C295.7 1223.73 295.31 1223.47 295.13 1223.1L295.63 1225.08L296.67 1225.08L297.16 1223.1C296.98 1223.4699999999998 296.6 1223.73 296.14000000000004 1223.73ZM273.76 1230.44C274.99 1230.38 275.48 1229.74 275.59999999999997 1228.96C275.39 1228.96 275.16999999999996 1228.96 274.96 1228.96C274.79999999999995 1229.42 274.34999999999997 1229.68 273.95 1229.69L273.52 1228.97L273.09999999999997 1228.96L272.92999999999995 1228.96ZM295.41 1228.96C295.52000000000004 1229.74 296.02000000000004 1230.38 297.25 1230.44L298.08 1228.96L297.90999999999997 1228.96L297.47999999999996 1228.97L297.04999999999995 1229.69C296.65 1229.68 296.21 1229.42 296.04999999999995 1228.96C295.8299999999999 1228.96 295.61999999999995 1228.96 295.40999999999997 1228.96ZM318.13 1267.49L319.65999999999997 1267.49L319.41999999999996 1264.91L318.36999999999995 1264.91ZM309.89 1266.99L311.76 1266.99L311.76 1264.91L309.89 1264.91ZM243.67 1264.91L245.54 1264.91L245.54 1266.99L243.67 1266.99ZM276.05 1229.68C275.94 1229.97 275.78000000000003 1230.22 275.57 1230.43L276.37 1231.69L276.39 1231.73C276.69 1232.22 277.58 1231.65 277.19 1231.15ZM293.81 1231.15C293.42 1231.65 294.31 1232.22 294.62 1231.73L294.64 1231.69L295.43 1230.43C295.22 1230.22 295.07 1229.97 294.96 1229.68ZM295.59 1233.38C295.41999999999996 1233.38 295.25 1233.3400000000001 295.09 1233.24C294.92999999999995 1233.15 294.78999999999996 1233.02 294.67999999999995 1232.8700000000001L293.69999999999993 1234.44C294.05999999999995 1234.56 294.43999999999994 1234.64 294.85999999999996 1234.69ZM276.14 1234.69C276.56 1234.63 276.94 1234.56 277.3 1234.44L276.32 1232.8700000000001C276.21999999999997 1233.0200000000002 276.08 1233.15 275.90999999999997 1233.24C275.74999999999994 1233.34 275.58 1233.38 275.40999999999997 1233.38ZM274.9 1232.48C275.21999999999997 1233.03 276.08 1232.56 275.83 1232.08L275.03999999999996 1230.81C274.78 1230.94 274.46999999999997 1231.03 274.10999999999996 1231.07ZM296.89 1231.07C296.53 1231.03 296.22999999999996 1230.9399999999998 295.96999999999997 1230.81L295.17999999999995 1232.08C294.92999999999995 1232.56 295.78999999999996 1233.03 296.09999999999997 1232.48ZM272.47 1225.74L272.47 1226.43L277.24 1226.44L277.24 1225.74ZM293.76 1225.74L293.76 1226.44L295.05 1226.44L298.53000000000003 1226.43L298.53000000000003 1225.74ZM286.13 1220.17C285.94 1220.28 285.73 1220.3400000000001 285.5 1220.3400000000001C285.26 1220.3400000000001 285.05 1220.2800000000002 284.87 1220.17L285.5 1222.44ZM298.03 1230.39L297.64 1231.1100000000001L297.46999999999997 1231.38C297.78 1231.48 298.10999999999996 1231.5400000000002 298.45 1231.5400000000002C298.95 1231.5400000000002 299.37 1231.4600000000003 299.78 1231.2500000000002ZM272.55 1231.54C272.90000000000003 1231.54 273.22 1231.48 273.53000000000003 1231.3799999999999L273.37 1231.11L272.97 1230.3899999999999L271.22 1231.2499999999998C271.64000000000004 1231.4599999999998 272.05 1231.5399999999997 272.55 1231.5399999999997ZM285.5 1218.4C285.14 1218.4 284.86 1218.69 284.86 1219.0400000000002C284.86 1219.39 285.14 1219.6800000000003 285.5 1219.6800000000003C285.85 1219.6800000000003 286.13 1219.3900000000003 286.13 1219.0400000000002C286.13 1218.6900000000003 285.85 1218.4 285.5 1218.4ZM296.14 1222.14C295.89 1222.14 295.68 1222.3500000000001 295.68 1222.6100000000001C295.68 1222.8700000000001 295.89 1223.0700000000002 296.14 1223.0700000000002C296.40999999999997 1223.0700000000002 296.62 1222.8700000000001 296.62 1222.6100000000001C296.62 1222.3500000000001 296.41 1222.14 296.14 1222.14ZM274.86 1222.14C274.6 1222.14 274.39 1222.3500000000001 274.39 1222.6100000000001C274.39 1222.8700000000001 274.59999999999997 1223.0700000000002 274.86 1223.0700000000002C275.11 1223.0700000000002 275.32 1222.8700000000001 275.32 1222.6100000000001C275.32 1222.3500000000001 275.11 1222.14 274.86 1222.14ZM247.19 1268.64L247.19 1263.26L242.02 1263.26L242.02 1270.95L243.67000000000002 1270.95L243.67000000000002 1268.64Z " fill="#b99459" fill-opacity="1" transform="matrix(1,0,0,1,-217,-1216)"></path><path id="SvgjsPath1030" d="M290.14 1234C291.55 1235.46 293.43 1236.32 295.45 1236.43L295.45 1254.49C295.02 1254.72 289.88 1257.51 285.71999999999997 1258.27C281.57 1257.51 276.41999999999996 1254.72 275.99999999999994 1254.49L275.99999999999994 1236.43C278.0199999999999 1236.3200000000002 279.8999999999999 1235.46 281.30999999999995 1234C282.7699999999999 1234.17 284.24999999999994 1234.25 285.71999999999997 1234.25C287.2 1234.25 288.69 1234.17 290.14 1234ZM285.79 1257.1C288.19 1256.61 291.01000000000005 1255.56 293.95000000000005 1254.04L293.95000000000005 1253.31C293.50000000000006 1253.55 289.45000000000005 1255.69 285.74000000000007 1256.44L285.7200000000001 1256.44C281.87000000000006 1255.67 277.93000000000006 1253.54 277.49000000000007 1253.31L277.49000000000007 1254.04C280.39000000000004 1255.55 283.2200000000001 1256.61 285.6700000000001 1257.1L285.7300000000001 1257.11ZM293.95 1237.4C293.43 1237.27 292.72999999999996 1237.0800000000002 292 1236.71C290.66 1236.03 290.1 1235.38 290.07 1235.3500000000001L289.96 1235.21L289.78 1235.23C289.76 1235.23 287.86999999999995 1235.43 285.72999999999996 1235.43C283.59 1235.43 281.7 1235.23 281.67999999999995 1235.23L281.49999999999994 1235.21L281.38999999999993 1235.3500000000001C281.38999999999993 1235.3600000000001 280.8299999999999 1236.0200000000002 279.4599999999999 1236.71C278.7199999999999 1237.0900000000001 278.0199999999999 1237.28 277.4899999999999 1237.41L277.4899999999999 1238.0700000000002C277.7799999999999 1238.0200000000002 278.8099999999999 1237.7800000000002 279.7599999999999 1237.2900000000002C280.8699999999999 1236.7300000000002 281.4899999999999 1236.1900000000003 281.7599999999999 1235.91L281.77999999999986 1235.9L281.79999999999984 1235.9C282.26999999999987 1235.94 283.92999999999984 1236.0800000000002 285.71999999999986 1236.0800000000002L285.73999999999984 1236.0800000000002C287.53999999999985 1236.0800000000002 289.1999999999998 1235.94 289.65999999999985 1235.9L289.6899999999998 1235.9L289.6999999999998 1235.91C289.9699999999998 1236.19 290.5999999999998 1236.73 291.6999999999998 1237.2900000000002C292.6499999999998 1237.7800000000002 293.6599999999998 1238.0100000000002 293.9499999999998 1238.0700000000002ZM284.38 1246.28L284.38 1248.18L281.46 1248.18L281.46 1249.05L285.27 1249.05L285.27 1242.85L281.46 1242.85L281.46 1246.28ZM289.1 1243.84L289.1 1245.29L286.28000000000003 1245.29L286.28000000000003 1249.05L289.84000000000003 1249.05L289.84000000000003 1248.18L287.17 1248.18L287.17 1246.28L289.98 1246.28L289.98 1242.85L286.28000000000003 1242.85L286.28000000000003 1243.84ZM291.76 1243.84L291.76 1248.1799999999998L291 1248.1799999999998L291 1249.0499999999997L293.35 1249.0499999999997L293.35 1248.1799999999998L292.65000000000003 1248.1799999999998L292.65000000000003 1242.85L291.00000000000006 1242.85L291.00000000000006 1243.84ZM278.87 1243.84L278.87 1248.1799999999998L278.1 1248.1799999999998L278.1 1249.0499999999997L280.45000000000005 1249.0499999999997L280.45000000000005 1248.1799999999998L279.76000000000005 1248.1799999999998L279.76000000000005 1242.85L278.1 1242.85L278.1 1243.84ZM282.35 1245.29L284.38 1245.29L284.38 1243.84L282.35 1243.84Z " fill="#7e1b20" fill-opacity="1" transform="matrix(1,0,0,1,-217,-1216)"></path><path id="SvgjsPath1031" d="M281.38 1243.04L281.38 1246.45L284.28 1246.45L284.28 1248.38L281.38 1248.38L281.38 1249.23L285.15 1249.23L285.15 1243.04ZM286.2 1243.01L286.2 1244.02L289 1244.02L289 1245.48L286.17 1245.48L286.17 1249.26L289.73 1249.26L289.73 1248.33L287.07 1248.33L287.07 1246.46L289.84999999999997 1246.46L289.84999999999997 1243.01ZM278 1243.05L278 1244.03L278.75 1244.03L278.75 1248.37L278 1248.37L278 1249.25L280.36 1249.25L280.36 1248.37L279.68 1248.37L279.68 1243.05ZM284.26 1244.04L284.26 1245.47L282.27 1245.47L282.27 1244.04ZM290.93 1243L290.92 1244.02L291.66 1244.02L291.66 1248.3899999999999L290.92 1248.3899999999999L290.92 1249.2499999999998L293.26 1249.2499999999998L293.26 1248.3899999999999L292.57 1248.3899999999999L292.57 1242.9999999999998Z " fill="#b99459" fill-opacity="1" transform="matrix(1,0,0,1,-217,-1216)"></path></svg>