<svg id="SvgjsSvg1000" xmlns="http://www.w3.org/2000/svg" version="1.1" xmlns:xlink="http://www.w3.org/1999/xlink" xmlns:svgjs="http://svgjs.com/svgjs" width="69" height="53" viewBox="0 0 69 53"><title>Fill 1</title><desc>Created with Avocode.</desc><defs id="SvgjsDefs1001"></defs><path id="SvgjsPath1007" d="M1218 1188.5C1218 1200.36 1227.65 1210 1239.5 1210C1251.36 1210 1261 1200.36 1261 1188.5C1261 1176.65 1251.36 1167 1239.5 1167C1227.65 1167 1218 1176.65 1218 1188.5ZM1214 1188.5C1214 1174.44 1225.44 1163 1239.5 1163C1253.56 1163 1265 1174.44 1265 1188.5C1265 1202.56 1253.56 1214 1239.5 1214C1225.44 1214 1214 1202.56 1214 1188.5Z " fill="#b31b2c" fill-opacity="1" transform="matrix(1,0,0,1,-1196,-1161)"></path><path id="SvgjsPath1008" d="M1196 1172L1196 1161L1238 1161C1239.1 1161 1240 1161.9 1240 1163C1240 1164.1 1239.1 1165 1238 1165L1200 1165L1200 1168L1223 1168C1224.1 1168 1225 1168.9 1225 1170C1225 1171.1 1224.1 1172 1223 1172L1206 1172L1206 1175L1217 1175C1218.1 1175 1219 1175.9 1219 1177C1219 1178.1 1218.1 1179 1217 1179L1200 1179L1200 1182L1216 1182C1217.1 1182 1218 1182.9 1218 1184C1218 1185.1 1217.1 1186 1216 1186L1206 1186L1206 1189L1214 1189C1215.1 1189 1216 1189.9 1216 1191C1216 1192.1 1215.1 1193 1214 1193L1200 1193L1200 1196L1217 1196C1218.1 1196 1219 1196.9 1219 1198C1219 1199.1 1218.1 1200 1217 1200L1206 1200L1206 1203L1221 1203C1222.1 1203 1223 1203.9 1223 1205C1223 1206.1 1222.1 1207 1221 1207L1200 1207L1200 1210L1235 1210C1236.1 1210 1237 1210.9 1237 1212C1237 1213.1 1236.1 1214 1235 1214L1196 1214L1196 1203L1202 1203L1202 1200L1196 1200L1196 1189L1202 1189L1202 1186L1196 1186L1196 1175L1202 1175L1202 1172Z " fill="#b31b2c" fill-opacity="1" transform="matrix(1,0,0,1,-1196,-1161)"></path><path id="SvgjsPath1009" d="M1233.5 1185C1231.57 1185 1230 1183.43 1230 1181.5C1230 1179.57 1231.57 1178 1233.5 1178C1235.43 1178 1237 1179.57 1237 1181.5C1237 1183.43 1235.43 1185 1233.5 1185ZM1246.5 1198C1244.57 1198 1243 1196.43 1243 1194.5C1243 1192.57 1244.57 1191 1246.5 1191C1248.43 1191 1250 1192.57 1250 1194.5C1250 1196.43 1248.43 1198 1246.5 1198ZM1231.59 1196.41C1230.81 1195.63 1230.81 1194.3700000000001 1231.59 1193.5900000000001L1246.09 1179.0900000000001C1246.87 1178.3100000000002 1248.1299999999999 1178.3100000000002 1248.9099999999999 1179.0900000000001C1249.6999999999998 1179.8700000000001 1249.6999999999998 1181.13 1248.9099999999999 1181.91L1234.4099999999999 1196.41C1234.0199999999998 1196.8100000000002 1233.5099999999998 1197 1232.9999999999998 1197C1232.4899999999998 1197 1231.9799999999998 1196.81 1231.5899999999997 1196.41Z " fill="#cca266" fill-opacity="1" transform="matrix(1,0,0,1,-1196,-1161)"></path></svg>