<svg id="SvgjsSvg1010" xmlns="http://www.w3.org/2000/svg" version="1.1" xmlns:xlink="http://www.w3.org/1999/xlink" xmlns:svgjs="http://svgjs.com/svgjs" width="134" height="39" viewBox="0 0 134 39"><title>path4</title><desc>Created with Avocode.</desc><defs id="SvgjsDefs1011"></defs><path id="SvgjsPath1012" d="M645.45 1270.48L512 1270.48L512 1232L645.45 1232Z " fill="#000000" fill-opacity="1" transform="matrix(1,0,0,1,-512,-1232)"></path><path id="SvgjsPath1013" d="M525 1239.29L528.82 1239.29L529.74 1245.96L529.75 1245.96L530.75 1239.29L535.16 1239.29L536.15 1245.96L536.1899999999999 1245.96L537.0899999999999 1239.29L540.91 1239.29L538.5799999999999 1249.9099999999999L533.9599999999999 1249.9099999999999L532.9599999999999 1243.0199999999998L532.9399999999999 1243.0199999999998L531.9499999999999 1249.9099999999999L527.3299999999999 1249.9099999999999ZM601.12 1257.3C601.12 1260.61 599.29 1262.8899999999999 595.58 1262.8899999999999C591.88 1262.8899999999999 590.0200000000001 1260.61 590.0200000000001 1257.3C590.0200000000001 1253.99 591.8800000000001 1251.71 595.58 1251.71C599.2900000000001 1251.71 601.12 1253.99 601.12 1257.3ZM604.35 1239.29L609.45 1239.29L611.72 1245.71L611.74 1245.71L611.74 1239.29L615.21 1239.29L615.21 1249.9099999999999L610.1 1249.9099999999999L607.83 1243.4299999999998L607.7900000000001 1243.4299999999998L607.7900000000001 1249.9099999999999L604.35 1249.9099999999999ZM573.2 1251.98L575.47 1258.42L575.5 1258.42L575.5 1251.98L578.95 1251.98L578.95 1262.6L573.84 1262.6L571.57 1256.1399999999999L571.5500000000001 1256.1399999999999L571.5500000000001 1262.6L568.09 1262.6L568.09 1251.98ZM604.35 1251.98L609.45 1251.98L611.72 1258.42L611.74 1258.42L611.74 1251.98L615.21 1251.98L615.21 1262.6L610.1 1262.6L607.83 1256.1399999999999L607.7900000000001 1256.1399999999999L607.7900000000001 1262.6L604.35 1262.6ZM559.63 1239C562.31 1239 564.33 1239.84 564.33 1242.31L560.5200000000001 1242.31C560.5000000000001 1241.6499999999999 560.1300000000001 1241.4199999999998 559.58 1241.4199999999998C558.89 1241.4199999999998 558.6 1241.7099999999998 558.6 1242.0399999999997C558.6 1242.4199999999998 558.86 1242.5799999999997 559.3000000000001 1242.7099999999998C560.1200000000001 1242.9499999999998 561.6200000000001 1243.2499999999998 562.71 1243.6999999999998C564.0600000000001 1244.2599999999998 564.64 1245.2099999999998 564.64 1246.4899999999998C564.64 1249.0899999999997 562.51 1250.1799999999998 559.48 1250.1799999999998C556.89 1250.1799999999998 554.51 1249.3899999999999 554.51 1246.62L558.58 1246.62C558.58 1246.9199999999998 558.6500000000001 1247.2099999999998 558.8100000000001 1247.4299999999998C558.98 1247.6399999999999 559.23 1247.7799999999997 559.6300000000001 1247.7799999999997C560.2600000000001 1247.7799999999997 560.6700000000001 1247.3799999999997 560.6700000000001 1246.9099999999999C560.6700000000001 1246.5199999999998 560.35 1246.29 559.95 1246.1799999999998L556.9300000000001 1245.31C555.2800000000001 1244.82 554.7 1243.83 554.7 1242.46C554.7 1240.26 556.5 1239 559.63 1239ZM558.62 1251.98L558.62 1258.8700000000001C558.62 1259.71 559.01 1260.0300000000002 559.46 1260.0300000000002C559.9000000000001 1260.0300000000002 560.3000000000001 1259.7100000000003 560.3000000000001 1258.8700000000001L560.3000000000001 1251.98L564.57 1251.98L564.57 1259.04C564.57 1261.6 562.7 1262.8899999999999 559.46 1262.8899999999999C556.21 1262.8899999999999 554.35 1261.6 554.35 1259.04L554.35 1251.98ZM590.98 1239.29L597.34 1239.29C599.65 1239.29 601 1239.98 601 1241.98C601 1243.2 600.48 1244.13 598.87 1244.51L598.87 1244.53C599.91 1244.62 600.48 1245.08 600.69 1245.8899999999999C600.9300000000001 1246.8 600.8800000000001 1248.31 601.37 1249.9099999999999L597.21 1249.9099999999999C596.95 1249.12 596.83 1247.7699999999998 596.6800000000001 1246.85C596.59 1246.32 596.32 1246.12 595.6400000000001 1246.12L595.1500000000001 1246.12L595.1500000000001 1249.9099999999999L590.9800000000001 1249.9099999999999ZM567.07 1239.29L576.6400000000001 1239.29L576.6400000000001 1242.1299999999999L573.9800000000001 1242.1299999999999L573.9800000000001 1249.9099999999999L569.7300000000001 1249.9099999999999L569.7300000000001 1242.1299999999999L567.0700000000002 1242.1299999999999ZM579.52 1239.29L587.6999999999999 1239.29L587.6999999999999 1242.06L583.6099999999999 1242.06L583.6099999999999 1243.1799999999998L587.3799999999999 1243.1799999999998L587.3799999999999 1245.9399999999998L583.6099999999999 1245.9399999999998L583.6099999999999 1247.1399999999999L587.8299999999999 1247.1399999999999L587.8299999999999 1249.9099999999999L579.52 1249.9099999999999ZM543.51 1239.29L551.67 1239.29L551.67 1242.06L547.5799999999999 1242.06L547.5799999999999 1243.1799999999998L551.3599999999999 1243.1799999999998L551.3599999999999 1245.9399999999998L547.5799999999999 1245.9399999999998L547.5799999999999 1247.1399999999999L551.81 1247.1399999999999L551.81 1249.9099999999999L543.51 1249.9099999999999ZM586.81 1251.98L586.81 1262.6L582.55 1262.6L582.55 1251.98ZM618.3 1239.08L619.65 1239.08L619.65 1262.6599999999999L618.3 1262.6599999999999ZM627.93 1239.29L629.28 1239.29L629.28 1262.62L627.93 1262.62ZM633.33 1240.57C633.33 1241.35 632.69 1241.98 631.9000000000001 1241.98C631.1000000000001 1241.98 630.45 1241.35 630.45 1240.57C630.45 1239.79 631.1 1239.1499999999999 631.9000000000001 1239.1499999999999C632.69 1239.1499999999999 633.33 1239.79 633.33 1240.57ZM630.69 1240.57C630.69 1241.26 631.2 1241.79 631.9000000000001 1241.79C632.5900000000001 1241.79 633.0900000000001 1241.26 633.0900000000001 1240.57C633.0900000000001 1239.8799999999999 632.5900000000001 1239.33 631.9000000000001 1239.33C631.2 1239.33 630.69 1239.8799999999999 630.69 1240.57ZM595.15 1241.71L595.15 1243.72L595.5 1243.72C596.32 1243.72 596.91 1243.43 596.91 1242.64C596.91 1241.8600000000001 596.38 1241.71 595.54 1241.71ZM632.06 1239.77C632.4799999999999 1239.77 632.6199999999999 1239.94 632.6199999999999 1240.2C632.6199999999999 1240.51 632.4199999999998 1240.6200000000001 632.1299999999999 1240.63L632.5999999999999 1241.3600000000001L632.3699999999999 1241.3600000000001L631.9199999999998 1240.63L631.5699999999998 1240.63L631.5699999999998 1241.3600000000001L631.3699999999998 1241.3600000000001L631.3699999999998 1239.7700000000002ZM631.57 1240.47L631.86 1240.47C632.09 1240.47 632.41 1240.5 632.41 1240.18C632.41 1239.93 632.2099999999999 1239.91 632.02 1239.91L631.5699999999999 1239.91ZM594.43 1257.3C594.43 1259.76 594.93 1260.1299999999999 595.5799999999999 1260.1299999999999C596.2399999999999 1260.12 596.7199999999999 1259.76 596.7199999999999 1257.3C596.7199999999999 1254.8999999999999 596.2699999999999 1254.48 595.5799999999999 1254.48C594.9 1254.48 594.43 1254.9 594.43 1257.3Z " fill="#ffde38" fill-opacity="1" transform="matrix(1,0,0,1,-512,-1232)"></path></svg>