<svg id="SvgjsSvg1000" xmlns="http://www.w3.org/2000/svg" version="1.1" xmlns:xlink="http://www.w3.org/1999/xlink" xmlns:svgjs="http://svgjs.com/svgjs" width="74" height="67" viewBox="0 0 74 67"><title>Fill 1</title><desc>Created with Avocode.</desc><defs id="SvgjsDefs1001"></defs><path id="SvgjsPath1007" d="M649 1150L656.61 1150C657.46 1150 658.15 1150.67 658.15 1151.5C658.15 1152.33 657.4599999999999 1153 656.61 1153L649 1153ZM656.32 1157C659.4200000000001 1157 661.95 1154.53 661.95 1151.5C661.95 1148.47 659.4200000000001 1146 656.32 1146L647.61 1146C646.48 1146 645 1146.9 645 1148L645 1153L645.05 1153C643.92 1153 643 1153.9 643 1155C643 1156.1 643.92 1157 645.05 1157L645 1157L645 1158L645.05 1158C643.92 1158 643 1158.9 643 1160C643 1161.1 643.92 1162 645.05 1162L645 1162L645 1164C645 1165.11 645.87 1166 647 1166C648.13 1166 649 1165.11 649 1164L649 1162L656.32 1162C657.45 1162 658.37 1161.1 658.37 1160C658.37 1158.9 657.45 1158 656.32 1158L649 1158L649 1157Z " fill="#cca266" fill-opacity="1" transform="matrix(1,0,0,1,-601,-1118)"></path><path id="SvgjsPath1008" d="M675 1125L636 1125C632.69 1125 630 1127.69 630 1131L630 1185L669 1185C672.31 1185 675 1182.31 675 1179ZM671 1179C671 1180.1 670.1 1181 669 1181L634 1181L634 1131C634 1129.9 634.9 1129 636 1129L671 1129Z " fill="#b31b2c" fill-opacity="1" transform="matrix(1,0,0,1,-601,-1118)"></path><path id="SvgjsPath1009" d="M669 1120L633 1120C628.58 1120 625 1123.58 625 1128L625.25 1141.85 " fill-opacity="0" fill="#ffffff" stroke-dasharray="0" stroke-linejoin="miter" stroke-linecap="round" stroke-opacity="1" stroke="#b31b2c" stroke-miterlimit="50" stroke-width="4" transform="matrix(1,0,0,1,-601,-1118)"></path><path id="SvgjsPath1010" d="M618 1154L603 1154 " fill-opacity="0" fill="#ffffff" stroke-dasharray="0" stroke-linejoin="miter" stroke-linecap="round" stroke-opacity="1" stroke="#cca266" stroke-miterlimit="50" stroke-width="4" transform="matrix(1,0,0,1,-601,-1118)"></path><path id="SvgjsPath1011" d="M618 1183L605 1183 " fill-opacity="0" fill="#ffffff" stroke-dasharray="0" stroke-linejoin="miter" stroke-linecap="round" stroke-opacity="1" stroke="#cca266" stroke-miterlimit="50" stroke-width="4" transform="matrix(1,0,0,1,-601,-1118)"></path><path id="SvgjsPath1012" d="M618 1169L610 1169 " fill-opacity="0" fill="#ffffff" stroke-dasharray="0" stroke-linejoin="miter" stroke-linecap="round" stroke-opacity="1" stroke="#cca266" stroke-miterlimit="50" stroke-width="4" transform="matrix(1,0,0,1,-601,-1118)"></path></svg>