<svg id="SvgjsSvg1013" xmlns="http://www.w3.org/2000/svg" version="1.1" xmlns:xlink="http://www.w3.org/1999/xlink" xmlns:svgjs="http://svgjs.com/svgjs" width="76" height="74" viewBox="0 0 76 74"><title>Stroke 1</title><desc>Created with Avocode.</desc><defs id="SvgjsDefs1014"></defs><path id="SvgjsPath1015" d="M1257.6 1179.59C1263.9599999999998 1170.11 1266.1799999999998 1158.29 1266.1799999999998 1158.29L1238.0099999999998 1143L1209.9999999999998 1158.29C1209.9999999999998 1158.29 1211.2599999999998 1171.36 1217.7999999999997 1179.73 " fill-opacity="0" fill="#ffffff" stroke-dasharray="0" stroke-linejoin="miter" stroke-linecap="butt" stroke-opacity="1" stroke="#b31b2c" stroke-miterlimit="50" stroke-width="4" transform="matrix(1,0,0,1,-1201,-1120)"></path><path id="SvgjsPath1016" d="M1219 1152.59L1219 1134.6C1219 1132.61 1220.61 1131 1222.6 1131L1253.79 1131C1255.77 1131 1257.3799999999999 1132.61 1257.3799999999999 1134.6L1257.3799999999999 1152.59 " fill-opacity="0" fill="#ffffff" stroke-dasharray="0" stroke-linejoin="miter" stroke-linecap="butt" stroke-opacity="1" stroke="#b31b2c" stroke-miterlimit="50" stroke-width="4" transform="matrix(1,0,0,1,-1201,-1120)"></path><path id="SvgjsPath1017" d="M1226 1138L1232 1138 " fill-opacity="0" fill="#ffffff" stroke-dasharray="0" stroke-linejoin="miter" stroke-linecap="round" stroke-opacity="1" stroke="#b31b2c" stroke-miterlimit="50" stroke-width="4" transform="matrix(1,0,0,1,-1201,-1120)"></path><path id="SvgjsPath1018" d="M1244 1138L1250 1138 " fill-opacity="0" fill="#ffffff" stroke-dasharray="0" stroke-linejoin="miter" stroke-linecap="round" stroke-opacity="1" stroke="#b31b2c" stroke-miterlimit="50" stroke-width="4" transform="matrix(1,0,0,1,-1201,-1120)"></path><path id="SvgjsPath1019" d="M1229 1127L1229 1124.6C1229 1122.61 1230.61 1121 1232.6 1121L1244.59 1121C1246.58 1121 1248.1899999999998 1122.61 1248.1899999999998 1124.6L1248.1899999999998 1127 " fill-opacity="0" fill="#ffffff" stroke-dasharray="0" stroke-linejoin="miter" stroke-linecap="butt" stroke-opacity="1" stroke="#cca266" stroke-miterlimit="50" stroke-width="4" transform="matrix(1,0,0,1,-1201,-1120)"></path><path id="SvgjsPath1020" d="M1238 1142L1238 1178 " fill-opacity="0" fill="#ffffff" stroke-dasharray="0" stroke-linejoin="miter" stroke-linecap="butt" stroke-opacity="1" stroke="#b31b2c" stroke-miterlimit="50" stroke-width="4" transform="matrix(1,0,0,1,-1201,-1120)"></path><path id="SvgjsPath1021" d="M1203 1179C1207.5 1179 1207.5 1183.32 1212 1183.32C1216.49 1183.32 1216.49 1179 1220.99 1179C1225.49 1179 1225.49 1183.32 1229.99 1183.32C1234.49 1183.32 1234.49 1179 1238.99 1179C1243.49 1179 1243.49 1183.32 1247.99 1183.32C1252.49 1183.32 1252.49 1179 1256.99 1179C1261.49 1179 1261.49 1183.32 1265.99 1183.32C1270.5 1183.32 1270.5 1179 1275 1179 " fill-opacity="0" fill="#ffffff" stroke-dasharray="0" stroke-linejoin="miter" stroke-linecap="butt" stroke-opacity="1" stroke="#cca266" stroke-miterlimit="50" stroke-width="4" transform="matrix(1,0,0,1,-1201,-1120)"></path><path id="SvgjsPath1022" d="M1220 1188C1224.75 1188 1224.75 1191.8 1229.5 1191.8C1234.25 1191.8 1234.25 1188 1238.99 1188C1243.75 1188 1243.75 1191.8 1248.5 1191.8C1253.25 1191.8 1253.25 1188 1258 1188 " fill-opacity="0" fill="#ffffff" stroke-dasharray="0" stroke-linejoin="miter" stroke-linecap="butt" stroke-opacity="1" stroke="#cca266" stroke-miterlimit="50" stroke-width="4" transform="matrix(1,0,0,1,-1201,-1120)"></path></svg>